<?xml version="1.0" encoding="utf-8"?>
<!-- Generator: Adobe Illustrator 16.0.0, SVG Export Plug-In . SVG Version: 6.00 Build 0)  -->
<!DOCTYPE svg PUBLIC "-//W3C//DTD SVG 1.1//EN" "http://www.w3.org/Graphics/SVG/1.1/DTD/svg11.dtd">
<svg version="1.1" xmlns="http://www.w3.org/2000/svg" xmlns:xlink="http://www.w3.org/1999/xlink" x="0px" y="0px" width="70px"
	 height="70px" viewBox="0 0 70 70" enable-background="new 0 0 70 70" xml:space="preserve">
<g id="Layer_2">
	<circle fill="#E9EBEF" cx="35" cy="35" r="35"/>
</g>
<g id="Layer_1">
	<g>
		<path fill="#30F2D2" d="M36.169,26.392v4.494c0,0.679-0.548,1.229-1.226,1.232h-0.005c-0.681,0-1.232-0.551-1.232-1.232v-4.494
			c0-0.68,0.552-1.231,1.232-1.231h0.005C35.621,25.163,36.169,25.714,36.169,26.392z"/>
		<path fill="#30F2D2" d="M36.169,55.662v4.494c0,0.678-0.548,1.229-1.226,1.23h-0.005c-0.681,0-1.232-0.551-1.232-1.23v-4.494
			c0-0.682,0.552-1.231,1.232-1.231h0.005C35.621,54.433,36.169,54.981,36.169,55.662z"/>
		<path fill="#30F2D2" d="M22.449,42.125h-4.495c-0.68,0-1.231,0.552-1.231,1.23c0,0.682,0.551,1.233,1.231,1.233h4.495
			c0.68,0,1.231-0.552,1.231-1.233C23.681,42.677,23.129,42.125,22.449,42.125z"/>
	</g>
	<g>
		<path fill="#28DDC4" d="M51.801,42.125h-4.495c-0.681,0-1.231,0.552-1.231,1.23c0,0.682,0.551,1.233,1.231,1.233h4.495
			c0.679,0,1.23-0.552,1.23-1.233C53.031,42.677,52.479,42.125,51.801,42.125z"/>
		<path fill="#28DDC4" d="M36.169,26.392v4.494c0,0.679-0.548,1.229-1.226,1.232v-6.958C35.621,25.163,36.169,25.714,36.169,26.392z
			"/>
		<path fill="#28DDC4" d="M36.169,55.662v4.494c0,0.678-0.548,1.229-1.226,1.23v-6.956C35.621,54.433,36.169,54.981,36.169,55.662z"
			/>
	</g>
	<path fill="#7AA2DD" d="M32.33,41.876c-0.315,0-0.629-0.12-0.87-0.361L18.762,28.818c-0.481-0.481-0.481-1.26,0-1.741
		s1.261-0.481,1.742,0l12.697,12.696c0.481,0.482,0.481,1.262,0,1.742C32.96,41.756,32.646,41.876,32.33,41.876z"/>
	<path fill="#5F89D3" d="M50.387,59.933c-0.315,0-0.631-0.121-0.87-0.36L36.74,46.796c-0.481-0.481-0.481-1.261,0-1.741
		c0.48-0.481,1.261-0.481,1.741,0L51.259,57.83c0.48,0.481,0.48,1.262,0,1.742C51.017,59.812,50.702,59.933,50.387,59.933z"/>
	<path fill="#7AA2DD" d="M19.514,59.91c-0.314,0-0.63-0.12-0.87-0.361c-0.481-0.48-0.481-1.26,0-1.741l12.776-12.776
		c0.481-0.48,1.261-0.48,1.742,0c0.48,0.482,0.48,1.262,0,1.742L20.384,59.549C20.145,59.79,19.829,59.91,19.514,59.91z"/>
	<path fill="#5F89D3" d="M37.57,41.853c-0.313,0-0.63-0.119-0.869-0.36c-0.482-0.48-0.482-1.26,0-1.742l12.696-12.697
		c0.479-0.481,1.26-0.481,1.741,0c0.48,0.48,0.48,1.261,0,1.741L38.442,41.492C38.201,41.732,37.887,41.853,37.57,41.853z"/>
	<path fill="#1A64E5" d="M17.688,29.85c1.004,0,1.948-0.391,2.658-1.1c0.709-0.71,1.1-1.654,1.1-2.658
		c0-1.004-0.391-1.948-1.1-2.658c-0.71-0.71-1.655-1.101-2.658-1.101c-1.004,0-1.948,0.391-2.658,1.101
		c-0.71,0.709-1.101,1.653-1.101,2.658c0,1.003,0.391,1.947,1.101,2.658C15.74,29.459,16.684,29.85,17.688,29.85z"/>
	<g>
		<path fill="#1346B7" d="M54.828,57.914c-1.466-1.466-3.85-1.466-5.315,0c-1.465,1.466-1.465,3.851,0,5.316
			c0.732,0.731,1.694,1.098,2.657,1.098c0.964,0,1.926-0.366,2.658-1.098c0.709-0.711,1.101-1.654,1.101-2.658
			S55.537,58.624,54.828,57.914L54.828,57.914z"/>
		<path fill="#1346B7" d="M52.171,29.854c1.004,0,1.948-0.391,2.657-1.101c0.71-0.71,1.101-1.654,1.101-2.657
			c0-1.004-0.391-1.948-1.101-2.658c-0.709-0.71-1.653-1.101-2.657-1.101s-1.948,0.391-2.657,1.101
			c-0.709,0.709-1.102,1.653-1.102,2.658c0,1.003,0.393,1.947,1.102,2.657C50.223,29.464,51.167,29.854,52.171,29.854z"/>
	</g>
	<g>
		<path fill="#1A64E5" d="M17.689,56.838c-1.004,0-1.948,0.392-2.657,1.101c-0.71,0.71-1.102,1.654-1.102,2.657
			c0,1.005,0.392,1.948,1.102,2.658c0.709,0.71,1.653,1.102,2.657,1.102s1.948-0.392,2.658-1.102s1.101-1.653,1.101-2.658
			c0-1.003-0.391-1.947-1.101-2.657C19.637,57.229,18.693,56.838,17.689,56.838z"/>
		<path fill="#1A64E5" d="M38.417,46.733c-0.927,0.928-2.161,1.439-3.474,1.441h-0.004c-1.314,0-2.55-0.513-3.479-1.441
			c-1.919-1.919-1.919-5.041,0-6.961c0.96-0.96,2.221-1.438,3.483-1.438c1.258,0,2.517,0.48,3.474,1.438
			C40.337,41.692,40.337,44.814,38.417,46.733z"/>
	</g>
	<path fill="#1346B7" d="M38.417,46.733c-0.927,0.928-2.161,1.439-3.474,1.441v-9.84c1.258,0,2.517,0.48,3.474,1.438
		C40.337,41.692,40.337,44.814,38.417,46.733z"/>
	<path fill="#7AA2DD" d="M44.555,33.639c-2.65-2.651-6.131-3.976-9.612-3.978c-3.483,0-6.967,1.325-9.619,3.978
		c-5.302,5.301-5.302,13.927,0,19.229c2.651,2.651,6.133,3.977,9.615,3.976h0.004c3.481,0,6.961-1.325,9.612-3.976
		c2.567-2.568,3.982-5.982,3.982-9.614C48.537,39.621,47.122,36.206,44.555,33.639z M42.812,51.128
		c-2.169,2.169-5.019,3.255-7.869,3.255c-2.853,0.002-5.706-1.084-7.877-3.255c-4.341-4.342-4.341-11.406,0-15.749
		c2.17-2.17,5.021-3.255,7.873-3.255h0.004c1.423,0,2.848,0.271,4.188,0.813c1.342,0.542,2.596,1.357,3.681,2.441
		c2.104,2.105,3.263,4.9,3.263,7.875C46.074,46.229,44.915,49.022,42.812,51.128z"/>
	<path fill="#5F89D3" d="M48.537,43.254c0,3.632-1.415,7.046-3.982,9.614c-2.65,2.65-6.131,3.976-9.612,3.976v-2.461
		c2.85,0,5.7-1.086,7.869-3.255c2.104-2.105,3.263-4.898,3.263-7.874c0-2.975-1.159-5.77-3.263-7.875
		c-1.085-1.084-2.339-1.899-3.681-2.441c-1.34-0.542-2.765-0.813-4.188-0.813v-2.463c3.481,0.001,6.961,1.327,9.612,3.978
		C47.122,36.206,48.537,39.621,48.537,43.254z"/>
</g>
</svg>
