<?xml version="1.0" encoding="utf-8"?>
<!-- Generator: Adobe Illustrator 16.0.0, SVG Export Plug-In . SVG Version: 6.00 Build 0)  -->
<!DOCTYPE svg PUBLIC "-//W3C//DTD SVG 1.1//EN" "http://www.w3.org/Graphics/SVG/1.1/DTD/svg11.dtd">
<svg version="1.1" xmlns="http://www.w3.org/2000/svg" xmlns:xlink="http://www.w3.org/1999/xlink" x="0px" y="0px" width="200px"
	 height="200px" viewBox="0 0 200 200" enable-background="new 0 0 200 200" xml:space="preserve">
<g id="Layer_2">
	<circle fill="#E9EBEF" cx="100" cy="100.395" r="100"/>
</g>
<g id="Layer_1">
	<path fill="#1A64E5" d="M157.689,89.653c-20.733-20.737-41.291-11.677-57.747,3.116c-16.464-14.793-36.85-24.017-57.75-3.116
		c-16.295,16.286-16.374,42.456,0,58.653C99.764,200.093,99.75,200,99.75,200s0.083,0.171,57.935-51.694
		C174.068,132.108,173.984,105.938,157.689,89.653L157.689,89.653z M157.689,89.653"/>
	<path fill="#094BDE" d="M99.94,92.764l-0.042-0.03v107.139c0.926-0.779,7.714-6.675,57.786-51.572
		c16.379-16.192,16.298-42.362,0-58.648C136.951,68.916,116.398,77.976,99.94,92.764L99.94,92.764z M99.94,92.764"/>
</g>
</svg>
