<?xml version="1.0" encoding="utf-8"?>
<!-- Generator: Adobe Illustrator 16.0.0, SVG Export Plug-In . SVG Version: 6.00 Build 0)  -->
<!DOCTYPE svg PUBLIC "-//W3C//DTD SVG 1.1//EN" "http://www.w3.org/Graphics/SVG/1.1/DTD/svg11.dtd">
<svg version="1.1" xmlns="http://www.w3.org/2000/svg" xmlns:xlink="http://www.w3.org/1999/xlink" x="0px" y="0px" width="200px"
	 height="200px" viewBox="0 0 200 200" enable-background="new 0 0 200 200" xml:space="preserve">
<g id="Layer_2">
	<circle fill="#E9EBEF" cx="100" cy="100" r="100"/>
</g>
<g id="Layer_1">
	<path fill="#1A64E5" d="M98.877,199.359C63.882,176.107,46,139.833,46,102.405V92.68c0-1.584,0.973-3.006,2.45-3.578l51.163-19.82
		c0.893-0.346,1.883-0.346,2.773,0l51.162,19.82c1.479,0.572,2.451,1.994,2.451,3.578v9.725c0,37.742-18.152,73.885-52.876,96.954
		C101.84,200.213,100.165,200.215,98.877,199.359z"/>
	<path fill="#1346B7" d="M153.549,89.102l-51.162-19.82c-0.444-0.173-0.916-0.259-1.387-0.259V200c0.742,0,1.479-0.215,2.124-0.641
		C137.848,176.29,156,140.147,156,102.405V92.68C156,91.096,155.027,89.674,153.549,89.102z"/>
	<path fill="#D0DAF1" d="M98.653,183.541c-24.376-18.842-39.862-48.115-39.862-82.1c0-1.583,0.974-3.005,2.451-3.578L99.613,83
		c0.893-0.346,1.883-0.346,2.773,0l38.372,14.863c1.479,0.573,2.449,1.995,2.449,3.578c0,33.964-15.479,63.252-39.858,82.1
		C101.967,184.608,100.035,184.609,98.653,183.541z"/>
	<path fill="#BFCAE2" d="M140.759,97.863L102.387,83c-0.444-0.173-0.916-0.26-1.387-0.26v101.601c0.829,0,1.656-0.269,2.35-0.8
		c24.379-18.848,39.858-48.136,39.858-82.1C143.208,99.858,142.237,98.436,140.759,97.863z"/>
	<path fill="#1346B7" d="M92.998,146.572l-10.06-10.061c-1.499-1.498-1.499-3.927,0-5.425c1.498-1.499,3.929-1.499,5.426,0
		l7.347,7.348l17.926-17.927c1.498-1.497,3.927-1.497,5.423,0c1.5,1.5,1.5,3.93,0,5.428l-20.636,20.637
		C96.926,148.07,94.496,148.07,92.998,146.572z"/>
	<path fill="#1346B7" d="M119.06,120.508c-1.496-1.497-3.925-1.497-5.423,0L101,133.144v10.854l18.06-18.063
		C120.56,124.438,120.56,122.008,119.06,120.508z"/>
</g>
</svg>
