<?xml version="1.0" encoding="utf-8"?>
<!-- Generator: Adobe Illustrator 16.0.0, SVG Export Plug-In . SVG Version: 6.00 Build 0)  -->
<!DOCTYPE svg PUBLIC "-//W3C//DTD SVG 1.1//EN" "http://www.w3.org/Graphics/SVG/1.1/DTD/svg11.dtd">
<svg version="1.1" xmlns="http://www.w3.org/2000/svg" xmlns:xlink="http://www.w3.org/1999/xlink" x="0px" y="0px" width="70px"
	 height="70px" viewBox="0 0 70 70" enable-background="new 0 0 70 70" xml:space="preserve">
<g id="Layer_2">
	<circle fill="#E9EBEF" cx="35" cy="35" r="35"/>
</g>
<g id="Layer_1">
	<path fill="#30F2D2" d="M50.151,35.872h-2.272h-4.545H35h-8.333h-4.545h-2.272c-1.255,0-2.273,1.018-2.273,2.272v25.758
		c0,1.255,1.018,2.272,2.273,2.272H35h15.151c1.255,0,2.272-1.018,2.272-2.272V38.145C52.424,36.89,51.406,35.872,50.151,35.872z"/>
	<path fill="#1A64E5" d="M26.667,29.053c0-4.595,3.739-8.333,8.333-8.333s8.334,3.738,8.334,8.333v6.819h4.545v-6.819
		c0-7.101-5.777-12.878-12.879-12.878s-12.879,5.777-12.879,12.878v6.819h4.545V29.053L26.667,29.053z"/>
	<path fill="#1346B7" d="M41.437,46.196c-0.888-0.887-2.327-0.887-3.214,0L35,49.419l-1.61,1.609l-1.613-1.612
		c-0.887-0.888-2.327-0.888-3.214,0c-0.888,0.888-0.888,2.327,0,3.214l3.22,3.221c0.444,0.443,1.025,0.665,1.607,0.665
		s1.163-0.222,1.607-0.665L35,55.847l6.437-6.436C42.324,48.522,42.324,47.084,41.437,46.196z"/>
	<path fill="#28DDC4" d="M19.849,66.175H35V55.847l-0.003,0.004c-0.444,0.443-1.025,0.665-1.607,0.665s-1.163-0.222-1.607-0.665
		l-3.22-3.221c-0.888-0.887-0.888-2.326,0-3.213c0.888-0.889,2.327-0.889,3.214,0l1.612,1.611L35,49.419V35.872h-8.333h-4.545
		h-2.272c-1.255,0-2.273,1.018-2.273,2.272v25.758C17.576,65.157,18.593,66.175,19.849,66.175z"/>
	<path fill="#1346B7" d="M22.121,29.054v6.818h4.545v-6.818c0-4.595,3.738-8.333,8.333-8.333v-4.545
		C27.898,16.175,22.121,21.952,22.121,29.054z"/>
</g>
</svg>
