<?xml version="1.0" encoding="utf-8"?>
<!-- Generator: Adobe Illustrator 16.0.0, SVG Export Plug-In . SVG Version: 6.00 Build 0)  -->
<!DOCTYPE svg PUBLIC "-//W3C//DTD SVG 1.1//EN" "http://www.w3.org/Graphics/SVG/1.1/DTD/svg11.dtd">
<svg version="1.1" id="Layer_1" xmlns="http://www.w3.org/2000/svg" xmlns:xlink="http://www.w3.org/1999/xlink" x="0px" y="0px"
	 width="50px" height="50px" viewBox="0 0 50 50" enable-background="new 0 0 50 50" xml:space="preserve">
<g>
	<path fill="#0391FD" d="M21.552,9.122C9.648,9.122,0,17.776,0,28.448c0,3.931,1.313,7.589,3.566,10.641
		C3.271,42.611,2.416,47.579,0,50c0,0,7.303-1.027,12.304-4.012c0.004-0.004,0.008-0.01,0.013-0.01
		c1.544-0.954,3.283-2.066,3.708-2.397c0.26-0.362,0.758-0.473,1.146-0.236c0.256,0.156,0.42,0.442,0.42,0.741
		c0.004,0.5-0.009,0.644-3.149,2.602c2.227,0.698,4.619,1.08,7.11,1.08c11.9,0,21.552-8.649,21.552-19.319
		C43.104,17.776,33.457,9.122,21.552,9.122L21.552,9.122z M21.552,9.122"/>
	<path fill="#0F71D3" d="M50,21.043c0-10.671-9.648-19.321-21.553-19.321c-8.591,0-16.013,4.513-19.473,11.037
		c3.54-2.286,7.88-3.637,12.578-3.637c11.905,0,21.552,8.654,21.552,19.327c0,4.082-1.414,7.862-3.826,10.986
		C44.106,41.767,50,42.596,50,42.596c-2.416-2.416-3.267-7.384-3.562-10.911C48.687,28.633,50,24.979,50,21.043L50,21.043z
		 M50,21.043"/>
	<path fill="#FFFFFF" d="M28.019,23.274H15.95c-0.476,0-0.863-0.387-0.863-0.863c0-0.475,0.387-0.863,0.863-0.863h12.069
		c0.476,0,0.862,0.388,0.862,0.863C28.881,22.887,28.494,23.274,28.019,23.274L28.019,23.274z M28.019,23.274"/>
	<path fill="#FFFFFF" d="M32.758,29.311H11.205c-0.475,0-0.858-0.388-0.858-0.862c0-0.478,0.383-0.864,0.858-0.864h21.553
		c0.476,0,0.863,0.387,0.863,0.864C33.621,28.923,33.233,29.311,32.758,29.311L32.758,29.311z M32.758,29.311"/>
	<path fill="#FFFFFF" d="M32.758,35.343H11.205c-0.475,0-0.858-0.383-0.858-0.864c0-0.475,0.383-0.857,0.858-0.857h21.553
		c0.476,0,0.863,0.383,0.863,0.857C33.621,34.96,33.233,35.343,32.758,35.343L32.758,35.343z M32.758,35.343"/>
</g>
</svg>
