<?xml version="1.0" encoding="utf-8"?>
<!-- Generator: Adobe Illustrator 16.0.0, SVG Export Plug-In . SVG Version: 6.00 Build 0)  -->
<!DOCTYPE svg PUBLIC "-//W3C//DTD SVG 1.1//EN" "http://www.w3.org/Graphics/SVG/1.1/DTD/svg11.dtd">
<svg version="1.1" id="Layer_1" xmlns="http://www.w3.org/2000/svg" xmlns:xlink="http://www.w3.org/1999/xlink" x="0px" y="0px"
	 width="60px" height="60px" viewBox="0 0 60 60" enable-background="new 0 0 60 60" xml:space="preserve">
<g>
	<path fill="#4BB9EC" d="M29.995,60c-0.971,0-1.759-0.787-1.759-1.759V36.587c0-0.972,0.788-1.759,1.759-1.759
		c0.971,0,1.758,0.787,1.758,1.759v21.654C31.753,59.213,30.966,60,29.995,60L29.995,60z M29.995,60"/>
	<path fill="#1346B7" d="M35.799,52.407c-0.687-0.687-1.8-0.687-2.487,0l-3.316,3.317l-3.317-3.317c-0.687-0.687-1.8-0.687-2.487,0
		c-0.687,0.687-0.687,1.801,0,2.487l4.561,4.561c0.344,0.344,0.793,0.516,1.243,0.516c0.451,0,0.9-0.172,1.243-0.516l4.562-4.561
		C36.486,54.208,36.486,53.094,35.799,52.407L35.799,52.407z M35.799,52.407"/>
	<path fill="#1A64E5" d="M18.907,34.828c-0.971,0-1.758,0.787-1.758,1.759V49.79H1.758C0.787,49.79,0,50.577,0,51.549
		c0,0.971,0.787,1.758,1.758,1.758h17.148c0.971,0,1.758-0.787,1.758-1.758V36.587C20.665,35.615,19.878,34.828,18.907,34.828
		L18.907,34.828z M18.907,34.828"/>
	<path fill="#1A64E5" d="M58.241,49.79h-15.39V36.587c0-0.972-0.788-1.759-1.759-1.759s-1.759,0.787-1.759,1.759v14.962
		c0,0.971,0.788,1.758,1.759,1.758h17.148c0.972,0,1.759-0.787,1.759-1.758C60,50.577,59.213,49.79,58.241,49.79L58.241,49.79z
		 M58.241,49.79"/>
	<path fill="#1346B7" d="M8.771,54.654l-4.1-3.105l4.1-3.106c0.774-0.586,0.926-1.688,0.34-2.463
		c-0.587-0.774-1.689-0.927-2.463-0.34l-5.951,4.507c-0.012,0.01-0.023,0.02-0.035,0.029c-0.029,0.023-0.057,0.047-0.085,0.071
		c-0.021,0.02-0.041,0.039-0.061,0.059c-0.02,0.021-0.041,0.04-0.06,0.062c-0.024,0.027-0.047,0.056-0.07,0.083
		c-0.01,0.013-0.021,0.023-0.03,0.036c-0.004,0.005-0.007,0.01-0.01,0.015c-0.023,0.031-0.044,0.064-0.065,0.097
		c-0.012,0.018-0.023,0.034-0.034,0.052C0.23,50.679,0.214,50.71,0.198,50.74c-0.011,0.022-0.023,0.044-0.034,0.066
		c-0.012,0.025-0.021,0.052-0.032,0.077c-0.012,0.028-0.024,0.056-0.034,0.085c-0.008,0.021-0.013,0.042-0.02,0.063
		c-0.01,0.033-0.021,0.066-0.029,0.101c-0.004,0.02-0.007,0.039-0.011,0.059c-0.008,0.035-0.015,0.071-0.02,0.107
		c-0.004,0.021-0.005,0.043-0.007,0.064c-0.003,0.034-0.008,0.067-0.009,0.102c-0.001,0.027,0,0.055,0,0.083
		c0,0.027,0,0.055,0,0.083c0.001,0.034,0.006,0.067,0.009,0.102c0.002,0.021,0.003,0.043,0.007,0.064
		c0.005,0.036,0.012,0.072,0.02,0.107c0.004,0.02,0.007,0.039,0.011,0.058c0.009,0.035,0.019,0.068,0.029,0.102
		c0.007,0.021,0.012,0.043,0.02,0.063c0.01,0.028,0.022,0.057,0.034,0.085c0.01,0.026,0.021,0.052,0.032,0.078
		c0.01,0.021,0.022,0.043,0.034,0.065c0.016,0.031,0.032,0.062,0.049,0.091c0.011,0.018,0.022,0.034,0.034,0.052
		c0.021,0.032,0.042,0.065,0.065,0.097c0.003,0.005,0.006,0.01,0.01,0.014c0.007,0.01,0.016,0.019,0.023,0.027
		c0.029,0.037,0.06,0.073,0.093,0.108c0.017,0.018,0.033,0.035,0.05,0.052c0.027,0.027,0.056,0.053,0.084,0.078
		c0.022,0.02,0.045,0.038,0.067,0.057c0.008,0.006,0.015,0.013,0.022,0.019l5.951,4.508c0.317,0.24,0.69,0.356,1.06,0.356
		c0.532,0,1.058-0.241,1.403-0.697C9.698,56.343,9.545,55.24,8.771,54.654L8.771,54.654z M8.771,54.654"/>
	<path fill="#1346B7" d="M59.752,52.447c0.018-0.029,0.033-0.061,0.05-0.092c0.011-0.021,0.023-0.043,0.033-0.064
		c0.013-0.026,0.022-0.053,0.033-0.078c0.011-0.028,0.023-0.056,0.033-0.085c0.007-0.021,0.013-0.043,0.02-0.063
		c0.01-0.033,0.021-0.067,0.028-0.101c0.005-0.02,0.008-0.039,0.012-0.059c0.008-0.036,0.016-0.071,0.021-0.107
		c0.003-0.021,0.004-0.043,0.007-0.065c0.003-0.033,0.007-0.067,0.009-0.101c0.002-0.027,0.001-0.056,0.001-0.083
		s0.001-0.056-0.001-0.083c-0.001-0.034-0.005-0.067-0.009-0.101c-0.003-0.022-0.004-0.044-0.007-0.065
		c-0.005-0.036-0.013-0.071-0.021-0.107c-0.004-0.02-0.007-0.039-0.012-0.058c-0.008-0.035-0.019-0.068-0.028-0.102
		c-0.007-0.021-0.013-0.043-0.02-0.063c-0.01-0.029-0.022-0.057-0.033-0.085c-0.011-0.026-0.021-0.052-0.033-0.078
		c-0.01-0.021-0.022-0.043-0.033-0.064c-0.017-0.031-0.032-0.063-0.05-0.093c-0.011-0.017-0.022-0.033-0.033-0.05
		c-0.021-0.033-0.043-0.066-0.066-0.099c-0.003-0.004-0.006-0.009-0.01-0.014c-0.009-0.012-0.02-0.023-0.029-0.035
		c-0.023-0.028-0.046-0.058-0.071-0.084c-0.019-0.021-0.039-0.041-0.059-0.061c-0.021-0.021-0.04-0.041-0.062-0.061
		c-0.026-0.023-0.055-0.047-0.083-0.069c-0.013-0.01-0.023-0.021-0.036-0.03l-5.95-4.508c-0.775-0.586-1.878-0.434-2.464,0.341
		c-0.587,0.774-0.435,1.877,0.34,2.463l4.1,3.106l-4.1,3.105c-0.774,0.586-0.927,1.688-0.34,2.463
		c0.345,0.457,0.871,0.697,1.402,0.697c0.37,0,0.743-0.116,1.062-0.356l5.95-4.508c0.009-0.006,0.016-0.013,0.022-0.019
		c0.023-0.019,0.045-0.037,0.067-0.056c0.029-0.026,0.057-0.052,0.084-0.079c0.018-0.017,0.034-0.033,0.05-0.051
		c0.033-0.036,0.064-0.072,0.095-0.109c0.007-0.01,0.015-0.018,0.021-0.026c0.004-0.005,0.007-0.01,0.01-0.015
		c0.023-0.031,0.046-0.063,0.066-0.097C59.729,52.481,59.741,52.465,59.752,52.447L59.752,52.447z M59.752,52.447"/>
	<path fill="#5BDDCB" d="M56.945,29.231c0,5.025-4.106,9.114-9.156,9.114H15.061c-6.625,0-12.016-5.391-12.016-12.016
		c0-6.626,5.391-12.016,12.016-12.016c0.64,0,1.275,0.052,1.902,0.152c1.24-2.463,3.068-4.575,5.359-6.165
		c2.293-1.591,4.917-2.563,7.671-2.853c0.578-0.061,1.164-0.091,1.751-0.091c8.508,0,15.534,6.456,16.443,14.726
		C53.053,20.294,56.945,24.315,56.945,29.231L56.945,29.231z M56.945,29.231"/>
	<path fill="#27DDC4" d="M56.945,29.231c0,5.025-4.106,9.114-9.156,9.114H29.994V5.449c0.578-0.061,1.163-0.091,1.751-0.091
		c8.507,0,15.534,6.456,16.443,14.726C53.053,20.294,56.945,24.315,56.945,29.231L56.945,29.231z M56.945,29.231"/>
</g>
</svg>
