<?xml version="1.0" encoding="utf-8"?>
<!-- Generator: Adobe Illustrator 16.0.0, SVG Export Plug-In . SVG Version: 6.00 Build 0)  -->
<!DOCTYPE svg PUBLIC "-//W3C//DTD SVG 1.1//EN" "http://www.w3.org/Graphics/SVG/1.1/DTD/svg11.dtd">
<svg version="1.1" id="Layer_1" xmlns="http://www.w3.org/2000/svg" xmlns:xlink="http://www.w3.org/1999/xlink" x="0px" y="0px"
	 width="50px" height="50px" viewBox="0 0 50 50" enable-background="new 0 0 50 50" xml:space="preserve">
<path fill="#1A63E4" d="M49.071,16.227l-1.345,0.986l-2.271,1.667L26.344,32.893c-0.4,0.294-0.872,0.441-1.344,0.441
	s-0.944-0.147-1.344-0.441L4.545,18.879l-2.273-1.667l-1.344-0.986C0.335,15.792,0.002,15.108,0,14.4v33.327
	C0,48.982,1.018,50,2.273,50H25h22.727C48.982,50,50,48.982,50,47.727V14.4C49.998,15.108,49.664,15.792,49.071,16.227z"/>
<path fill="#30F2D2" d="M49.99,14.185c-0.003-0.022-0.006-0.045-0.009-0.067c-0.005-0.045-0.013-0.091-0.021-0.135
	c-0.006-0.028-0.01-0.055-0.017-0.083c-0.009-0.039-0.019-0.078-0.03-0.116c-0.008-0.028-0.015-0.058-0.023-0.086
	c-0.002-0.003-0.002-0.007-0.004-0.01c-0.014-0.045-0.031-0.088-0.049-0.132c-0.014-0.035-0.028-0.068-0.043-0.102
	c-0.02-0.041-0.037-0.081-0.059-0.12c-0.012-0.023-0.025-0.046-0.039-0.07c-0.021-0.036-0.043-0.072-0.066-0.107
	c-0.014-0.021-0.027-0.042-0.042-0.063c-0.026-0.037-0.054-0.073-0.081-0.108c-0.014-0.017-0.027-0.035-0.041-0.051
	c-0.037-0.045-0.078-0.089-0.119-0.131c-0.006-0.005-0.01-0.011-0.016-0.017c-0.047-0.046-0.097-0.091-0.147-0.134
	c-0.017-0.014-0.033-0.026-0.05-0.039c-0.035-0.028-0.071-0.055-0.108-0.081c-0.022-0.015-0.044-0.03-0.066-0.044
	c-0.034-0.022-0.068-0.042-0.104-0.063c-0.024-0.014-0.048-0.028-0.073-0.041c-0.039-0.021-0.078-0.04-0.119-0.058
	c-0.021-0.01-0.041-0.02-0.063-0.029c-0.058-0.024-0.117-0.046-0.178-0.066c-0.025-0.008-0.053-0.015-0.078-0.022
	c-0.041-0.011-0.081-0.022-0.123-0.031c-0.026-0.006-0.053-0.011-0.08-0.017c-0.045-0.008-0.09-0.015-0.135-0.02
	c-0.023-0.003-0.047-0.007-0.07-0.009c-0.069-0.006-0.139-0.01-0.21-0.01H25H2.273c-0.071,0-0.141,0.004-0.21,0.01
	c-0.024,0.002-0.047,0.006-0.071,0.009c-0.045,0.005-0.09,0.012-0.135,0.021c-0.027,0.005-0.054,0.01-0.081,0.016
	c-0.042,0.009-0.082,0.02-0.123,0.032c-0.026,0.007-0.052,0.014-0.077,0.022c-0.061,0.02-0.121,0.041-0.179,0.065
	c-0.021,0.009-0.042,0.02-0.063,0.029c-0.04,0.019-0.08,0.037-0.119,0.058c-0.024,0.013-0.048,0.027-0.073,0.041
	c-0.035,0.02-0.069,0.041-0.103,0.063c-0.022,0.015-0.045,0.029-0.067,0.045c-0.037,0.025-0.073,0.053-0.108,0.081
	c-0.017,0.013-0.034,0.025-0.05,0.039c-0.051,0.043-0.101,0.087-0.147,0.134c-0.006,0.005-0.011,0.011-0.016,0.017
	c-0.042,0.042-0.081,0.085-0.119,0.131c-0.014,0.017-0.027,0.034-0.041,0.051c-0.028,0.035-0.055,0.072-0.081,0.108
	c-0.015,0.021-0.029,0.042-0.043,0.063c-0.023,0.035-0.044,0.071-0.065,0.107c-0.013,0.023-0.027,0.046-0.04,0.07
	c-0.021,0.04-0.039,0.08-0.058,0.12c-0.015,0.034-0.03,0.067-0.044,0.102c-0.017,0.043-0.035,0.087-0.049,0.132
	c-0.001,0.003-0.002,0.007-0.003,0.01c-0.009,0.028-0.017,0.058-0.024,0.086c-0.011,0.039-0.021,0.077-0.03,0.116
	c-0.006,0.028-0.011,0.056-0.017,0.083c-0.008,0.045-0.015,0.09-0.021,0.135c-0.003,0.022-0.006,0.045-0.008,0.068
	C0.004,14.254,0,14.323,0,14.394V14.4c0.002,0.708,0.335,1.392,0.929,1.827l1.344,0.986l2.272,1.667l19.111,14.015
	c0.4,0.293,0.872,0.44,1.344,0.44c0.472,0,0.943-0.147,1.344-0.44l19.111-14.015l2.272-1.667l1.344-0.986
	c0.593-0.435,0.927-1.119,0.929-1.827v-0.006C50,14.323,49.996,14.254,49.99,14.185z"/>
<path fill="#1346B7" d="M0.929,16.227l1.344,0.986l2.272,1.667l19.111,14.014c0.4,0.294,0.872,0.441,1.344,0.441V50H2.273
	C1.018,50,0,48.982,0,47.727V14.4C0.002,15.108,0.335,15.792,0.929,16.227z"/>
<path fill="#28DDC4" d="M0.929,16.227l1.344,0.986l2.272,1.667l19.111,14.014c0.4,0.294,0.872,0.441,1.344,0.441V12.121H2.273
	c-0.071,0-0.141,0.004-0.21,0.011c-0.024,0.002-0.047,0.005-0.071,0.009c-0.045,0.005-0.09,0.012-0.135,0.02
	c-0.027,0.005-0.054,0.011-0.081,0.017c-0.042,0.009-0.082,0.02-0.123,0.031c-0.026,0.007-0.052,0.014-0.077,0.022
	c-0.061,0.02-0.121,0.041-0.179,0.066c-0.021,0.009-0.042,0.02-0.063,0.029c-0.04,0.018-0.08,0.037-0.119,0.058
	c-0.024,0.013-0.048,0.027-0.073,0.041c-0.035,0.02-0.069,0.041-0.103,0.063c-0.022,0.015-0.045,0.029-0.067,0.044
	c-0.037,0.026-0.073,0.053-0.108,0.081c-0.017,0.013-0.034,0.025-0.05,0.039c-0.051,0.043-0.1,0.087-0.147,0.134
	c-0.005,0.006-0.01,0.012-0.016,0.017c-0.042,0.042-0.081,0.086-0.119,0.131c-0.014,0.017-0.027,0.034-0.041,0.051
	c-0.028,0.035-0.055,0.071-0.081,0.108c-0.015,0.021-0.029,0.042-0.043,0.063c-0.023,0.035-0.044,0.071-0.065,0.107
	c-0.014,0.023-0.027,0.046-0.04,0.07c-0.021,0.039-0.04,0.08-0.058,0.12c-0.015,0.034-0.03,0.067-0.044,0.103
	c-0.017,0.043-0.034,0.087-0.049,0.132c-0.001,0.003-0.002,0.007-0.003,0.01c-0.009,0.029-0.017,0.058-0.024,0.086
	c-0.011,0.038-0.021,0.077-0.03,0.116c-0.006,0.027-0.011,0.055-0.017,0.083c-0.008,0.044-0.015,0.089-0.021,0.135
	c-0.002,0.023-0.006,0.045-0.008,0.068C0.004,14.254,0,14.323,0,14.394V14.4C0.002,15.108,0.335,15.792,0.929,16.227z"/>
</svg>
