<?xml version="1.0" encoding="utf-8"?>
<!-- Generator: Adobe Illustrator 16.0.0, SVG Export Plug-In . SVG Version: 6.00 Build 0)  -->
<!DOCTYPE svg PUBLIC "-//W3C//DTD SVG 1.1//EN" "http://www.w3.org/Graphics/SVG/1.1/DTD/svg11.dtd">
<svg version="1.1" id="Layer_1" xmlns="http://www.w3.org/2000/svg" xmlns:xlink="http://www.w3.org/1999/xlink" x="0px" y="0px"
	 width="50px" height="50px" viewBox="0 0 50 50" enable-background="new 0 0 50 50" xml:space="preserve">
<g>
	<path fill="#EF5C54" d="M45.566,10.59c-7.405-7.405-14.747-4.17-20.625,1.113C19.062,6.42,11.781,3.126,4.317,10.59
		c-5.82,5.816-5.848,15.163,0,20.948C24.878,50.033,24.873,50,24.873,50s0.03,0.062,20.691-18.462
		C51.415,25.753,51.386,16.406,45.566,10.59L45.566,10.59z M45.566,10.59"/>
	<path fill="#D3453D" d="M24.941,11.701l-0.015-0.01v38.264c0.331-0.278,2.755-2.385,20.638-18.419c5.85-5.783,5.82-15.13,0-20.946
		C38.159,3.185,30.819,6.42,24.941,11.701L24.941,11.701z M24.941,11.701"/>
</g>
</svg>
