<?xml version="1.0" encoding="utf-8"?>
<!-- Generator: Adobe Illustrator 16.0.0, SVG Export Plug-In . SVG Version: 6.00 Build 0)  -->
<!DOCTYPE svg PUBLIC "-//W3C//DTD SVG 1.1//EN" "http://www.w3.org/Graphics/SVG/1.1/DTD/svg11.dtd">
<svg version="1.1" id="Layer_1" xmlns="http://www.w3.org/2000/svg" xmlns:xlink="http://www.w3.org/1999/xlink" x="0px" y="0px"
	 width="50px" height="50px" viewBox="0 0 50 50" enable-background="new 0 0 50 50" xml:space="preserve">
<g>
	<path fill="#1346B7" d="M25.631,0.489v10.629c4.491,0,8.146,3.653,8.146,8.146c0,4.49-3.654,8.145-8.146,8.145V50l14.908-18.743
		c2.676-3.386,4.092-7.454,4.092-11.768C44.631,9.014,36.108,0.489,25.631,0.489L25.631,0.489z M25.631,0.489"/>
	<path fill="#D8D7DA" d="M33.776,19.264c0-4.493-3.654-8.146-8.146-8.146v16.291C30.122,27.409,33.776,23.754,33.776,19.264
		L33.776,19.264z M33.776,19.264"/>
	<path fill="#1A62E3" d="M17.486,19.264c0-4.493,3.653-8.146,8.145-8.146V0.489c-10.476,0-19,8.524-19,19
		c0,4.313,1.416,8.382,4.096,11.772L25.631,50V27.409C21.14,27.409,17.486,23.754,17.486,19.264L17.486,19.264z M17.486,19.264"/>
	<path fill="#FFFFFF" d="M17.486,19.264c0,4.49,3.653,8.145,8.145,8.145V11.119C21.14,11.119,17.486,14.771,17.486,19.264
		L17.486,19.264z M17.486,19.264"/>
</g>
</svg>
