<?xml version="1.0" encoding="utf-8"?>
<!-- Generator: Adobe Illustrator 16.0.0, SVG Export Plug-In . SVG Version: 6.00 Build 0)  -->
<!DOCTYPE svg PUBLIC "-//W3C//DTD SVG 1.1//EN" "http://www.w3.org/Graphics/SVG/1.1/DTD/svg11.dtd">
<svg version="1.1" id="Capa_1" xmlns="http://www.w3.org/2000/svg" xmlns:xlink="http://www.w3.org/1999/xlink" x="0px" y="0px"
	 width="50px" height="50px" viewBox="0 0 50 50" enable-background="new 0 0 50 50" xml:space="preserve">
<path fill="#1A64E5" d="M2.532,5.839l2.165-2.165C6.012,2.359,8.13,2.349,9.434,3.652l9.465,9.465c1.3,1.3,1.29,3.425-0.022,4.737
	l-0.913,0.913c-0.934,0.934-0.959,2.439-0.057,3.356c0.004,0.004,0.009,0.009,0.014,0.014c0.083,0.086,3.11,3.213,9.956,9.956
	c0.917,0.902,2.423,0.877,3.356-0.058l0.913-0.913c1.312-1.313,3.437-1.322,4.737-0.021l9.465,9.465
	c1.328,1.328,1.27,3.445-0.021,4.736l-2.166,2.166l0,0c-2.455,2.455-6.093,3.2-9.268,1.9c-6.484-2.656-13.657-5.102-21.409-12.854
	C4.408,27.439,0,14.596,0,11.907C0,9.683,0.878,7.493,2.532,5.839z"/>
<g>
	<path fill="#30F2D2" d="M23.001,6.698c0.572,0.572,1.5,0.572,2.071,0c5.026-5.026,13.204-5.026,18.23,0
		c5.025,5.026,5.025,13.204,0,18.229c-0.572,0.572-0.572,1.5,0,2.071c0.572,0.572,1.499,0.572,2.071,0
		c6.168-6.167,6.168-16.204,0-22.372c-6.169-6.168-16.204-6.168-22.373,0C22.429,5.198,22.43,6.125,23.001,6.698z"/>
	<path fill="#30F2D2" d="M28.822,12.519c0.572,0.572,1.5,0.572,2.072,0c1.815-1.816,4.771-1.816,6.586,0
		c1.816,1.816,1.816,4.771,0,6.587c-0.571,0.572-0.571,1.499,0,2.071c0.572,0.572,1.5,0.572,2.072,0
		c2.958-2.958,2.958-7.771,0-10.729c-2.959-2.958-7.771-2.958-10.73,0C28.251,11.02,28.251,11.947,28.822,12.519z"/>
</g>
<path fill="#1346B7" d="M34.893,49.369c-6.484-2.656-13.656-5.102-21.407-12.852l9.385-9.385c1.363,1.36,3.024,3.009,5.006,4.961
	c0.917,0.902,2.423,0.877,3.356-0.058l0.913-0.913c1.312-1.313,3.437-1.322,4.737-0.021l9.465,9.465
	c1.328,1.328,1.27,3.445-0.021,4.736l-2.166,2.166C41.705,49.924,38.068,50.67,34.893,49.369z"/>
<g>
	<path fill="#28DDC4" d="M37.48,21.177c-0.571-0.572-0.571-1.5,0-2.071c1.816-1.816,1.816-4.769,0.002-6.585l2.072-2.071
		c2.956,2.958,2.955,7.771-0.002,10.728C38.98,21.749,38.053,21.749,37.48,21.177z"/>
	<path fill="#28DDC4" d="M43.303,26.998c-0.572-0.571-0.572-1.499,0-2.071c5.025-5.025,5.025-13.202,0.002-18.228l2.07-2.071
		c6.167,6.168,6.166,16.203-0.001,22.37C44.802,27.57,43.875,27.57,43.303,26.998z"/>
</g>
</svg>
