<?xml version="1.0" encoding="utf-8"?>
<!-- Generator: Adobe Illustrator 16.0.0, SVG Export Plug-In . SVG Version: 6.00 Build 0)  -->
<!DOCTYPE svg PUBLIC "-//W3C//DTD SVG 1.1//EN" "http://www.w3.org/Graphics/SVG/1.1/DTD/svg11.dtd">
<svg version="1.1" id="Layer_1" xmlns="http://www.w3.org/2000/svg" xmlns:xlink="http://www.w3.org/1999/xlink" x="0px" y="0px"
	 width="50px" height="60px" viewBox="0 0 50 60" enable-background="new 0 0 50 60" xml:space="preserve">
<path fill="#2FD6C0" d="M26.354,33.223v10.102c0,0.779-0.608,1.416-1.375,1.461c-0.029,0.002-0.06,0.004-0.09,0.004
	c-0.81,0-1.465-0.656-1.465-1.465V33.223c0-0.811,0.655-1.465,1.465-1.465c0.03,0,0.061,0,0.09,0.002
	C25.746,31.807,26.354,32.443,26.354,33.223z"/>
<path fill="#1CC3AC" d="M26.354,33.223v10.102c0,0.779-0.608,1.416-1.375,1.461V31.76C25.746,31.807,26.354,32.443,26.354,33.223z"
	/>
<path fill="#2FD6C0" d="M38.971,46.039c0,2.185-1.775,3.961-3.959,3.961H14.816c-2.183,0-3.959-1.776-3.959-3.961
	c0-2.182,1.776-3.959,3.959-3.959h20.195C37.195,42.08,38.971,43.857,38.971,46.039z"/>
<path fill="#1CC3AC" d="M38.971,46.039c0,2.185-1.775,3.961-3.959,3.961H24.979v-7.92h10.032
	C37.195,42.08,38.971,43.857,38.971,46.039z"/>
<path fill="#2FD6C0" d="M5.359,42.08c-2.184,0-3.96,1.776-3.96,3.96S3.176,50,5.359,50c2.183,0,3.959-1.776,3.959-3.96
	S7.542,42.08,5.359,42.08z"/>
<path fill="#1CC3AC" d="M44.482,42.08c-2.184,0-3.96,1.776-3.96,3.96S42.299,50,44.482,50s3.96-1.776,3.96-3.96
	S46.666,42.08,44.482,42.08z"/>
<path fill="#2FD6C0" d="M11.771,6.896c-0.809,0-1.465,0.656-1.465,1.465v5.508c0,0.809,0.656,1.465,1.465,1.465
	s1.465-0.656,1.465-1.465V8.361C13.237,7.552,12.581,6.896,11.771,6.896z"/>
<path fill="#2FD6C0" d="M37.773,6.896c-0.81,0-1.466,0.656-1.466,1.465v5.508c0,0.809,0.656,1.465,1.466,1.465
	s1.465-0.656,1.465-1.465V8.361C39.238,7.552,38.583,6.896,37.773,6.896z"/>
<path fill="#2FD6C0" d="M11.771,19.348c-0.809,0-1.465,0.656-1.465,1.465v5.507c0,0.809,0.656,1.465,1.465,1.465
	s1.465-0.656,1.465-1.465v-5.507C13.237,20.004,12.581,19.348,11.771,19.348z"/>
<path fill="#2FD6C0" d="M37.773,19.348c-0.81,0-1.466,0.656-1.466,1.465v5.507c0,0.809,0.656,1.465,1.466,1.465
	s1.465-0.656,1.465-1.465v-5.507C39.238,20.004,38.583,19.348,37.773,19.348z"/>
<path fill="#4AB8EB" d="M49.959,4.914c0,2.708-2.203,4.913-4.913,4.913H4.914C2.204,9.826,0,7.622,0,4.914C0,2.204,2.204,0,4.914,0
	h40.132C47.756,0,49.959,2.204,49.959,4.914z"/>
<path fill="#00ABE9" d="M49.959,17.317c0,2.708-2.203,4.913-4.913,4.913H4.914C2.204,22.229,0,20.025,0,17.317
	c0-2.709,2.204-4.914,4.914-4.914h40.132C47.756,12.403,49.959,14.607,49.959,17.317z"/>
<path fill="#00ABE9" d="M49.959,29.805c0,2.709-2.203,4.914-4.913,4.914H4.914C2.204,34.719,0,32.514,0,29.805
	s2.204-4.912,4.914-4.912h40.132C47.756,24.893,49.959,27.096,49.959,29.805z"/>
<path fill="#009AE3" d="M49.959,4.914c0,2.708-2.203,4.913-4.913,4.913H24.979V0h20.066C47.756,0,49.959,2.204,49.959,4.914z"/>
<path fill="#009AE3" d="M49.959,17.317c0,2.708-2.203,4.913-4.913,4.913H24.979v-9.826h20.066
	C47.756,12.403,49.959,14.607,49.959,17.317z"/>
<path fill="#009AE3" d="M49.959,29.805c0,2.709-2.203,4.914-4.913,4.914H24.979v-9.826h20.066
	C47.756,24.893,49.959,27.096,49.959,29.805z"/>
<path fill="#094BDE" d="M6.46,29.52c-0.01-0.047-0.021-0.094-0.035-0.139c-0.015-0.047-0.03-0.092-0.049-0.135
	c-0.019-0.045-0.039-0.088-0.062-0.131c-0.022-0.041-0.047-0.084-0.073-0.123s-0.055-0.078-0.085-0.115
	C6.125,28.84,6.093,28.803,6.06,28.77c-0.034-0.033-0.07-0.066-0.107-0.098c-0.037-0.029-0.076-0.059-0.115-0.084
	c-0.04-0.027-0.081-0.051-0.124-0.074c-0.042-0.021-0.085-0.043-0.129-0.061c-0.044-0.02-0.09-0.035-0.135-0.049
	c-0.046-0.014-0.093-0.025-0.14-0.035s-0.095-0.018-0.142-0.021c-0.096-0.01-0.193-0.01-0.288,0
	c-0.048,0.004-0.096,0.012-0.143,0.021s-0.094,0.021-0.14,0.035c-0.045,0.014-0.091,0.029-0.135,0.049
	c-0.044,0.018-0.087,0.039-0.129,0.061c-0.043,0.023-0.084,0.047-0.124,0.074c-0.039,0.025-0.078,0.055-0.115,0.084
	c-0.037,0.031-0.073,0.064-0.107,0.098c-0.033,0.033-0.066,0.07-0.097,0.107s-0.059,0.076-0.085,0.115s-0.051,0.082-0.073,0.123
	c-0.022,0.043-0.043,0.086-0.062,0.131c-0.019,0.043-0.034,0.088-0.049,0.135c-0.014,0.045-0.025,0.092-0.035,0.139
	c-0.009,0.047-0.017,0.094-0.021,0.143c-0.005,0.047-0.007,0.096-0.007,0.143c0,0.049,0.002,0.098,0.007,0.145
	s0.013,0.096,0.021,0.143c0.01,0.047,0.021,0.094,0.035,0.139c0.015,0.045,0.03,0.092,0.049,0.135
	c0.019,0.045,0.039,0.088,0.062,0.131c0.022,0.041,0.047,0.082,0.073,0.123c0.026,0.039,0.055,0.078,0.085,0.115
	s0.063,0.072,0.097,0.107c0.034,0.033,0.07,0.066,0.107,0.096c0.037,0.031,0.076,0.059,0.115,0.086
	c0.04,0.025,0.081,0.051,0.124,0.074c0.042,0.021,0.085,0.043,0.129,0.061s0.09,0.035,0.135,0.049
	c0.046,0.014,0.093,0.025,0.14,0.035s0.095,0.016,0.143,0.021c0.047,0.004,0.096,0.006,0.144,0.006s0.097-0.002,0.145-0.006
	c0.047-0.006,0.095-0.012,0.142-0.021s0.094-0.021,0.14-0.035c0.045-0.014,0.091-0.031,0.135-0.049s0.087-0.039,0.129-0.061
	c0.043-0.023,0.084-0.049,0.124-0.074c0.039-0.027,0.078-0.055,0.115-0.086c0.037-0.029,0.073-0.063,0.107-0.096
	c0.033-0.035,0.065-0.07,0.097-0.107c0.03-0.037,0.059-0.076,0.085-0.115c0.026-0.041,0.051-0.082,0.073-0.123
	c0.022-0.043,0.043-0.086,0.062-0.131c0.019-0.043,0.034-0.09,0.049-0.135c0.014-0.045,0.025-0.092,0.035-0.139
	c0.009-0.047,0.017-0.096,0.021-0.143c0.004-0.047,0.007-0.096,0.007-0.145c0-0.047-0.003-0.096-0.007-0.143
	C6.477,29.613,6.469,29.566,6.46,29.52z"/>
<path fill="#094BDE" d="M46.405,29.52c-0.01-0.047-0.021-0.094-0.035-0.139c-0.016-0.047-0.031-0.092-0.049-0.137
	c-0.02-0.043-0.039-0.086-0.063-0.129c-0.021-0.041-0.047-0.084-0.072-0.123c-0.027-0.039-0.055-0.078-0.086-0.115
	c-0.029-0.037-0.063-0.074-0.096-0.107c-0.035-0.033-0.07-0.066-0.107-0.098c-0.037-0.029-0.076-0.059-0.115-0.084
	c-0.041-0.027-0.082-0.051-0.125-0.074c-0.041-0.021-0.084-0.043-0.129-0.061c-0.043-0.02-0.09-0.035-0.135-0.049
	s-0.092-0.025-0.139-0.035s-0.096-0.018-0.143-0.021c-0.096-0.01-0.193-0.01-0.289,0c-0.047,0.004-0.094,0.012-0.141,0.021
	s-0.094,0.021-0.141,0.035c-0.045,0.014-0.09,0.029-0.135,0.049c-0.043,0.018-0.086,0.039-0.129,0.061
	c-0.043,0.023-0.084,0.047-0.123,0.074c-0.039,0.025-0.078,0.055-0.115,0.084c-0.037,0.031-0.074,0.064-0.107,0.098
	s-0.066,0.07-0.098,0.107c-0.029,0.037-0.059,0.076-0.084,0.115c-0.027,0.039-0.051,0.082-0.074,0.123
	c-0.021,0.043-0.043,0.086-0.061,0.129c-0.02,0.045-0.035,0.09-0.049,0.137c-0.014,0.045-0.025,0.092-0.035,0.139
	s-0.018,0.094-0.021,0.143c-0.006,0.047-0.008,0.096-0.008,0.143c0,0.049,0.002,0.098,0.008,0.145
	c0.004,0.047,0.012,0.096,0.021,0.143s0.021,0.094,0.035,0.139s0.029,0.092,0.049,0.135c0.018,0.045,0.039,0.088,0.061,0.131
	c0.023,0.041,0.047,0.082,0.074,0.123c0.025,0.039,0.055,0.078,0.084,0.115c0.031,0.037,0.064,0.072,0.098,0.107
	c0.033,0.033,0.07,0.066,0.107,0.096c0.037,0.031,0.076,0.059,0.115,0.086c0.039,0.025,0.08,0.051,0.123,0.074
	c0.043,0.021,0.086,0.043,0.129,0.061c0.045,0.018,0.09,0.035,0.135,0.049c0.047,0.014,0.094,0.025,0.141,0.035
	s0.094,0.016,0.141,0.021c0.049,0.004,0.098,0.006,0.145,0.006c0.049,0,0.098-0.002,0.145-0.006
	c0.047-0.006,0.096-0.012,0.143-0.021s0.094-0.021,0.139-0.035s0.092-0.031,0.135-0.049c0.045-0.018,0.088-0.039,0.129-0.061
	c0.043-0.023,0.084-0.049,0.125-0.074c0.039-0.027,0.078-0.055,0.115-0.086c0.037-0.029,0.072-0.063,0.107-0.096
	c0.033-0.035,0.066-0.07,0.096-0.107c0.031-0.037,0.059-0.076,0.086-0.115c0.025-0.041,0.051-0.082,0.072-0.123
	c0.023-0.043,0.043-0.086,0.063-0.131c0.018-0.043,0.033-0.09,0.049-0.135c0.014-0.045,0.025-0.092,0.035-0.139
	c0.008-0.047,0.016-0.096,0.021-0.143c0.004-0.047,0.006-0.096,0.006-0.145c0-0.047-0.002-0.096-0.006-0.143
	C46.421,29.613,46.413,29.566,46.405,29.52z"/>
<path fill="#094BDE" d="M6.46,17.018c-0.01-0.047-0.021-0.094-0.035-0.139c-0.015-0.046-0.03-0.091-0.049-0.135
	c-0.019-0.045-0.039-0.088-0.062-0.13s-0.047-0.084-0.073-0.123c-0.026-0.04-0.055-0.079-0.085-0.116
	c-0.031-0.037-0.063-0.073-0.097-0.106c-0.034-0.034-0.07-0.066-0.107-0.098c-0.037-0.029-0.076-0.059-0.115-0.085
	c-0.04-0.026-0.081-0.051-0.124-0.073c-0.042-0.022-0.085-0.043-0.129-0.062s-0.09-0.034-0.135-0.048
	c-0.046-0.015-0.093-0.026-0.14-0.035c-0.047-0.01-0.095-0.018-0.142-0.021c-0.096-0.01-0.193-0.01-0.288,0
	c-0.048,0.004-0.096,0.012-0.143,0.021c-0.047,0.009-0.094,0.021-0.14,0.035c-0.045,0.014-0.091,0.029-0.135,0.048
	s-0.087,0.039-0.129,0.062C4.292,16.036,4.25,16.06,4.21,16.086c-0.039,0.026-0.078,0.056-0.115,0.085
	c-0.037,0.031-0.073,0.063-0.107,0.098c-0.033,0.033-0.066,0.069-0.097,0.106s-0.059,0.076-0.085,0.116
	c-0.026,0.039-0.051,0.081-0.073,0.123S3.69,16.7,3.671,16.745c-0.019,0.044-0.034,0.089-0.049,0.135
	c-0.014,0.045-0.025,0.092-0.035,0.139c-0.009,0.047-0.017,0.095-0.021,0.143s-0.007,0.096-0.007,0.144s0.002,0.097,0.007,0.145
	c0.005,0.047,0.013,0.095,0.021,0.142c0.01,0.047,0.021,0.094,0.035,0.14c0.015,0.045,0.03,0.091,0.049,0.135
	s0.039,0.088,0.062,0.13s0.047,0.083,0.073,0.123s0.055,0.078,0.085,0.115s0.063,0.073,0.097,0.107
	c0.034,0.033,0.07,0.066,0.107,0.097s0.076,0.059,0.115,0.085c0.04,0.026,0.081,0.052,0.124,0.074
	c0.042,0.021,0.085,0.043,0.129,0.061c0.044,0.019,0.09,0.035,0.135,0.049c0.046,0.014,0.093,0.025,0.14,0.035
	s0.095,0.017,0.143,0.021c0.047,0.005,0.096,0.007,0.144,0.007s0.097-0.002,0.145-0.007c0.047-0.005,0.095-0.012,0.142-0.021
	s0.094-0.021,0.14-0.035c0.045-0.014,0.091-0.03,0.135-0.049c0.044-0.018,0.087-0.039,0.129-0.061
	c0.043-0.022,0.084-0.048,0.124-0.074c0.039-0.026,0.078-0.055,0.115-0.085s0.073-0.063,0.107-0.097
	c0.033-0.034,0.065-0.07,0.097-0.107c0.03-0.037,0.059-0.075,0.085-0.115s0.051-0.081,0.073-0.123s0.043-0.086,0.062-0.13
	s0.034-0.09,0.049-0.135c0.014-0.046,0.025-0.093,0.035-0.14c0.009-0.047,0.017-0.095,0.021-0.142
	c0.004-0.048,0.007-0.097,0.007-0.145s-0.003-0.096-0.007-0.144C6.477,17.113,6.469,17.065,6.46,17.018z"/>
<path fill="#094BDE" d="M46.405,17.018c-0.01-0.047-0.021-0.094-0.035-0.139c-0.016-0.046-0.031-0.091-0.049-0.135
	c-0.02-0.045-0.039-0.088-0.063-0.13c-0.021-0.042-0.047-0.084-0.072-0.123c-0.027-0.04-0.055-0.079-0.086-0.116
	c-0.029-0.037-0.063-0.073-0.096-0.106c-0.035-0.034-0.07-0.066-0.107-0.097s-0.076-0.06-0.115-0.086
	c-0.041-0.026-0.082-0.051-0.125-0.073c-0.041-0.022-0.084-0.043-0.129-0.062c-0.043-0.018-0.09-0.034-0.135-0.048
	c-0.045-0.015-0.092-0.026-0.139-0.035c-0.047-0.01-0.096-0.017-0.143-0.021c-0.096-0.01-0.193-0.01-0.289,0
	c-0.047,0.005-0.094,0.012-0.141,0.021c-0.047,0.009-0.094,0.021-0.141,0.035c-0.045,0.014-0.09,0.03-0.135,0.048
	c-0.043,0.019-0.086,0.039-0.129,0.062s-0.084,0.047-0.123,0.073s-0.078,0.056-0.115,0.086s-0.074,0.063-0.107,0.097
	c-0.033,0.033-0.066,0.069-0.098,0.106c-0.029,0.037-0.059,0.076-0.084,0.116c-0.027,0.039-0.051,0.081-0.074,0.123
	c-0.021,0.042-0.043,0.085-0.061,0.13c-0.02,0.044-0.035,0.089-0.049,0.135c-0.014,0.045-0.025,0.092-0.035,0.139
	s-0.018,0.095-0.021,0.143c-0.006,0.048-0.008,0.096-0.008,0.144s0.002,0.097,0.008,0.145c0.004,0.047,0.012,0.095,0.021,0.142
	s0.021,0.094,0.035,0.14c0.014,0.045,0.029,0.091,0.049,0.135c0.018,0.044,0.039,0.088,0.061,0.13
	c0.023,0.042,0.047,0.083,0.074,0.123c0.025,0.04,0.055,0.078,0.084,0.115c0.031,0.037,0.064,0.073,0.098,0.107
	c0.033,0.033,0.07,0.066,0.107,0.097s0.076,0.059,0.115,0.085s0.08,0.052,0.123,0.074s0.086,0.043,0.129,0.061
	c0.045,0.019,0.09,0.035,0.135,0.049c0.047,0.014,0.094,0.025,0.141,0.035s0.094,0.017,0.141,0.021
	c0.049,0.005,0.098,0.007,0.145,0.007c0.049,0,0.098-0.002,0.145-0.007s0.096-0.012,0.143-0.021s0.094-0.021,0.139-0.035
	s0.092-0.03,0.135-0.049c0.045-0.018,0.088-0.038,0.129-0.061c0.043-0.022,0.084-0.048,0.125-0.074
	c0.039-0.026,0.078-0.055,0.115-0.085s0.072-0.063,0.107-0.097c0.033-0.034,0.066-0.07,0.096-0.107
	c0.031-0.036,0.059-0.075,0.086-0.115c0.025-0.04,0.051-0.081,0.072-0.123c0.023-0.042,0.043-0.086,0.063-0.13
	c0.018-0.044,0.033-0.09,0.049-0.135c0.014-0.046,0.025-0.093,0.035-0.14c0.008-0.047,0.016-0.095,0.021-0.142
	c0.004-0.048,0.006-0.097,0.006-0.145s-0.002-0.096-0.006-0.144C46.421,17.113,46.413,17.065,46.405,17.018z"/>
<path fill="#094BDE" d="M6.46,4.615c-0.01-0.047-0.021-0.094-0.035-0.139C6.411,4.43,6.395,4.385,6.376,4.34
	C6.358,4.296,6.337,4.253,6.315,4.211S6.268,4.127,6.242,4.088c-0.026-0.04-0.055-0.079-0.085-0.116
	C6.125,3.935,6.093,3.899,6.06,3.865C6.026,3.832,5.99,3.799,5.953,3.768C5.916,3.739,5.876,3.709,5.837,3.683
	C5.797,3.657,5.756,3.632,5.713,3.61C5.671,3.587,5.628,3.567,5.584,3.548S5.495,3.514,5.45,3.5C5.404,3.486,5.357,3.474,5.31,3.465
	c-0.047-0.01-0.095-0.017-0.142-0.021c-0.096-0.01-0.193-0.01-0.288,0C4.833,3.449,4.785,3.456,4.738,3.465
	C4.691,3.474,4.644,3.486,4.598,3.5C4.553,3.514,4.507,3.53,4.463,3.548S4.376,3.587,4.334,3.61C4.292,3.632,4.25,3.657,4.21,3.683
	C4.171,3.709,4.132,3.739,4.095,3.768C4.058,3.799,4.022,3.832,3.988,3.865c-0.033,0.034-0.066,0.07-0.097,0.107
	S3.833,4.048,3.806,4.088C3.78,4.127,3.755,4.169,3.733,4.211S3.69,4.296,3.671,4.34C3.653,4.385,3.637,4.43,3.623,4.476
	C3.609,4.521,3.597,4.568,3.587,4.615C3.579,4.662,3.571,4.709,3.566,4.757S3.559,4.853,3.559,4.901s0.002,0.097,0.007,0.145
	C3.571,5.092,3.579,5.14,3.587,5.187c0.01,0.047,0.021,0.094,0.035,0.14c0.015,0.045,0.03,0.091,0.049,0.135s0.039,0.088,0.062,0.13
	S3.78,5.674,3.806,5.714S3.861,5.793,3.891,5.83c0.03,0.037,0.063,0.073,0.097,0.107c0.034,0.034,0.07,0.066,0.107,0.097
	S4.171,6.092,4.21,6.119C4.25,6.145,4.292,6.17,4.334,6.193c0.042,0.022,0.085,0.043,0.129,0.061
	c0.044,0.019,0.09,0.035,0.135,0.049c0.046,0.014,0.093,0.025,0.14,0.035S4.833,6.354,4.88,6.359
	c0.047,0.005,0.096,0.007,0.144,0.007s0.097-0.002,0.145-0.007C5.215,6.354,5.263,6.347,5.31,6.337s0.094-0.021,0.14-0.035
	c0.045-0.014,0.091-0.03,0.135-0.049c0.044-0.018,0.087-0.038,0.129-0.061C5.756,6.17,5.797,6.145,5.837,6.119
	c0.039-0.026,0.078-0.055,0.115-0.085S6.026,5.971,6.06,5.937c0.033-0.034,0.065-0.07,0.097-0.107
	c0.03-0.036,0.059-0.075,0.085-0.115s0.051-0.081,0.073-0.123s0.043-0.086,0.062-0.13s0.034-0.09,0.049-0.135
	c0.014-0.046,0.025-0.093,0.035-0.14C6.469,5.14,6.477,5.092,6.482,5.045c0.004-0.048,0.007-0.097,0.007-0.145
	S6.486,4.805,6.482,4.757C6.477,4.709,6.469,4.662,6.46,4.615z"/>
<path fill="#094BDE" d="M43.532,5.187c0.01,0.047,0.021,0.094,0.035,0.14c0.014,0.045,0.029,0.091,0.049,0.135
	c0.018,0.044,0.039,0.088,0.061,0.13c0.023,0.042,0.047,0.083,0.074,0.123c0.025,0.04,0.055,0.079,0.084,0.115
	c0.031,0.037,0.064,0.073,0.098,0.107c0.033,0.033,0.07,0.066,0.107,0.097s0.076,0.059,0.115,0.085s0.08,0.052,0.123,0.074
	s0.086,0.043,0.129,0.061c0.045,0.019,0.09,0.035,0.135,0.049c0.047,0.014,0.094,0.025,0.141,0.035s0.094,0.017,0.141,0.021
	c0.049,0.005,0.098,0.007,0.145,0.007c0.049,0,0.098-0.002,0.145-0.007s0.096-0.012,0.143-0.021s0.094-0.021,0.139-0.035
	s0.092-0.03,0.135-0.049c0.045-0.018,0.088-0.038,0.129-0.061c0.043-0.022,0.084-0.048,0.125-0.074
	c0.039-0.026,0.078-0.055,0.115-0.085s0.072-0.063,0.107-0.097c0.033-0.034,0.066-0.07,0.096-0.107
	c0.031-0.036,0.059-0.075,0.086-0.115c0.025-0.04,0.051-0.081,0.072-0.123c0.023-0.042,0.043-0.086,0.063-0.13
	c0.018-0.044,0.033-0.09,0.049-0.135c0.014-0.046,0.025-0.093,0.035-0.14c0.008-0.047,0.016-0.095,0.021-0.142
	c0.004-0.048,0.006-0.097,0.006-0.145s-0.002-0.096-0.006-0.144c-0.006-0.048-0.014-0.096-0.021-0.143
	c-0.01-0.047-0.021-0.094-0.035-0.139c-0.016-0.046-0.031-0.091-0.049-0.136c-0.02-0.044-0.039-0.087-0.063-0.129
	c-0.021-0.042-0.047-0.084-0.072-0.123c-0.027-0.04-0.055-0.079-0.086-0.116c-0.029-0.037-0.063-0.073-0.096-0.106
	c-0.035-0.034-0.07-0.066-0.107-0.098c-0.037-0.029-0.076-0.059-0.115-0.085C45.741,3.657,45.7,3.632,45.657,3.61
	c-0.041-0.022-0.084-0.043-0.129-0.062c-0.043-0.019-0.09-0.034-0.135-0.048c-0.045-0.015-0.092-0.026-0.139-0.035
	c-0.047-0.01-0.096-0.018-0.143-0.021c-0.096-0.01-0.193-0.01-0.289,0c-0.047,0.004-0.094,0.012-0.141,0.021
	c-0.047,0.009-0.094,0.021-0.141,0.035c-0.045,0.014-0.09,0.029-0.135,0.048c-0.043,0.019-0.086,0.039-0.129,0.062
	s-0.084,0.047-0.123,0.073s-0.078,0.056-0.115,0.085c-0.037,0.031-0.074,0.063-0.107,0.098c-0.033,0.033-0.066,0.069-0.098,0.106
	c-0.029,0.037-0.059,0.076-0.084,0.116c-0.027,0.039-0.051,0.081-0.074,0.123c-0.021,0.042-0.043,0.085-0.061,0.129
	c-0.02,0.045-0.035,0.09-0.049,0.136c-0.014,0.045-0.025,0.092-0.035,0.139s-0.018,0.095-0.021,0.143
	c-0.006,0.048-0.008,0.096-0.008,0.144s0.002,0.097,0.008,0.145C43.515,5.092,43.522,5.14,43.532,5.187z"/>
</svg>
