<?xml version="1.0" encoding="utf-8"?>
<!-- Generator: Adobe Illustrator 16.0.0, SVG Export Plug-In . SVG Version: 6.00 Build 0)  -->
<!DOCTYPE svg PUBLIC "-//W3C//DTD SVG 1.1//EN" "http://www.w3.org/Graphics/SVG/1.1/DTD/svg11.dtd">
<svg version="1.1" id="Layer_1" xmlns="http://www.w3.org/2000/svg" xmlns:xlink="http://www.w3.org/1999/xlink" x="0px" y="0px"
	 width="50px" height="60px" viewBox="0 0 50 60" enable-background="new 0 0 50 60" xml:space="preserve">
<path fill="#2FD6C0" d="M12.937,6.618c-0.761,0-1.378,0.617-1.378,1.377v5.179c0,0.761,0.617,1.377,1.378,1.377
	c0.76,0,1.377-0.617,1.377-1.377V7.996C14.315,7.234,13.697,6.618,12.937,6.618z"/>
<path fill="#2FD6C0" d="M37.388,6.618c-0.76,0-1.378,0.617-1.378,1.377v5.179c0,0.761,0.618,1.377,1.378,1.377
	c0.762,0,1.378-0.617,1.378-1.377V7.996C38.766,7.234,38.149,6.618,37.388,6.618z"/>
<path fill="#7BC7EF" d="M48.847,4.753c0,2.547-2.071,4.62-4.619,4.62H6.488c-2.548,0-4.621-2.073-4.621-4.62
	c0-2.548,2.073-4.62,4.621-4.62h37.74C46.775,0.133,48.847,2.206,48.847,4.753z"/>
<path fill="#4AB8EB" d="M48.847,4.753c0,2.547-2.071,4.62-4.619,4.62H25.356v-9.24h18.871C46.775,0.133,48.847,2.206,48.847,4.753z"
	/>
<path fill="#094BDE" d="M7.942,4.473c-0.009-0.044-0.02-0.088-0.033-0.13C7.896,4.299,7.88,4.257,7.863,4.215
	C7.846,4.173,7.827,4.133,7.806,4.094c-0.021-0.04-0.044-0.079-0.069-0.116C7.712,3.94,7.685,3.903,7.657,3.869
	C7.627,3.833,7.597,3.8,7.566,3.767C7.533,3.736,7.5,3.706,7.464,3.676C7.43,3.649,7.393,3.622,7.356,3.597
	C7.318,3.572,7.28,3.549,7.24,3.528C7.2,3.507,7.16,3.487,7.119,3.47C7.077,3.453,7.034,3.438,6.992,3.425
	C6.949,3.412,6.904,3.4,6.86,3.392C6.816,3.383,6.771,3.376,6.728,3.372c-0.09-0.009-0.182-0.009-0.271,0
	c-0.045,0.004-0.09,0.011-0.134,0.021C6.278,3.4,6.234,3.412,6.191,3.425C6.148,3.438,6.105,3.453,6.064,3.47
	C6.023,3.487,5.982,3.507,5.943,3.528c-0.04,0.021-0.079,0.044-0.117,0.069C5.79,3.622,5.753,3.649,5.718,3.676
	c-0.035,0.03-0.069,0.06-0.101,0.091C5.585,3.8,5.555,3.833,5.526,3.869C5.498,3.903,5.471,3.94,5.446,3.978
	C5.421,4.015,5.398,4.054,5.377,4.094c-0.021,0.039-0.04,0.08-0.057,0.121C5.302,4.257,5.287,4.299,5.274,4.342
	C5.261,4.384,5.25,4.429,5.24,4.473c-0.008,0.044-0.015,0.09-0.02,0.135c-0.004,0.045-0.006,0.09-0.006,0.135
	S5.216,4.833,5.22,4.878c0.005,0.044,0.012,0.089,0.02,0.133c0.01,0.044,0.021,0.088,0.034,0.131
	C5.287,5.185,5.302,5.228,5.32,5.269c0.017,0.042,0.036,0.083,0.057,0.122c0.021,0.04,0.044,0.078,0.069,0.116
	c0.025,0.038,0.052,0.074,0.081,0.109c0.028,0.034,0.059,0.069,0.091,0.1c0.032,0.033,0.066,0.063,0.101,0.091
	C5.753,5.835,5.79,5.862,5.826,5.887c0.038,0.025,0.077,0.049,0.117,0.07c0.04,0.021,0.08,0.04,0.122,0.057
	C6.105,6.031,6.148,6.047,6.191,6.06c0.043,0.013,0.087,0.024,0.131,0.033s0.089,0.016,0.134,0.02C6.5,6.118,6.546,6.12,6.591,6.12
	s0.091-0.002,0.136-0.007c0.044-0.004,0.089-0.011,0.133-0.02s0.088-0.02,0.131-0.033c0.042-0.013,0.085-0.028,0.127-0.046
	C7.16,5.997,7.2,5.978,7.24,5.957c0.041-0.021,0.079-0.045,0.117-0.07C7.393,5.862,7.43,5.835,7.464,5.807
	C7.5,5.779,7.533,5.749,7.566,5.716c0.031-0.031,0.061-0.066,0.091-0.1c0.028-0.035,0.055-0.071,0.08-0.109
	c0.025-0.038,0.048-0.076,0.069-0.116c0.021-0.04,0.04-0.081,0.058-0.122C7.88,5.228,7.896,5.185,7.909,5.142
	c0.013-0.043,0.024-0.087,0.033-0.131c0.008-0.044,0.016-0.089,0.02-0.133c0.004-0.045,0.006-0.091,0.006-0.136
	s-0.002-0.09-0.006-0.135C7.958,4.563,7.95,4.517,7.942,4.473z"/>
<path fill="#094BDE" d="M42.804,5.011c0.01,0.044,0.02,0.088,0.032,0.131c0.014,0.042,0.029,0.086,0.046,0.127
	c0.018,0.042,0.037,0.083,0.058,0.122c0.022,0.04,0.044,0.078,0.069,0.116c0.024,0.038,0.052,0.074,0.08,0.109
	c0.028,0.034,0.061,0.069,0.092,0.1c0.03,0.032,0.064,0.063,0.102,0.091c0.034,0.029,0.07,0.056,0.106,0.081
	c0.038,0.025,0.076,0.049,0.117,0.07c0.04,0.021,0.08,0.04,0.12,0.057c0.042,0.018,0.085,0.033,0.127,0.046
	c0.044,0.013,0.089,0.024,0.133,0.033s0.088,0.016,0.132,0.02c0.046,0.005,0.092,0.007,0.136,0.007c0.046,0,0.092-0.002,0.137-0.007
	c0.044-0.004,0.09-0.011,0.134-0.02s0.088-0.02,0.131-0.033c0.042-0.013,0.086-0.028,0.126-0.046
	c0.042-0.017,0.082-0.036,0.121-0.057c0.04-0.021,0.08-0.045,0.118-0.07c0.036-0.025,0.072-0.052,0.107-0.081
	c0.036-0.028,0.068-0.059,0.101-0.091c0.033-0.031,0.063-0.066,0.091-0.1c0.03-0.035,0.055-0.071,0.082-0.109
	c0.022-0.038,0.047-0.076,0.066-0.116c0.023-0.04,0.04-0.081,0.06-0.122c0.017-0.041,0.03-0.084,0.046-0.127
	c0.013-0.043,0.022-0.087,0.032-0.131c0.008-0.044,0.016-0.089,0.021-0.133c0.004-0.045,0.005-0.091,0.005-0.136
	s-0.001-0.09-0.005-0.135c-0.006-0.045-0.014-0.091-0.021-0.135c-0.01-0.044-0.02-0.088-0.032-0.13
	c-0.016-0.043-0.029-0.085-0.046-0.127c-0.02-0.042-0.036-0.082-0.06-0.121c-0.02-0.04-0.044-0.079-0.066-0.116
	c-0.027-0.038-0.052-0.075-0.082-0.109c-0.027-0.035-0.058-0.069-0.091-0.101c-0.032-0.032-0.064-0.062-0.101-0.092
	c-0.035-0.027-0.071-0.055-0.107-0.079c-0.038-0.025-0.078-0.048-0.118-0.069c-0.039-0.021-0.079-0.041-0.121-0.059
	c-0.04-0.017-0.084-0.032-0.126-0.045c-0.043-0.013-0.087-0.025-0.131-0.033c-0.044-0.009-0.09-0.017-0.134-0.021
	c-0.091-0.009-0.183-0.009-0.272,0c-0.044,0.003-0.088,0.011-0.132,0.021c-0.044,0.008-0.089,0.02-0.133,0.033
	c-0.042,0.013-0.085,0.028-0.127,0.045c-0.04,0.018-0.08,0.037-0.12,0.059c-0.041,0.021-0.079,0.044-0.117,0.069
	c-0.036,0.024-0.072,0.052-0.106,0.079c-0.037,0.03-0.071,0.06-0.102,0.092c-0.031,0.032-0.063,0.065-0.092,0.101
	c-0.028,0.035-0.056,0.072-0.08,0.109c-0.025,0.037-0.047,0.076-0.069,0.116c-0.021,0.039-0.04,0.08-0.058,0.121
	c-0.017,0.042-0.032,0.084-0.046,0.127c-0.013,0.042-0.022,0.086-0.032,0.13s-0.018,0.09-0.021,0.135
	c-0.006,0.045-0.007,0.09-0.007,0.135s0.001,0.091,0.007,0.136C42.786,4.922,42.794,4.967,42.804,5.011z"/>
<path fill="#2FD6C0" d="M26.67,43.601V53.1c0,0.732-0.573,1.332-1.293,1.374c-0.027,0.002-0.057,0.004-0.086,0.004
	c-0.761,0-1.377-0.618-1.377-1.378v-9.499c0-0.763,0.616-1.378,1.377-1.378c0.029,0,0.059,0,0.086,0.002
	C26.097,42.269,26.67,42.867,26.67,43.601z"/>
<path fill="#1CC3AC" d="M26.67,43.601V53.1c0,0.732-0.573,1.332-1.293,1.374V42.225C26.097,42.269,26.67,42.867,26.67,43.601z"/>
<path fill="#2FD6C0" d="M38.533,55.651c0,2.055-1.669,3.726-3.724,3.726h-18.99c-2.053,0-3.723-1.671-3.723-3.726
	c0-2.051,1.67-3.723,3.723-3.723h18.99C36.864,51.929,38.533,53.601,38.533,55.651z"/>
<path fill="#1CC3AC" d="M38.533,55.651c0,2.055-1.669,3.726-3.724,3.726h-9.433v-7.448h9.433
	C36.864,51.929,38.533,53.601,38.533,55.651z"/>
<path fill="#2FD6C0" d="M6.926,51.929c-2.054,0-3.724,1.671-3.724,3.724c0,2.054,1.67,3.725,3.724,3.725
	c2.052,0,3.723-1.671,3.723-3.725C10.649,53.6,8.979,51.929,6.926,51.929z"/>
<path fill="#1CC3AC" d="M43.716,51.929c-2.053,0-3.724,1.671-3.724,3.724c0,2.054,1.671,3.725,3.724,3.725
	c2.054,0,3.725-1.671,3.725-3.725C47.44,53.6,45.77,51.929,43.716,51.929z"/>
<path fill="#2FD6C0" d="M12.956,18.843c-0.761,0-1.377,0.617-1.377,1.377v5.18c0,0.761,0.616,1.377,1.377,1.377
	c0.761,0,1.377-0.617,1.377-1.377v-5.18C14.334,19.459,13.717,18.843,12.956,18.843z"/>
<path fill="#2FD6C0" d="M37.408,18.843c-0.763,0-1.379,0.617-1.379,1.377v5.18c0,0.761,0.616,1.377,1.379,1.377
	c0.761,0,1.378-0.617,1.378-1.377v-5.18C38.786,19.459,38.169,18.843,37.408,18.843z"/>
<path fill="#2FD6C0" d="M12.956,30.552c-0.761,0-1.377,0.618-1.377,1.378v5.179c0,0.762,0.616,1.378,1.377,1.378
	c0.761,0,1.377-0.616,1.377-1.378V31.93C14.334,31.17,13.717,30.552,12.956,30.552z"/>
<path fill="#2FD6C0" d="M37.408,30.552c-0.763,0-1.379,0.618-1.379,1.378v5.179c0,0.762,0.616,1.378,1.379,1.378
	c0.761,0,1.378-0.616,1.378-1.378V31.93C38.786,31.17,38.169,30.552,37.408,30.552z"/>
<path fill="#4AB8EB" d="M48.867,16.979c0,2.547-2.072,4.62-4.621,4.62H6.507c-2.548,0-4.621-2.073-4.621-4.62
	c0-2.548,2.073-4.62,4.621-4.62h37.739C46.795,12.358,48.867,14.431,48.867,16.979z"/>
<path fill="#00ABE9" d="M48.867,28.643c0,2.547-2.072,4.619-4.621,4.619H6.507c-2.548,0-4.621-2.072-4.621-4.619
	c0-2.548,2.073-4.621,4.621-4.621h37.739C46.795,24.022,48.867,26.095,48.867,28.643z"/>
<path fill="#00ABE9" d="M48.867,40.386c0,2.547-2.072,4.621-4.621,4.621H6.507c-2.548,0-4.621-2.074-4.621-4.621
	c0-2.548,2.073-4.619,4.621-4.619h37.739C46.795,35.767,48.867,37.838,48.867,40.386z"/>
<path fill="#009AE3" d="M48.867,16.979c0,2.547-2.072,4.62-4.621,4.62H25.377v-9.24h18.869
	C46.795,12.358,48.867,14.431,48.867,16.979z"/>
<path fill="#009AE3" d="M48.867,28.643c0,2.547-2.072,4.619-4.621,4.619H25.377v-9.24h18.869
	C46.795,24.022,48.867,26.095,48.867,28.643z"/>
<path fill="#009AE3" d="M48.867,40.386c0,2.547-2.072,4.621-4.621,4.621H25.377v-9.24h18.869
	C46.795,35.767,48.867,37.838,48.867,40.386z"/>
<path fill="#094BDE" d="M7.961,40.118c-0.009-0.044-0.02-0.088-0.033-0.131c-0.014-0.044-0.028-0.086-0.046-0.128
	c-0.017-0.042-0.037-0.082-0.058-0.122c-0.021-0.038-0.044-0.078-0.069-0.115c-0.025-0.038-0.051-0.074-0.08-0.108
	c-0.029-0.034-0.06-0.07-0.091-0.102c-0.032-0.03-0.066-0.063-0.101-0.092c-0.035-0.026-0.072-0.056-0.108-0.078
	c-0.038-0.027-0.076-0.048-0.117-0.071c-0.039-0.019-0.08-0.04-0.121-0.057c-0.041-0.018-0.084-0.033-0.127-0.046
	c-0.043-0.012-0.087-0.023-0.131-0.033c-0.044-0.009-0.089-0.016-0.133-0.019c-0.09-0.01-0.182-0.01-0.271,0
	c-0.045,0.003-0.09,0.01-0.134,0.019c-0.044,0.01-0.088,0.021-0.131,0.033c-0.042,0.013-0.086,0.028-0.127,0.046
	c-0.042,0.017-0.082,0.038-0.121,0.057c-0.041,0.023-0.079,0.044-0.117,0.071c-0.037,0.022-0.074,0.052-0.108,0.078
	c-0.035,0.029-0.069,0.062-0.101,0.092c-0.031,0.031-0.063,0.067-0.091,0.102c-0.029,0.034-0.055,0.07-0.08,0.108
	c-0.025,0.037-0.048,0.077-0.069,0.115c-0.021,0.04-0.041,0.08-0.058,0.122c-0.018,0.042-0.032,0.084-0.046,0.128
	C5.28,40.03,5.269,40.074,5.26,40.118c-0.008,0.044-0.016,0.088-0.021,0.134c-0.004,0.044-0.006,0.09-0.006,0.134
	c0,0.046,0.002,0.092,0.006,0.136c0.005,0.044,0.013,0.09,0.021,0.135c0.009,0.044,0.02,0.088,0.033,0.13
	c0.014,0.042,0.028,0.086,0.046,0.126c0.017,0.043,0.037,0.083,0.058,0.124c0.021,0.039,0.044,0.077,0.069,0.115
	c0.025,0.036,0.051,0.073,0.08,0.109c0.028,0.034,0.06,0.066,0.091,0.101c0.032,0.031,0.066,0.062,0.101,0.091
	c0.035,0.028,0.072,0.054,0.108,0.08c0.038,0.022,0.076,0.048,0.117,0.068c0.04,0.021,0.08,0.041,0.121,0.058
	c0.041,0.018,0.084,0.033,0.127,0.046c0.043,0.014,0.087,0.024,0.131,0.033c0.044,0.009,0.089,0.015,0.134,0.021
	c0.044,0.004,0.09,0.006,0.135,0.006c0.045,0,0.091-0.002,0.136-0.006c0.044-0.006,0.089-0.012,0.133-0.021
	c0.044-0.009,0.088-0.02,0.131-0.033c0.042-0.013,0.086-0.028,0.127-0.046c0.042-0.017,0.082-0.036,0.121-0.058
	c0.041-0.021,0.079-0.046,0.117-0.068c0.037-0.026,0.074-0.052,0.108-0.08c0.035-0.029,0.069-0.06,0.101-0.091
	c0.031-0.034,0.062-0.066,0.091-0.101c0.029-0.036,0.055-0.073,0.08-0.109c0.025-0.038,0.048-0.076,0.069-0.115
	c0.021-0.041,0.041-0.081,0.058-0.124c0.018-0.04,0.032-0.084,0.046-0.126c0.013-0.042,0.024-0.086,0.033-0.13
	c0.008-0.045,0.016-0.091,0.021-0.135c0.003-0.044,0.006-0.09,0.006-0.136c0-0.044-0.003-0.09-0.006-0.134
	C7.977,40.206,7.97,40.162,7.961,40.118z"/>
<path fill="#094BDE" d="M45.525,40.118c-0.01-0.044-0.021-0.088-0.033-0.131c-0.015-0.044-0.03-0.086-0.046-0.129
	c-0.019-0.041-0.038-0.081-0.059-0.121c-0.021-0.038-0.044-0.078-0.069-0.115c-0.024-0.038-0.052-0.074-0.08-0.108
	c-0.027-0.034-0.06-0.07-0.09-0.102c-0.032-0.03-0.067-0.063-0.102-0.092c-0.034-0.026-0.07-0.056-0.108-0.078
	c-0.039-0.027-0.077-0.048-0.117-0.071c-0.038-0.019-0.078-0.04-0.121-0.057c-0.041-0.018-0.085-0.033-0.127-0.046
	c-0.043-0.012-0.087-0.023-0.131-0.033c-0.044-0.009-0.09-0.016-0.134-0.019c-0.09-0.01-0.182-0.01-0.271,0
	c-0.044,0.003-0.089,0.01-0.133,0.019c-0.044,0.01-0.088,0.021-0.132,0.033c-0.042,0.013-0.084,0.028-0.126,0.046
	c-0.041,0.017-0.081,0.038-0.123,0.057c-0.04,0.023-0.078,0.044-0.114,0.071c-0.036,0.022-0.073,0.052-0.109,0.078
	c-0.034,0.029-0.068,0.062-0.101,0.092c-0.031,0.031-0.062,0.067-0.092,0.102c-0.027,0.034-0.055,0.07-0.079,0.108
	c-0.024,0.037-0.048,0.077-0.068,0.115c-0.021,0.04-0.042,0.08-0.058,0.121c-0.02,0.043-0.033,0.085-0.046,0.129
	c-0.014,0.043-0.024,0.087-0.033,0.131s-0.017,0.088-0.021,0.134c-0.006,0.044-0.008,0.09-0.008,0.134
	c0,0.046,0.002,0.092,0.008,0.136c0.004,0.044,0.012,0.09,0.021,0.135c0.009,0.044,0.02,0.088,0.033,0.13
	c0.013,0.042,0.026,0.086,0.046,0.126c0.016,0.043,0.036,0.083,0.058,0.124c0.021,0.039,0.044,0.077,0.068,0.115
	c0.024,0.036,0.052,0.073,0.079,0.109c0.03,0.034,0.061,0.066,0.092,0.101c0.032,0.031,0.066,0.062,0.101,0.091
	c0.036,0.028,0.073,0.054,0.109,0.08c0.036,0.022,0.074,0.048,0.114,0.068c0.042,0.021,0.082,0.041,0.123,0.058
	c0.042,0.018,0.084,0.033,0.126,0.046c0.044,0.014,0.088,0.024,0.132,0.033s0.089,0.015,0.133,0.021
	c0.046,0.004,0.092,0.006,0.136,0.006c0.046,0,0.092-0.002,0.136-0.006c0.044-0.006,0.09-0.012,0.134-0.021s0.088-0.02,0.131-0.033
	c0.042-0.013,0.086-0.028,0.127-0.046c0.043-0.017,0.083-0.036,0.121-0.058c0.04-0.021,0.078-0.046,0.117-0.068
	c0.038-0.026,0.074-0.052,0.108-0.08c0.034-0.029,0.069-0.06,0.102-0.091c0.03-0.034,0.063-0.066,0.09-0.101
	c0.028-0.036,0.056-0.073,0.08-0.109c0.025-0.038,0.048-0.076,0.069-0.115c0.021-0.041,0.04-0.081,0.059-0.124
	c0.016-0.04,0.031-0.084,0.046-0.126c0.012-0.042,0.023-0.086,0.033-0.13c0.007-0.045,0.014-0.091,0.019-0.135
	c0.004-0.044,0.006-0.09,0.006-0.136c0-0.044-0.002-0.09-0.006-0.134C45.539,40.206,45.532,40.162,45.525,40.118z"/>
<path fill="#094BDE" d="M7.961,28.361c-0.009-0.044-0.02-0.088-0.033-0.13c-0.014-0.043-0.028-0.085-0.046-0.126
	c-0.017-0.042-0.037-0.083-0.058-0.122c-0.021-0.04-0.044-0.08-0.069-0.116c-0.025-0.038-0.051-0.075-0.08-0.109
	c-0.029-0.035-0.06-0.069-0.091-0.1c-0.032-0.032-0.066-0.062-0.101-0.092c-0.035-0.028-0.072-0.055-0.108-0.08
	c-0.038-0.025-0.076-0.048-0.117-0.069c-0.039-0.021-0.08-0.041-0.121-0.058c-0.041-0.018-0.084-0.032-0.127-0.045
	C6.968,27.3,6.924,27.289,6.88,27.281c-0.044-0.009-0.089-0.017-0.133-0.021c-0.09-0.009-0.182-0.009-0.271,0
	c-0.045,0.004-0.09,0.011-0.134,0.021C6.297,27.289,6.253,27.3,6.21,27.314c-0.042,0.013-0.086,0.027-0.127,0.045
	c-0.042,0.017-0.082,0.037-0.121,0.058c-0.041,0.021-0.079,0.044-0.117,0.069c-0.037,0.025-0.074,0.052-0.108,0.08
	c-0.035,0.03-0.069,0.06-0.101,0.092c-0.031,0.031-0.063,0.065-0.091,0.1c-0.029,0.035-0.055,0.072-0.08,0.109
	c-0.025,0.036-0.048,0.076-0.069,0.116c-0.021,0.039-0.041,0.08-0.058,0.122c-0.018,0.042-0.032,0.083-0.046,0.126
	c-0.013,0.042-0.024,0.086-0.033,0.13c-0.008,0.044-0.016,0.089-0.021,0.134c-0.004,0.045-0.006,0.09-0.006,0.135
	s0.002,0.091,0.006,0.136c0.005,0.045,0.013,0.09,0.021,0.135c0.009,0.044,0.02,0.088,0.033,0.13
	c0.014,0.043,0.028,0.086,0.046,0.127c0.017,0.041,0.037,0.083,0.058,0.123c0.021,0.039,0.044,0.077,0.069,0.115
	c0.025,0.037,0.051,0.074,0.08,0.108c0.028,0.035,0.06,0.068,0.091,0.102c0.032,0.03,0.066,0.063,0.101,0.091
	c0.035,0.027,0.072,0.055,0.108,0.079c0.038,0.025,0.076,0.049,0.117,0.07c0.04,0.02,0.08,0.041,0.121,0.057
	c0.041,0.018,0.084,0.033,0.127,0.046c0.043,0.013,0.087,0.024,0.131,0.033c0.044,0.01,0.089,0.015,0.134,0.02
	c0.044,0.005,0.09,0.007,0.135,0.007c0.045,0,0.091-0.002,0.136-0.007c0.044-0.005,0.089-0.01,0.133-0.02
	c0.044-0.009,0.088-0.021,0.131-0.033c0.042-0.013,0.086-0.028,0.127-0.046c0.042-0.016,0.082-0.037,0.121-0.057
	c0.041-0.021,0.079-0.045,0.117-0.07c0.037-0.024,0.074-0.052,0.108-0.079c0.035-0.028,0.069-0.061,0.101-0.091
	c0.031-0.033,0.062-0.066,0.091-0.102c0.029-0.034,0.055-0.071,0.08-0.108c0.025-0.038,0.048-0.076,0.069-0.115
	c0.021-0.04,0.041-0.082,0.058-0.123c0.018-0.041,0.032-0.084,0.046-0.127c0.013-0.042,0.024-0.086,0.033-0.13
	c0.008-0.045,0.016-0.09,0.021-0.135c0.003-0.045,0.006-0.091,0.006-0.136s-0.003-0.09-0.006-0.135
	C7.977,28.45,7.97,28.405,7.961,28.361z"/>
<path fill="#094BDE" d="M45.525,28.361c-0.01-0.044-0.021-0.088-0.033-0.13c-0.015-0.043-0.03-0.085-0.046-0.126
	c-0.019-0.042-0.038-0.083-0.059-0.122c-0.021-0.04-0.044-0.08-0.069-0.116c-0.024-0.038-0.052-0.075-0.08-0.109
	c-0.027-0.035-0.06-0.069-0.09-0.1c-0.032-0.032-0.067-0.062-0.102-0.091s-0.07-0.056-0.108-0.081
	c-0.039-0.025-0.077-0.048-0.117-0.069c-0.038-0.021-0.078-0.041-0.121-0.058c-0.041-0.017-0.085-0.032-0.127-0.045
	c-0.043-0.014-0.087-0.025-0.131-0.033c-0.044-0.009-0.09-0.016-0.134-0.021c-0.09-0.009-0.182-0.009-0.271,0
	c-0.044,0.005-0.089,0.011-0.133,0.021c-0.044,0.008-0.088,0.019-0.132,0.033c-0.042,0.013-0.084,0.028-0.126,0.045
	c-0.041,0.017-0.081,0.037-0.123,0.058c-0.04,0.021-0.078,0.044-0.114,0.069s-0.073,0.052-0.109,0.081
	c-0.034,0.029-0.068,0.059-0.101,0.091c-0.031,0.031-0.062,0.065-0.092,0.1c-0.027,0.035-0.055,0.072-0.079,0.109
	c-0.024,0.036-0.048,0.076-0.068,0.116c-0.021,0.039-0.042,0.08-0.058,0.122c-0.02,0.042-0.033,0.083-0.046,0.126
	c-0.014,0.042-0.024,0.086-0.033,0.13s-0.017,0.089-0.021,0.134c-0.006,0.045-0.008,0.09-0.008,0.135s0.002,0.091,0.008,0.136
	c0.004,0.045,0.012,0.09,0.021,0.135c0.009,0.044,0.02,0.088,0.033,0.13c0.013,0.043,0.026,0.086,0.046,0.127
	c0.016,0.041,0.036,0.083,0.058,0.123c0.021,0.039,0.044,0.077,0.068,0.115c0.024,0.037,0.052,0.074,0.079,0.108
	c0.03,0.035,0.061,0.068,0.092,0.102c0.032,0.03,0.066,0.063,0.101,0.091c0.036,0.027,0.073,0.055,0.109,0.079
	c0.036,0.025,0.074,0.049,0.114,0.07c0.042,0.021,0.082,0.041,0.123,0.057c0.042,0.018,0.084,0.033,0.126,0.046
	c0.044,0.013,0.088,0.024,0.132,0.033c0.044,0.01,0.089,0.015,0.133,0.02c0.046,0.005,0.092,0.007,0.136,0.007
	c0.046,0,0.092-0.002,0.136-0.007s0.09-0.01,0.134-0.02c0.044-0.009,0.088-0.021,0.131-0.033c0.042-0.013,0.086-0.028,0.127-0.046
	c0.043-0.016,0.083-0.036,0.121-0.057c0.04-0.021,0.078-0.045,0.117-0.07c0.038-0.024,0.074-0.052,0.108-0.079
	c0.034-0.028,0.069-0.061,0.102-0.091c0.03-0.033,0.063-0.066,0.09-0.102c0.028-0.034,0.056-0.071,0.08-0.108
	c0.025-0.038,0.048-0.076,0.069-0.115c0.021-0.04,0.04-0.082,0.059-0.123c0.016-0.041,0.031-0.084,0.046-0.127
	c0.012-0.042,0.023-0.086,0.033-0.13c0.007-0.045,0.014-0.09,0.019-0.135c0.004-0.045,0.006-0.091,0.006-0.136
	s-0.002-0.09-0.006-0.135C45.539,28.45,45.532,28.405,45.525,28.361z"/>
<path fill="#094BDE" d="M7.961,16.698c-0.009-0.044-0.02-0.089-0.033-0.131C7.915,16.524,7.9,16.482,7.882,16.44
	c-0.017-0.042-0.037-0.082-0.058-0.122s-0.044-0.079-0.069-0.116c-0.025-0.038-0.051-0.074-0.08-0.109
	c-0.029-0.035-0.06-0.069-0.091-0.101c-0.032-0.031-0.066-0.062-0.101-0.091c-0.035-0.027-0.072-0.055-0.108-0.08
	c-0.038-0.025-0.076-0.048-0.117-0.069c-0.039-0.021-0.08-0.04-0.121-0.059c-0.041-0.017-0.084-0.031-0.127-0.045
	c-0.043-0.013-0.087-0.025-0.131-0.032c-0.044-0.01-0.089-0.016-0.133-0.02c-0.09-0.01-0.182-0.01-0.271,0
	c-0.045,0.004-0.09,0.01-0.134,0.02c-0.044,0.007-0.088,0.019-0.131,0.032c-0.042,0.014-0.086,0.028-0.127,0.045
	c-0.042,0.019-0.082,0.038-0.121,0.059c-0.041,0.021-0.079,0.044-0.117,0.069c-0.037,0.025-0.074,0.053-0.108,0.08
	c-0.035,0.029-0.069,0.06-0.101,0.091c-0.031,0.032-0.063,0.066-0.091,0.101c-0.029,0.035-0.055,0.072-0.08,0.109
	c-0.025,0.037-0.048,0.076-0.069,0.116s-0.041,0.08-0.058,0.122c-0.018,0.042-0.032,0.084-0.046,0.127
	c-0.013,0.042-0.024,0.087-0.033,0.131c-0.008,0.044-0.016,0.089-0.021,0.134c-0.004,0.045-0.006,0.09-0.006,0.135
	s0.002,0.091,0.006,0.136c0.005,0.044,0.013,0.089,0.021,0.133c0.009,0.044,0.02,0.088,0.033,0.131
	c0.014,0.042,0.028,0.085,0.046,0.127c0.017,0.041,0.037,0.082,0.058,0.122c0.021,0.04,0.044,0.078,0.069,0.116
	c0.025,0.038,0.051,0.074,0.08,0.108c0.028,0.034,0.06,0.069,0.091,0.101c0.032,0.032,0.066,0.063,0.101,0.091
	c0.035,0.028,0.072,0.055,0.108,0.08c0.038,0.025,0.076,0.049,0.117,0.07c0.04,0.021,0.08,0.041,0.121,0.057
	c0.041,0.018,0.084,0.033,0.127,0.046c0.043,0.013,0.087,0.024,0.131,0.033c0.044,0.01,0.089,0.016,0.134,0.021
	c0.044,0.004,0.09,0.006,0.135,0.006c0.045,0,0.091-0.002,0.136-0.006c0.044-0.005,0.089-0.011,0.133-0.021
	c0.044-0.009,0.088-0.02,0.131-0.033c0.042-0.013,0.086-0.028,0.127-0.046c0.042-0.017,0.082-0.036,0.121-0.057
	c0.041-0.021,0.079-0.045,0.117-0.07c0.037-0.025,0.074-0.052,0.108-0.08c0.035-0.028,0.069-0.059,0.101-0.091
	c0.031-0.032,0.062-0.067,0.091-0.101c0.029-0.035,0.055-0.071,0.08-0.108c0.025-0.038,0.048-0.076,0.069-0.116
	c0.021-0.04,0.041-0.081,0.058-0.122c0.018-0.042,0.032-0.084,0.046-0.127c0.013-0.043,0.024-0.087,0.033-0.131
	c0.008-0.044,0.016-0.089,0.021-0.133c0.003-0.045,0.006-0.091,0.006-0.136s-0.003-0.09-0.006-0.135
	C7.977,16.787,7.97,16.742,7.961,16.698z"/>
<path fill="#094BDE" d="M42.823,17.236c0.009,0.044,0.02,0.088,0.033,0.131c0.013,0.042,0.026,0.085,0.046,0.127
	c0.016,0.041,0.036,0.082,0.058,0.122c0.021,0.04,0.044,0.078,0.068,0.116c0.024,0.038,0.052,0.074,0.079,0.108
	c0.03,0.034,0.061,0.069,0.092,0.101c0.032,0.031,0.066,0.063,0.101,0.091c0.036,0.028,0.073,0.055,0.109,0.08
	s0.074,0.049,0.114,0.07c0.042,0.021,0.082,0.041,0.123,0.057c0.042,0.018,0.084,0.033,0.126,0.046
	c0.044,0.013,0.088,0.024,0.132,0.033c0.044,0.01,0.089,0.016,0.133,0.021c0.046,0.004,0.092,0.006,0.136,0.006
	c0.046,0,0.092-0.002,0.136-0.006c0.044-0.005,0.09-0.011,0.134-0.021c0.044-0.009,0.088-0.02,0.131-0.033
	c0.042-0.013,0.086-0.028,0.127-0.046c0.043-0.017,0.083-0.036,0.121-0.057c0.04-0.021,0.078-0.045,0.117-0.07
	c0.038-0.025,0.074-0.052,0.108-0.08c0.034-0.028,0.069-0.06,0.102-0.091c0.03-0.032,0.063-0.067,0.09-0.101
	c0.028-0.035,0.056-0.071,0.08-0.108c0.025-0.038,0.048-0.076,0.069-0.116c0.021-0.04,0.04-0.081,0.059-0.122
	c0.016-0.042,0.031-0.084,0.046-0.127c0.012-0.043,0.023-0.087,0.033-0.131c0.007-0.044,0.014-0.089,0.019-0.133
	c0.004-0.045,0.006-0.091,0.006-0.136s-0.002-0.09-0.006-0.135c-0.005-0.045-0.012-0.09-0.019-0.134
	c-0.01-0.044-0.021-0.089-0.033-0.131c-0.015-0.043-0.03-0.085-0.046-0.127c-0.019-0.042-0.038-0.082-0.059-0.122
	c-0.021-0.04-0.044-0.079-0.069-0.116c-0.024-0.038-0.052-0.074-0.08-0.109c-0.027-0.035-0.06-0.069-0.09-0.1
	c-0.032-0.032-0.067-0.063-0.102-0.092c-0.034-0.027-0.07-0.055-0.108-0.08c-0.039-0.025-0.077-0.048-0.117-0.069
	c-0.038-0.021-0.078-0.04-0.121-0.059c-0.041-0.017-0.085-0.031-0.127-0.045c-0.043-0.013-0.087-0.025-0.131-0.032
	c-0.044-0.01-0.09-0.017-0.134-0.02c-0.09-0.01-0.182-0.01-0.271,0c-0.044,0.003-0.089,0.01-0.133,0.02
	c-0.044,0.007-0.088,0.019-0.132,0.032c-0.042,0.014-0.084,0.028-0.126,0.045c-0.041,0.019-0.081,0.038-0.123,0.059
	c-0.04,0.021-0.078,0.044-0.114,0.069s-0.073,0.053-0.109,0.08c-0.034,0.029-0.068,0.06-0.101,0.092
	c-0.031,0.031-0.062,0.065-0.092,0.1c-0.027,0.035-0.055,0.072-0.079,0.109c-0.024,0.037-0.048,0.076-0.068,0.116
	c-0.021,0.04-0.042,0.08-0.058,0.122c-0.02,0.042-0.033,0.084-0.046,0.127c-0.014,0.042-0.024,0.087-0.033,0.131
	c-0.009,0.044-0.017,0.089-0.021,0.134c-0.006,0.045-0.008,0.09-0.008,0.135s0.002,0.091,0.008,0.136
	C42.807,17.146,42.814,17.192,42.823,17.236z"/>
</svg>
