<?xml version="1.0" encoding="utf-8"?>
<!-- Generator: Adobe Illustrator 16.0.0, SVG Export Plug-In . SVG Version: 6.00 Build 0)  -->
<!DOCTYPE svg PUBLIC "-//W3C//DTD SVG 1.1//EN" "http://www.w3.org/Graphics/SVG/1.1/DTD/svg11.dtd">
<svg version="1.1" id="Layer_1" xmlns="http://www.w3.org/2000/svg" xmlns:xlink="http://www.w3.org/1999/xlink" x="0px" y="0px"
	 width="50px" height="60px" viewBox="0 0 50 60" enable-background="new 0 0 50 60" xml:space="preserve">
<path fill="#2FD6C0" d="M26.375,20.819v10.102c0,0.779-0.608,1.416-1.375,1.461c-0.029,0.002-0.06,0.004-0.09,0.004
	c-0.81,0-1.465-0.656-1.465-1.465V20.819c0-0.811,0.655-1.465,1.465-1.465c0.03,0,0.061,0,0.09,0.002
	C25.767,19.403,26.375,20.04,26.375,20.819z"/>
<path fill="#1CC3AC" d="M26.375,20.819v10.102c0,0.779-0.608,1.416-1.375,1.461V19.356C25.767,19.403,26.375,20.04,26.375,20.819z"
	/>
<path fill="#2FD6C0" d="M38.991,33.636c0,2.185-1.775,3.961-3.959,3.961H14.837c-2.183,0-3.959-1.776-3.959-3.961
	c0-2.182,1.776-3.959,3.959-3.959h20.195C37.216,29.677,38.991,31.454,38.991,33.636z"/>
<path fill="#1CC3AC" d="M38.991,33.636c0,2.185-1.775,3.961-3.959,3.961H25v-7.92h10.032C37.216,29.677,38.991,31.454,38.991,33.636
	z"/>
<path fill="#2FD6C0" d="M5.38,29.677c-2.184,0-3.96,1.776-3.96,3.96s1.776,3.96,3.96,3.96c2.183,0,3.959-1.776,3.959-3.96
	S7.563,29.677,5.38,29.677z"/>
<path fill="#1CC3AC" d="M44.503,29.677c-2.184,0-3.96,1.776-3.96,3.96s1.776,3.96,3.96,3.96s3.96-1.776,3.96-3.96
	S46.687,29.677,44.503,29.677z"/>
<path fill="#2FD6C0" d="M11.792,6.945c-0.809,0-1.465,0.656-1.465,1.465v5.507c0,0.809,0.656,1.465,1.465,1.465
	s1.465-0.656,1.465-1.465V8.41C13.257,7.601,12.601,6.945,11.792,6.945z"/>
<path fill="#2FD6C0" d="M37.794,6.945c-0.81,0-1.466,0.656-1.466,1.465v5.507c0,0.809,0.656,1.465,1.466,1.465
	s1.465-0.656,1.465-1.465V8.41C39.259,7.601,38.604,6.945,37.794,6.945z"/>
<path fill="#00ABE9" d="M49.979,4.914c0,2.708-2.203,4.913-4.913,4.913H4.934c-2.709,0-4.914-2.205-4.914-4.913
	C0.021,2.204,2.225,0,4.934,0h40.132C47.776,0,49.979,2.204,49.979,4.914z"/>
<path fill="#00ABE9" d="M49.979,17.401c0,2.709-2.203,4.914-4.913,4.914H4.934c-2.709,0-4.914-2.205-4.914-4.914
	s2.204-4.912,4.914-4.912h40.132C47.776,12.489,49.979,14.692,49.979,17.401z"/>
<path fill="#009AE3" d="M49.979,4.914c0,2.708-2.203,4.913-4.913,4.913H25V0h20.066C47.776,0,49.979,2.204,49.979,4.914z"/>
<path fill="#009AE3" d="M49.979,17.401c0,2.709-2.203,4.914-4.913,4.914H25v-9.826h20.066
	C47.776,12.489,49.979,14.692,49.979,17.401z"/>
<path fill="#094BDE" d="M6.481,17.116c-0.01-0.047-0.021-0.094-0.035-0.139c-0.015-0.047-0.03-0.092-0.049-0.135
	c-0.019-0.045-0.039-0.088-0.062-0.131c-0.022-0.041-0.047-0.084-0.073-0.123s-0.055-0.078-0.085-0.115
	c-0.031-0.037-0.063-0.074-0.097-0.107c-0.034-0.033-0.07-0.066-0.107-0.098c-0.037-0.029-0.076-0.059-0.115-0.084
	c-0.04-0.027-0.081-0.051-0.124-0.074c-0.042-0.021-0.085-0.043-0.129-0.061c-0.044-0.02-0.09-0.035-0.135-0.049
	c-0.046-0.014-0.093-0.025-0.14-0.035s-0.095-0.018-0.142-0.021c-0.096-0.01-0.193-0.01-0.288,0
	c-0.048,0.004-0.096,0.012-0.143,0.021s-0.094,0.021-0.14,0.035c-0.045,0.014-0.091,0.029-0.135,0.049
	c-0.044,0.018-0.087,0.039-0.129,0.061c-0.043,0.023-0.084,0.047-0.124,0.074c-0.039,0.025-0.078,0.055-0.115,0.084
	c-0.037,0.031-0.073,0.064-0.107,0.098c-0.033,0.033-0.066,0.07-0.097,0.107s-0.059,0.076-0.085,0.115s-0.051,0.082-0.073,0.123
	c-0.022,0.043-0.043,0.086-0.062,0.131c-0.019,0.043-0.034,0.088-0.049,0.135c-0.014,0.045-0.025,0.092-0.035,0.139
	c-0.009,0.047-0.017,0.094-0.021,0.143c-0.005,0.047-0.007,0.096-0.007,0.143c0,0.049,0.002,0.098,0.007,0.145
	s0.013,0.096,0.021,0.143c0.01,0.047,0.021,0.094,0.035,0.139c0.015,0.045,0.03,0.092,0.049,0.135
	c0.019,0.045,0.039,0.088,0.062,0.131c0.022,0.041,0.047,0.082,0.073,0.123c0.026,0.039,0.055,0.078,0.085,0.115
	s0.063,0.072,0.097,0.107c0.034,0.033,0.07,0.066,0.107,0.096c0.037,0.031,0.076,0.059,0.115,0.086
	c0.04,0.025,0.081,0.051,0.124,0.074c0.042,0.021,0.085,0.043,0.129,0.061s0.09,0.035,0.135,0.049
	c0.046,0.014,0.093,0.025,0.14,0.035s0.095,0.016,0.143,0.021c0.047,0.004,0.096,0.006,0.144,0.006s0.097-0.002,0.145-0.006
	c0.047-0.006,0.095-0.012,0.142-0.021s0.094-0.021,0.14-0.035c0.045-0.014,0.091-0.031,0.135-0.049s0.087-0.039,0.129-0.061
	c0.043-0.023,0.084-0.049,0.124-0.074c0.039-0.027,0.078-0.055,0.115-0.086c0.037-0.029,0.073-0.063,0.107-0.096
	c0.033-0.035,0.065-0.07,0.097-0.107c0.03-0.037,0.059-0.076,0.085-0.115c0.026-0.041,0.051-0.082,0.073-0.123
	c0.022-0.043,0.043-0.086,0.062-0.131c0.019-0.043,0.034-0.09,0.049-0.135c0.014-0.045,0.025-0.092,0.035-0.139
	c0.009-0.047,0.017-0.096,0.021-0.143c0.004-0.047,0.007-0.096,0.007-0.145c0-0.047-0.003-0.096-0.007-0.143
	C6.498,17.21,6.49,17.163,6.481,17.116z"/>
<path fill="#094BDE" d="M46.426,17.116c-0.01-0.047-0.021-0.094-0.035-0.139c-0.016-0.047-0.031-0.092-0.049-0.137
	c-0.02-0.043-0.039-0.086-0.063-0.129c-0.021-0.041-0.047-0.084-0.072-0.123c-0.027-0.039-0.055-0.078-0.086-0.115
	c-0.029-0.037-0.063-0.074-0.096-0.107c-0.035-0.033-0.07-0.066-0.107-0.098c-0.037-0.029-0.076-0.059-0.115-0.084
	c-0.041-0.027-0.082-0.051-0.125-0.074c-0.041-0.021-0.084-0.043-0.129-0.061c-0.043-0.02-0.09-0.035-0.135-0.049
	s-0.092-0.025-0.139-0.035s-0.096-0.018-0.143-0.021c-0.096-0.01-0.193-0.01-0.289,0c-0.047,0.004-0.094,0.012-0.141,0.021
	s-0.094,0.021-0.141,0.035c-0.045,0.014-0.09,0.029-0.135,0.049c-0.043,0.018-0.086,0.039-0.129,0.061
	c-0.043,0.023-0.084,0.047-0.123,0.074c-0.039,0.025-0.078,0.055-0.115,0.084c-0.037,0.031-0.074,0.064-0.107,0.098
	s-0.066,0.07-0.098,0.107c-0.029,0.037-0.059,0.076-0.084,0.115c-0.027,0.039-0.051,0.082-0.074,0.123
	c-0.021,0.043-0.043,0.086-0.061,0.129c-0.02,0.045-0.035,0.09-0.049,0.137c-0.014,0.045-0.025,0.092-0.035,0.139
	s-0.018,0.094-0.021,0.143c-0.006,0.047-0.008,0.096-0.008,0.143c0,0.049,0.002,0.098,0.008,0.145
	c0.004,0.047,0.012,0.096,0.021,0.143s0.021,0.094,0.035,0.139s0.029,0.092,0.049,0.135c0.018,0.045,0.039,0.088,0.061,0.131
	c0.023,0.041,0.047,0.082,0.074,0.123c0.025,0.039,0.055,0.078,0.084,0.115c0.031,0.037,0.064,0.072,0.098,0.107
	c0.033,0.033,0.07,0.066,0.107,0.096c0.037,0.031,0.076,0.059,0.115,0.086c0.039,0.025,0.08,0.051,0.123,0.074
	c0.043,0.021,0.086,0.043,0.129,0.061c0.045,0.018,0.09,0.035,0.135,0.049c0.047,0.014,0.094,0.025,0.141,0.035
	s0.094,0.016,0.141,0.021c0.049,0.004,0.098,0.006,0.145,0.006c0.049,0,0.098-0.002,0.145-0.006
	c0.047-0.006,0.096-0.012,0.143-0.021s0.094-0.021,0.139-0.035s0.092-0.031,0.135-0.049c0.045-0.018,0.088-0.039,0.129-0.061
	c0.043-0.023,0.084-0.049,0.125-0.074c0.039-0.027,0.078-0.055,0.115-0.086c0.037-0.029,0.072-0.063,0.107-0.096
	c0.033-0.035,0.066-0.07,0.096-0.107c0.031-0.037,0.059-0.076,0.086-0.115c0.025-0.041,0.051-0.082,0.072-0.123
	c0.023-0.043,0.043-0.086,0.063-0.131c0.018-0.043,0.033-0.09,0.049-0.135c0.014-0.045,0.025-0.092,0.035-0.139
	c0.008-0.047,0.016-0.096,0.021-0.143c0.004-0.047,0.006-0.096,0.006-0.145c0-0.047-0.002-0.096-0.006-0.143
	C46.441,17.21,46.434,17.163,46.426,17.116z"/>
<path fill="#094BDE" d="M6.481,4.615c-0.01-0.047-0.021-0.094-0.035-0.139C6.431,4.43,6.416,4.385,6.397,4.341
	c-0.019-0.045-0.039-0.088-0.062-0.13S6.289,4.127,6.262,4.088c-0.026-0.04-0.055-0.079-0.085-0.116
	C6.146,3.935,6.114,3.899,6.081,3.866C6.046,3.832,6.01,3.799,5.973,3.768C5.936,3.739,5.897,3.709,5.858,3.683
	C5.818,3.657,5.777,3.632,5.734,3.61C5.692,3.587,5.649,3.567,5.605,3.548S5.515,3.514,5.47,3.5
	c-0.046-0.015-0.093-0.026-0.14-0.035c-0.047-0.01-0.095-0.018-0.142-0.021c-0.096-0.01-0.193-0.01-0.288,0
	C4.853,3.448,4.805,3.456,4.758,3.465C4.711,3.474,4.665,3.486,4.619,3.5C4.574,3.514,4.528,3.53,4.484,3.548
	S4.397,3.587,4.355,3.61C4.312,3.632,4.271,3.657,4.231,3.683C4.192,3.709,4.153,3.739,4.116,3.768
	C4.079,3.799,4.042,3.832,4.008,3.866C3.975,3.899,3.942,3.935,3.912,3.972S3.853,4.048,3.827,4.088
	C3.8,4.127,3.776,4.169,3.753,4.211S3.71,4.296,3.692,4.341C3.673,4.385,3.658,4.43,3.643,4.476
	C3.629,4.521,3.618,4.568,3.608,4.615C3.599,4.662,3.591,4.709,3.586,4.757S3.58,4.853,3.58,4.901s0.002,0.097,0.007,0.145
	C3.591,5.092,3.599,5.14,3.608,5.187c0.01,0.047,0.021,0.094,0.035,0.14c0.015,0.045,0.03,0.091,0.049,0.135s0.039,0.088,0.062,0.13
	S3.8,5.674,3.827,5.714S3.881,5.792,3.912,5.83s0.063,0.073,0.097,0.107c0.034,0.033,0.07,0.066,0.107,0.097
	s0.076,0.059,0.115,0.085c0.04,0.026,0.081,0.052,0.124,0.074C4.397,6.214,4.44,6.236,4.484,6.253
	c0.044,0.019,0.09,0.035,0.135,0.049c0.046,0.014,0.093,0.025,0.14,0.035s0.095,0.017,0.143,0.021
	c0.047,0.005,0.096,0.007,0.144,0.007s0.097-0.002,0.145-0.007c0.047-0.005,0.095-0.012,0.142-0.021s0.094-0.021,0.14-0.035
	c0.045-0.014,0.091-0.03,0.135-0.049c0.044-0.018,0.087-0.039,0.129-0.061C5.777,6.17,5.818,6.145,5.858,6.119
	c0.039-0.026,0.078-0.055,0.115-0.085S6.046,5.97,6.081,5.937c0.033-0.034,0.065-0.07,0.097-0.107
	c0.03-0.037,0.059-0.075,0.085-0.115s0.051-0.081,0.073-0.123s0.043-0.086,0.062-0.13s0.034-0.09,0.049-0.135
	c0.014-0.046,0.025-0.093,0.035-0.14C6.49,5.14,6.498,5.092,6.502,5.045c0.004-0.048,0.007-0.097,0.007-0.145
	S6.506,4.805,6.502,4.757C6.498,4.709,6.49,4.662,6.481,4.615z"/>
<path fill="#094BDE" d="M46.426,4.615c-0.01-0.047-0.021-0.094-0.035-0.139c-0.016-0.046-0.031-0.091-0.049-0.135
	c-0.02-0.045-0.039-0.088-0.063-0.13c-0.021-0.042-0.047-0.084-0.072-0.123c-0.027-0.04-0.055-0.079-0.086-0.116
	c-0.029-0.037-0.063-0.073-0.096-0.106c-0.035-0.034-0.07-0.066-0.107-0.097s-0.076-0.06-0.115-0.086
	c-0.041-0.026-0.082-0.051-0.125-0.073c-0.041-0.022-0.084-0.043-0.129-0.062c-0.043-0.018-0.09-0.034-0.135-0.048
	c-0.045-0.015-0.092-0.026-0.139-0.035c-0.047-0.01-0.096-0.017-0.143-0.021c-0.096-0.01-0.193-0.01-0.289,0
	c-0.047,0.005-0.094,0.012-0.141,0.021c-0.047,0.009-0.094,0.021-0.141,0.035c-0.045,0.014-0.09,0.03-0.135,0.048
	c-0.043,0.019-0.086,0.039-0.129,0.062s-0.084,0.047-0.123,0.073s-0.078,0.056-0.115,0.086s-0.074,0.063-0.107,0.097
	c-0.033,0.033-0.066,0.069-0.098,0.106c-0.029,0.037-0.059,0.076-0.084,0.116c-0.027,0.039-0.051,0.081-0.074,0.123
	c-0.021,0.042-0.043,0.085-0.061,0.13c-0.02,0.044-0.035,0.089-0.049,0.135c-0.014,0.045-0.025,0.092-0.035,0.139
	s-0.018,0.095-0.021,0.143c-0.006,0.048-0.008,0.096-0.008,0.144s0.002,0.097,0.008,0.145c0.004,0.047,0.012,0.095,0.021,0.142
	s0.021,0.094,0.035,0.14c0.014,0.045,0.029,0.091,0.049,0.135c0.018,0.044,0.039,0.088,0.061,0.13
	c0.023,0.042,0.047,0.083,0.074,0.123c0.025,0.04,0.055,0.078,0.084,0.115c0.031,0.037,0.064,0.073,0.098,0.107
	c0.033,0.033,0.07,0.066,0.107,0.097s0.076,0.059,0.115,0.085s0.08,0.052,0.123,0.074s0.086,0.043,0.129,0.061
	c0.045,0.019,0.09,0.035,0.135,0.049c0.047,0.014,0.094,0.025,0.141,0.035s0.094,0.017,0.141,0.021
	c0.049,0.005,0.098,0.007,0.145,0.007c0.049,0,0.098-0.002,0.145-0.007s0.096-0.012,0.143-0.021s0.094-0.021,0.139-0.035
	s0.092-0.03,0.135-0.049c0.045-0.018,0.088-0.038,0.129-0.061c0.043-0.022,0.084-0.048,0.125-0.074
	c0.039-0.026,0.078-0.055,0.115-0.085s0.072-0.063,0.107-0.097c0.033-0.034,0.066-0.07,0.096-0.107
	c0.031-0.036,0.059-0.075,0.086-0.115c0.025-0.04,0.051-0.081,0.072-0.123c0.023-0.042,0.043-0.086,0.063-0.13
	c0.018-0.044,0.033-0.09,0.049-0.135c0.014-0.046,0.025-0.093,0.035-0.14c0.008-0.047,0.016-0.095,0.021-0.142
	c0.004-0.048,0.006-0.097,0.006-0.145s-0.002-0.096-0.006-0.144C46.441,4.709,46.434,4.662,46.426,4.615z"/>
</svg>
