<?xml version="1.0" encoding="utf-8"?>
<!-- Generator: Adobe Illustrator 16.0.0, SVG Export Plug-In . SVG Version: 6.00 Build 0)  -->
<!DOCTYPE svg PUBLIC "-//W3C//DTD SVG 1.1//EN" "http://www.w3.org/Graphics/SVG/1.1/DTD/svg11.dtd">
<svg version="1.1" xmlns="http://www.w3.org/2000/svg" xmlns:xlink="http://www.w3.org/1999/xlink" x="0px" y="0px" width="70px"
	 height="70px" viewBox="0 0 70 70" enable-background="new 0 0 70 70" xml:space="preserve">
<g id="Layer_2">
	<circle fill="#E9EBEF" cx="35" cy="35" r="35"/>
</g>
<g id="Layer_1">
	<path fill="#1A64E5" d="M34.189,69.756c-13.359-8.877-20.186-22.725-20.186-37.013v-3.712c0-0.604,0.372-1.147,0.936-1.366
		l19.531-7.566c0.341-0.132,0.718-0.132,1.059,0l19.531,7.566c0.564,0.218,0.936,0.761,0.936,1.366v3.712
		c0,14.408-6.93,28.205-20.186,37.013C35.32,70.081,34.681,70.082,34.189,69.756z"/>
	<path fill="#1346B7" d="M55.061,27.665l-19.531-7.566C35.359,20.033,35.179,20,35,20v50c0.283,0,0.564-0.082,0.811-0.244
		c13.256-8.808,20.186-22.604,20.186-37.013v-3.712C55.996,28.426,55.625,27.883,55.061,27.665z"/>
	<path fill="#D0DAF1" d="M34.104,63.717c-9.306-7.193-15.217-18.368-15.217-31.341c0-0.604,0.372-1.147,0.936-1.366l14.648-5.674
		c0.341-0.132,0.718-0.132,1.059,0l14.648,5.674c0.564,0.218,0.936,0.761,0.936,1.366c0,12.965-5.909,24.146-15.217,31.341
		C35.369,64.124,34.632,64.125,34.104,63.717z"/>
	<path fill="#BFCAE2" d="M50.178,31.01l-14.648-5.674c-0.17-0.066-0.35-0.099-0.529-0.099v38.786c0.316,0,0.633-0.103,0.896-0.306
		c9.308-7.195,15.217-18.376,15.217-31.341C51.113,31.771,50.742,31.228,50.178,31.01z"/>
	<path fill="#1346B7" d="M31.945,49.604l-3.84-3.841c-0.572-0.572-0.572-1.499,0-2.071c0.572-0.571,1.5-0.571,2.071,0l2.805,2.805
		l6.843-6.843c0.571-0.572,1.499-0.572,2.07,0c0.572,0.572,0.572,1.5,0,2.072l-7.878,7.878
		C33.445,50.176,32.517,50.176,31.945,49.604z"/>
	<path fill="#1346B7" d="M41.895,39.654c-0.571-0.572-1.499-0.572-2.07,0L35,44.479v4.143l6.895-6.895
		C42.467,41.154,42.467,40.227,41.895,39.654z"/>
</g>
</svg>
