<?xml version="1.0" encoding="utf-8"?>
<!-- Generator: Adobe Illustrator 16.0.0, SVG Export Plug-In . SVG Version: 6.00 Build 0)  -->
<!DOCTYPE svg PUBLIC "-//W3C//DTD SVG 1.1//EN" "http://www.w3.org/Graphics/SVG/1.1/DTD/svg11.dtd">
<svg version="1.1" id="Layer_1" xmlns="http://www.w3.org/2000/svg" xmlns:xlink="http://www.w3.org/1999/xlink" x="0px" y="0px"
	 width="60px" height="60px" viewBox="0 0 60 60" enable-background="new 0 0 60 60" xml:space="preserve">
<path fill="#7CC8F0" d="M60,16.201v33.061C60,55.183,55.184,60,49.262,60H10.738C4.817,60,0,55.183,0,49.262V16.201
	C0,10.279,4.817,5.464,10.738,5.464h38.524C55.184,5.464,60,10.279,60,16.201L60,16.201z M60,16.201"/>
<path fill="#4BB9EC" d="M60,16.201v33.061C60,55.183,55.184,60,49.262,60H30.007V5.464h19.254C55.184,5.464,60,10.279,60,16.201
	L60,16.201z M60,16.201"/>
<rect y="24.108" fill="#4BB9EC" width="60" height="17.709"/>
<rect x="30.007" y="24.108" fill="#00ABE9" width="29.993" height="17.709"/>
<path fill="#1A64E5" d="M60,41.817v7.444C60,55.183,55.184,60,49.262,60H10.738C4.817,60,0,55.183,0,49.262v-7.444H60z M60,41.817"
	/>
<path fill="#1346B7" d="M60,41.817v7.444C60,55.183,55.184,60,49.262,60H30.007V41.817H60z M60,41.817"/>
<path fill="#FFFFFF" d="M24.386,11.377H10.344c-2.445,0-4.434,1.988-4.434,4.434c0,2.444,1.989,4.435,4.434,4.435h14.042
	c2.445,0,4.434-1.99,4.434-4.435C28.82,13.365,26.831,11.377,24.386,11.377L24.386,11.377z M24.386,11.377"/>
<path fill="#FFFFFF" d="M39.424,11.502c-2.411,0-4.371,1.961-4.371,4.371s1.96,4.372,4.371,4.372c2.41,0,4.371-1.962,4.371-4.372
	S41.834,11.502,39.424,11.502L39.424,11.502z M39.424,11.502"/>
<path fill="#FFFFFF" d="M49.855,11.502c-2.41,0-4.371,1.961-4.371,4.371s1.961,4.372,4.371,4.372s4.371-1.962,4.371-4.372
	S52.266,11.502,49.855,11.502L49.855,11.502z M49.855,11.502"/>
<path fill="#B3FFFF" d="M24.318,28.532H10.276c-2.445,0-4.434,1.988-4.434,4.434s1.989,4.434,4.434,4.434h14.042
	c2.445,0,4.434-1.988,4.434-4.434S26.763,28.532,24.318,28.532L24.318,28.532z M24.318,28.532"/>
<path fill="#B3FFFF" d="M39.354,28.657c-2.41,0-4.371,1.961-4.371,4.371s1.961,4.371,4.371,4.371s4.371-1.961,4.371-4.371
	S41.766,28.657,39.354,28.657L39.354,28.657z M39.354,28.657"/>
<path fill="#B3FFFF" d="M49.787,28.657c-2.41,0-4.371,1.961-4.371,4.371s1.961,4.371,4.371,4.371s4.371-1.961,4.371-4.371
	S52.197,28.657,49.787,28.657L49.787,28.657z M49.787,28.657"/>
<path fill="#4BB9EC" d="M24.687,51.995H10.044c-0.971,0-1.758-0.787-1.758-1.759c0-0.971,0.787-1.758,1.758-1.758h14.643
	c0.971,0,1.758,0.787,1.758,1.758C26.445,51.208,25.658,51.995,24.687,51.995L24.687,51.995z M24.687,51.995"/>
</svg>
