<?xml version="1.0" encoding="utf-8"?>
<!-- Generator: Adobe Illustrator 16.0.0, SVG Export Plug-In . SVG Version: 6.00 Build 0)  -->
<!DOCTYPE svg PUBLIC "-//W3C//DTD SVG 1.1//EN" "http://www.w3.org/Graphics/SVG/1.1/DTD/svg11.dtd">
<svg version="1.1" id="Layer_1" xmlns="http://www.w3.org/2000/svg" xmlns:xlink="http://www.w3.org/1999/xlink" x="0px" y="0px"
	 width="70px" height="70px" viewBox="0 0 70 70" enable-background="new 0 0 70 70" xml:space="preserve">
<circle id="circle" fill="#E9EBEF" cx="35" cy="35" r="35"/>
<g id="icon">
	<rect id="line" x="18.798" y="61.842" fill="#1346B7" width="32.403" height="4.105"/>
	<path fill="#2488FF" d="M23.754,42.59c-6.201-6.201-6.201-16.291,0-22.491l-2.902-2.902C17.078,20.971,15,25.995,15,31.345
		c0,5.351,2.078,10.374,5.852,14.147L23.754,42.59z M23.754,42.59"/>
	<path fill="#2488FF" d="M46.245,42.59l2.903,2.902C52.922,41.719,55,36.695,55,31.345c0-5.35-2.078-10.374-5.852-14.148
		l-2.901,2.902C52.447,26.3,52.447,36.389,46.245,42.59L46.245,42.59z M46.245,42.59"/>
	<path fill="#2488FF" d="M25.931,40.414l2.902-2.902c-1.645-1.645-2.549-3.834-2.549-6.167c0-2.333,0.905-4.523,2.549-6.167
		l-2.902-2.902c-2.419,2.419-3.752,5.641-3.752,9.069C22.179,34.773,23.512,37.994,25.931,40.414L25.931,40.414z M25.931,40.414"/>
	<path fill="#2488FF" d="M44.068,40.414c2.421-2.42,3.753-5.641,3.753-9.069c0-3.428-1.332-6.649-3.753-9.069l-2.901,2.902
		c1.645,1.644,2.55,3.834,2.55,6.167c0,2.333-0.905,4.522-2.55,6.167L44.068,40.414z M44.068,40.414"/>
	<path fill="#1A63E4" d="M35,42.285l3.276,11.266l1.193,4.104l1.814,6.24h4.275l-8.004-27.521c-0.768,0.392-1.636,0.614-2.556,0.614
		V25.702c-3.112,0-5.644,2.531-5.644,5.643c0,2.192,1.258,4.095,3.088,5.029c0.768,0.392,1.637,0.614,2.556,0.614V42.285z
		 M35,42.285"/>
	<path fill="#2488FF" d="M30.53,57.656l8.94-0.002l-1.193-4.104h-6.553L35,42.285v-5.297c-0.919,0-1.788-0.223-2.556-0.614
		L24.44,63.895h4.274L30.53,57.656z M30.53,57.656"/>
	<path fill="#1346B7" d="M35,36.988c0.919,0,1.788-0.223,2.556-0.614c1.83-0.935,3.088-2.837,3.088-5.029
		c0-3.112-2.532-5.643-5.644-5.643V36.988z M35,36.988"/>
</g>
</svg>
