<?xml version="1.0" encoding="utf-8"?>
<!-- Generator: Adobe Illustrator 16.0.0, SVG Export Plug-In . SVG Version: 6.00 Build 0)  -->
<!DOCTYPE svg PUBLIC "-//W3C//DTD SVG 1.1//EN" "http://www.w3.org/Graphics/SVG/1.1/DTD/svg11.dtd">
<svg version="1.1" xmlns="http://www.w3.org/2000/svg" xmlns:xlink="http://www.w3.org/1999/xlink" x="0px" y="0px" width="70px"
	 height="70px" viewBox="0 0 70 70" enable-background="new 0 0 70 70" xml:space="preserve">
<g id="Layer_2">
	<circle fill="#E9EBEF" cx="35" cy="35" r="35"/>
</g>
<g id="Layer_1">
	<path fill="#9DF4E4" d="M35.989,49.424v9.1c0,0.702-0.549,1.275-1.239,1.317c-0.027,0.001-0.054,0.002-0.081,0.002
		c-0.729,0-1.319-0.591-1.319-1.319v-9.1c0-0.729,0.59-1.319,1.319-1.319c0.027,0,0.054,0.001,0.081,0.002
		C35.44,48.148,35.989,48.722,35.989,49.424L35.989,49.424z M35.989,49.424"/>
	<path fill="#28DDC4" d="M35.989,49.424v9.1c0,0.702-0.549,1.275-1.239,1.317V48.106C35.44,48.148,35.989,48.722,35.989,49.424
		L35.989,49.424z M35.989,49.424"/>
	<path fill="#9DF4E4" d="M47.353,60.97c0,1.967-1.6,3.567-3.567,3.567H25.596c-1.966,0-3.566-1.601-3.566-3.567
		s1.6-3.566,3.566-3.566h18.189C45.753,57.403,47.353,59.003,47.353,60.97L47.353,60.97z M47.353,60.97"/>
	<path fill="#28DDC4" d="M47.353,60.97c0,1.967-1.6,3.567-3.567,3.567H34.75v-7.134h9.035C45.753,57.403,47.353,59.003,47.353,60.97
		L47.353,60.97z M47.353,60.97"/>
	<path fill="#9DF4E4" d="M17.077,57.403c-1.967,0-3.566,1.6-3.566,3.567c0,1.966,1.6,3.565,3.566,3.565s3.567-1.6,3.567-3.565
		C20.644,59.003,19.044,57.403,17.077,57.403L17.077,57.403z M17.077,57.403"/>
	<path fill="#28DDC4" d="M52.316,57.403c-1.967,0-3.566,1.6-3.566,3.567c0,1.966,1.6,3.565,3.566,3.565s3.566-1.6,3.566-3.565
		C55.883,59.003,54.283,57.403,52.316,57.403L52.316,57.403z M52.316,57.403"/>
	<path fill="#9DF4E4" d="M22.854,25.711c-0.729,0-1.32,0.591-1.32,1.319v4.961c0,0.729,0.591,1.319,1.32,1.319
		c0.728,0,1.319-0.59,1.319-1.319v-4.961C24.173,26.302,23.582,25.711,22.854,25.711L22.854,25.711z M22.854,25.711"/>
	<path fill="#9DF4E4" d="M46.273,25.711c-0.729,0-1.319,0.591-1.319,1.319v4.961c0,0.729,0.592,1.319,1.319,1.319
		c0.729,0,1.32-0.59,1.32-1.319v-4.961C47.594,26.302,47.003,25.711,46.273,25.711L46.273,25.711z M46.273,25.711"/>
	<path fill="#9DF4E4" d="M22.854,36.928c-0.729,0-1.32,0.591-1.32,1.319v4.961c0,0.729,0.591,1.319,1.32,1.319
		c0.728,0,1.319-0.59,1.319-1.319v-4.961C24.173,37.519,23.582,36.928,22.854,36.928L22.854,36.928z M22.854,36.928"/>
	<path fill="#9DF4E4" d="M46.273,36.928c-0.729,0-1.319,0.591-1.319,1.319v4.961c0,0.729,0.592,1.319,1.319,1.319
		c0.729,0,1.32-0.59,1.32-1.319v-4.961C47.594,37.519,47.003,36.928,46.273,36.928L46.273,36.928z M46.273,36.928"/>
	<path fill="#5692E8" d="M57.25,23.926c0,2.439-1.985,4.425-4.426,4.425H16.676c-2.44,0-4.426-1.986-4.426-4.425
		c0-2.44,1.986-4.426,4.426-4.426h36.148C55.265,19.5,57.25,21.486,57.25,23.926L57.25,23.926z M57.25,23.926"/>
	<path fill="#3981EA" d="M57.25,35.098c0,2.439-1.985,4.425-4.426,4.425H16.676c-2.44,0-4.426-1.986-4.426-4.425
		c0-2.44,1.986-4.426,4.426-4.426h36.148C55.265,30.672,57.25,32.658,57.25,35.098L57.25,35.098z M57.25,35.098"/>
	<path fill="#1F69EC" d="M57.25,46.347c0,2.44-1.985,4.425-4.426,4.425H16.676c-2.44,0-4.426-1.984-4.426-4.425
		c0-2.441,1.986-4.425,4.426-4.425h36.148C55.265,41.922,57.25,43.905,57.25,46.347L57.25,46.347z M57.25,46.347"/>
	<path fill="#1F68E8" d="M57.25,23.926c0,2.439-1.985,4.425-4.426,4.425H34.75V19.5h18.074C55.265,19.5,57.25,21.486,57.25,23.926
		L57.25,23.926z M57.25,23.926"/>
	<path fill="#1857C6" d="M57.25,35.098c0,2.439-1.985,4.425-4.426,4.425H34.75v-8.851h18.074
		C55.265,30.672,57.25,32.658,57.25,35.098L57.25,35.098z M57.25,35.098"/>
	<path fill="#1346B7" d="M57.25,46.347c0,2.44-1.985,4.425-4.426,4.425H34.75v-8.85h18.074C55.265,41.922,57.25,43.905,57.25,46.347
		L57.25,46.347z M57.25,46.347"/>
	<path fill="#094BDE" d="M18.069,46.089c-0.009-0.042-0.02-0.085-0.032-0.125c-0.013-0.041-0.028-0.082-0.044-0.121
		c-0.016-0.041-0.035-0.079-0.055-0.118c-0.021-0.037-0.042-0.074-0.065-0.109c-0.024-0.036-0.05-0.071-0.077-0.104
		c-0.028-0.034-0.057-0.067-0.087-0.097c-0.031-0.03-0.064-0.061-0.097-0.088c-0.034-0.026-0.069-0.053-0.104-0.077
		c-0.036-0.023-0.073-0.046-0.111-0.065c-0.038-0.02-0.077-0.039-0.117-0.057c-0.04-0.016-0.081-0.029-0.121-0.042
		c-0.042-0.014-0.083-0.023-0.125-0.031c-0.042-0.009-0.086-0.017-0.127-0.02c-0.087-0.009-0.174-0.009-0.26,0
		c-0.043,0.003-0.087,0.011-0.128,0.02c-0.042,0.008-0.084,0.018-0.126,0.031c-0.04,0.013-0.082,0.026-0.122,0.042
		c-0.04,0.018-0.078,0.037-0.116,0.057c-0.039,0.02-0.076,0.042-0.112,0.065c-0.035,0.024-0.07,0.051-0.104,0.077
		c-0.034,0.027-0.066,0.058-0.097,0.088c-0.031,0.029-0.06,0.063-0.087,0.097c-0.027,0.033-0.053,0.068-0.077,0.104
		c-0.023,0.035-0.045,0.072-0.066,0.109c-0.021,0.039-0.039,0.077-0.056,0.118c-0.016,0.039-0.03,0.08-0.044,0.121
		c-0.013,0.04-0.022,0.083-0.031,0.125c-0.008,0.042-0.015,0.084-0.02,0.128c-0.004,0.043-0.006,0.086-0.006,0.13
		c0,0.043,0.001,0.087,0.006,0.131c0.004,0.042,0.012,0.084,0.02,0.126c0.009,0.042,0.019,0.085,0.031,0.127
		c0.014,0.04,0.028,0.081,0.044,0.121c0.017,0.039,0.035,0.079,0.056,0.117c0.021,0.037,0.042,0.074,0.066,0.111
		c0.024,0.035,0.05,0.07,0.077,0.103c0.027,0.033,0.057,0.066,0.087,0.097c0.031,0.031,0.063,0.061,0.097,0.087
		c0.033,0.027,0.068,0.053,0.104,0.078c0.036,0.022,0.073,0.045,0.112,0.066c0.038,0.02,0.076,0.038,0.116,0.055
		c0.04,0.016,0.082,0.03,0.122,0.044c0.042,0.012,0.084,0.021,0.126,0.03c0.042,0.009,0.085,0.016,0.128,0.021
		c0.042,0.004,0.086,0.006,0.129,0.006c0.043,0,0.087-0.002,0.131-0.006c0.042-0.005,0.085-0.012,0.127-0.021
		c0.042-0.009,0.084-0.019,0.125-0.03c0.041-0.014,0.082-0.028,0.121-0.044c0.04-0.017,0.079-0.035,0.117-0.055
		c0.039-0.021,0.076-0.044,0.111-0.066c0.035-0.025,0.07-0.051,0.104-0.078c0.033-0.026,0.066-0.056,0.097-0.087
		c0.03-0.03,0.059-0.063,0.087-0.097c0.027-0.032,0.053-0.067,0.077-0.103c0.023-0.037,0.045-0.074,0.065-0.111
		c0.021-0.038,0.039-0.078,0.055-0.117c0.017-0.04,0.031-0.081,0.044-0.121c0.012-0.042,0.023-0.085,0.032-0.127
		c0.008-0.042,0.015-0.084,0.019-0.126c0.004-0.044,0.006-0.088,0.006-0.131c0-0.044-0.002-0.087-0.006-0.13
		C18.084,46.173,18.077,46.131,18.069,46.089L18.069,46.089z M18.069,46.089"/>
	<path fill="#6BA6ED" d="M54.048,46.089c-0.009-0.042-0.019-0.085-0.031-0.125c-0.014-0.041-0.027-0.083-0.044-0.123
		c-0.017-0.039-0.035-0.077-0.055-0.116c-0.021-0.037-0.043-0.074-0.065-0.109c-0.025-0.036-0.051-0.071-0.078-0.104
		c-0.026-0.034-0.057-0.067-0.087-0.097c-0.03-0.03-0.063-0.061-0.097-0.088c-0.033-0.026-0.068-0.053-0.104-0.077
		c-0.035-0.023-0.073-0.046-0.111-0.065s-0.077-0.039-0.116-0.057c-0.04-0.016-0.081-0.029-0.122-0.042
		c-0.041-0.014-0.084-0.023-0.125-0.031c-0.043-0.009-0.086-0.017-0.128-0.02c-0.086-0.009-0.174-0.009-0.261,0
		c-0.042,0.003-0.085,0.011-0.127,0.02c-0.042,0.008-0.085,0.018-0.126,0.031c-0.04,0.013-0.082,0.026-0.121,0.042
		c-0.04,0.018-0.079,0.037-0.116,0.057c-0.038,0.02-0.075,0.042-0.112,0.065c-0.035,0.024-0.07,0.051-0.103,0.077
		c-0.034,0.027-0.066,0.058-0.097,0.088c-0.031,0.029-0.061,0.063-0.088,0.097c-0.026,0.033-0.053,0.068-0.077,0.104
		c-0.023,0.035-0.046,0.072-0.065,0.109c-0.021,0.039-0.038,0.077-0.056,0.116c-0.017,0.04-0.03,0.082-0.044,0.123
		c-0.012,0.04-0.022,0.083-0.031,0.125c-0.008,0.042-0.016,0.084-0.02,0.128c-0.005,0.043-0.006,0.086-0.006,0.13
		c0,0.043,0.001,0.087,0.006,0.131c0.004,0.042,0.012,0.084,0.02,0.126c0.009,0.042,0.02,0.085,0.031,0.127
		c0.014,0.04,0.027,0.081,0.044,0.121c0.018,0.039,0.035,0.079,0.056,0.117c0.02,0.037,0.042,0.074,0.065,0.111
		c0.024,0.035,0.051,0.07,0.077,0.103c0.027,0.033,0.057,0.066,0.088,0.097c0.03,0.031,0.063,0.061,0.097,0.087
		c0.032,0.027,0.067,0.053,0.103,0.078c0.037,0.022,0.074,0.045,0.112,0.066c0.037,0.02,0.076,0.038,0.116,0.055
		c0.039,0.016,0.081,0.03,0.121,0.044c0.041,0.012,0.084,0.021,0.126,0.03s0.085,0.016,0.127,0.021
		c0.043,0.004,0.087,0.006,0.131,0.006c0.043,0,0.087-0.002,0.13-0.006c0.042-0.005,0.085-0.012,0.128-0.021
		c0.041-0.009,0.084-0.019,0.125-0.03c0.041-0.014,0.082-0.028,0.122-0.044c0.039-0.017,0.078-0.035,0.116-0.055
		c0.038-0.021,0.076-0.044,0.111-0.066c0.035-0.025,0.07-0.051,0.104-0.078c0.034-0.026,0.066-0.056,0.097-0.087
		c0.03-0.03,0.061-0.063,0.087-0.097c0.027-0.032,0.053-0.067,0.078-0.103c0.022-0.037,0.045-0.074,0.065-0.111
		c0.02-0.038,0.038-0.078,0.055-0.117c0.017-0.04,0.03-0.081,0.044-0.121c0.013-0.042,0.022-0.085,0.031-0.127
		s0.016-0.084,0.02-0.126c0.005-0.044,0.007-0.088,0.007-0.131c0-0.044-0.002-0.087-0.007-0.13
		C54.063,46.173,54.057,46.131,54.048,46.089L54.048,46.089z M54.048,46.089"/>
	<path fill="#094BDE" d="M18.069,34.829c-0.009-0.042-0.02-0.084-0.032-0.125c-0.013-0.041-0.028-0.081-0.044-0.121
		c-0.016-0.041-0.035-0.079-0.055-0.117c-0.021-0.038-0.042-0.076-0.065-0.111c-0.024-0.036-0.05-0.071-0.077-0.104
		c-0.028-0.033-0.057-0.066-0.087-0.096c-0.031-0.031-0.064-0.06-0.097-0.088c-0.034-0.026-0.069-0.053-0.104-0.077
		c-0.036-0.024-0.073-0.045-0.111-0.065c-0.038-0.021-0.077-0.039-0.117-0.056s-0.081-0.031-0.121-0.043
		c-0.042-0.013-0.083-0.023-0.125-0.031c-0.042-0.009-0.086-0.016-0.127-0.02c-0.087-0.009-0.174-0.009-0.26,0
		c-0.043,0.003-0.087,0.01-0.128,0.02c-0.042,0.008-0.084,0.019-0.126,0.031c-0.04,0.013-0.082,0.026-0.122,0.043
		c-0.04,0.017-0.078,0.035-0.116,0.056c-0.039,0.02-0.076,0.042-0.112,0.065c-0.035,0.024-0.07,0.05-0.104,0.077
		c-0.034,0.028-0.066,0.057-0.097,0.088c-0.031,0.03-0.06,0.063-0.087,0.096c-0.027,0.034-0.053,0.068-0.077,0.104
		c-0.023,0.035-0.045,0.073-0.066,0.111c-0.021,0.038-0.039,0.077-0.056,0.117c-0.016,0.04-0.03,0.08-0.044,0.121
		c-0.013,0.041-0.022,0.083-0.031,0.125c-0.008,0.042-0.015,0.085-0.02,0.129c-0.004,0.043-0.006,0.086-0.006,0.128
		c0,0.043,0.001,0.087,0.006,0.131c0.004,0.042,0.012,0.085,0.02,0.127c0.009,0.042,0.019,0.084,0.031,0.125
		c0.014,0.041,0.028,0.082,0.044,0.122c0.017,0.039,0.035,0.079,0.056,0.117c0.021,0.038,0.042,0.075,0.066,0.11
		c0.024,0.036,0.05,0.07,0.077,0.104c0.027,0.034,0.057,0.066,0.087,0.097s0.063,0.061,0.097,0.087
		c0.033,0.027,0.068,0.054,0.104,0.077c0.036,0.023,0.073,0.047,0.112,0.066c0.038,0.02,0.076,0.039,0.116,0.055
		c0.04,0.018,0.082,0.032,0.122,0.044c0.042,0.013,0.084,0.022,0.126,0.032c0.042,0.008,0.085,0.014,0.128,0.019
		c0.042,0.005,0.086,0.007,0.129,0.007c0.043,0,0.087-0.002,0.131-0.007c0.042-0.005,0.085-0.011,0.127-0.019
		c0.042-0.01,0.084-0.02,0.125-0.032c0.041-0.012,0.082-0.026,0.121-0.044c0.04-0.016,0.079-0.035,0.117-0.055
		c0.039-0.02,0.076-0.043,0.111-0.066c0.035-0.023,0.07-0.05,0.104-0.077c0.033-0.026,0.066-0.057,0.097-0.087
		c0.03-0.03,0.059-0.063,0.087-0.097c0.027-0.034,0.053-0.068,0.077-0.104c0.023-0.036,0.045-0.073,0.065-0.11
		c0.021-0.039,0.039-0.078,0.055-0.117c0.017-0.04,0.031-0.081,0.044-0.122c0.012-0.042,0.023-0.083,0.032-0.125
		c0.008-0.042,0.015-0.085,0.019-0.127c0.004-0.043,0.006-0.087,0.006-0.131c0-0.042-0.002-0.085-0.006-0.128
		C18.084,34.914,18.077,34.871,18.069,34.829L18.069,34.829z M18.069,34.829"/>
	<path fill="#6BA6ED" d="M54.048,34.829c-0.009-0.042-0.019-0.084-0.031-0.125c-0.014-0.041-0.027-0.081-0.044-0.121
		c-0.017-0.041-0.035-0.079-0.055-0.117c-0.021-0.038-0.043-0.076-0.065-0.111c-0.025-0.036-0.051-0.071-0.078-0.104
		c-0.026-0.033-0.057-0.066-0.087-0.096c-0.03-0.031-0.063-0.06-0.097-0.087c-0.033-0.027-0.068-0.054-0.104-0.078
		s-0.073-0.045-0.111-0.065c-0.038-0.021-0.077-0.039-0.116-0.056c-0.04-0.016-0.081-0.031-0.122-0.043s-0.084-0.023-0.125-0.031
		c-0.043-0.009-0.086-0.015-0.128-0.02c-0.086-0.009-0.174-0.009-0.261,0c-0.042,0.004-0.085,0.01-0.127,0.02
		c-0.042,0.008-0.085,0.019-0.126,0.031c-0.04,0.013-0.082,0.027-0.121,0.043c-0.04,0.017-0.079,0.035-0.116,0.056
		c-0.038,0.02-0.075,0.042-0.112,0.065c-0.035,0.024-0.07,0.05-0.103,0.078c-0.034,0.027-0.066,0.056-0.097,0.087
		c-0.031,0.03-0.061,0.063-0.088,0.096c-0.026,0.034-0.053,0.068-0.077,0.104c-0.023,0.035-0.046,0.073-0.065,0.111
		c-0.021,0.038-0.038,0.077-0.056,0.117c-0.017,0.04-0.03,0.08-0.044,0.121c-0.012,0.041-0.022,0.083-0.031,0.125
		c-0.008,0.042-0.016,0.085-0.02,0.129c-0.005,0.043-0.006,0.086-0.006,0.128c0,0.043,0.001,0.087,0.006,0.131
		c0.004,0.042,0.012,0.085,0.02,0.127c0.009,0.042,0.02,0.084,0.031,0.125c0.014,0.041,0.027,0.082,0.044,0.122
		c0.018,0.039,0.035,0.079,0.056,0.117c0.02,0.038,0.042,0.075,0.065,0.11c0.024,0.036,0.051,0.07,0.077,0.104
		c0.027,0.034,0.057,0.066,0.088,0.097c0.03,0.03,0.063,0.061,0.097,0.087c0.032,0.027,0.067,0.054,0.103,0.077
		c0.037,0.023,0.074,0.047,0.112,0.066c0.037,0.021,0.076,0.039,0.116,0.055c0.039,0.018,0.081,0.032,0.121,0.044
		c0.041,0.013,0.084,0.022,0.126,0.032c0.042,0.008,0.085,0.014,0.127,0.019c0.043,0.005,0.087,0.007,0.131,0.007
		c0.043,0,0.087-0.002,0.13-0.007c0.042-0.005,0.085-0.011,0.128-0.019c0.041-0.01,0.084-0.02,0.125-0.032
		c0.041-0.012,0.082-0.026,0.122-0.044c0.039-0.016,0.078-0.034,0.116-0.055c0.038-0.02,0.076-0.043,0.111-0.066
		s0.07-0.05,0.104-0.077c0.034-0.026,0.066-0.057,0.097-0.087s0.061-0.063,0.087-0.097c0.027-0.033,0.053-0.068,0.078-0.104
		c0.022-0.036,0.045-0.073,0.065-0.11c0.02-0.039,0.038-0.078,0.055-0.117c0.017-0.04,0.03-0.081,0.044-0.122
		c0.013-0.042,0.022-0.083,0.031-0.125s0.016-0.085,0.02-0.127c0.005-0.043,0.007-0.087,0.007-0.131
		c0-0.042-0.002-0.085-0.007-0.128C54.063,34.914,54.057,34.871,54.048,34.829L54.048,34.829z M54.048,34.829"/>
	<path fill="#094BDE" d="M18.069,23.657c-0.009-0.042-0.02-0.085-0.032-0.125c-0.013-0.041-0.028-0.082-0.044-0.123
		c-0.016-0.04-0.035-0.078-0.055-0.116c-0.021-0.038-0.042-0.076-0.065-0.111c-0.024-0.036-0.05-0.071-0.077-0.105
		c-0.028-0.034-0.057-0.066-0.087-0.097c-0.031-0.03-0.064-0.059-0.097-0.087c-0.034-0.026-0.069-0.053-0.104-0.077
		c-0.036-0.023-0.073-0.046-0.111-0.066c-0.038-0.02-0.077-0.039-0.117-0.056c-0.04-0.017-0.081-0.03-0.121-0.042
		c-0.042-0.014-0.083-0.024-0.125-0.032c-0.042-0.009-0.086-0.015-0.127-0.02c-0.087-0.009-0.174-0.009-0.26,0
		c-0.043,0.004-0.087,0.011-0.128,0.02c-0.042,0.008-0.084,0.018-0.126,0.032c-0.04,0.012-0.082,0.026-0.122,0.042
		c-0.04,0.017-0.078,0.036-0.116,0.056c-0.039,0.02-0.076,0.042-0.112,0.066c-0.035,0.024-0.07,0.051-0.104,0.077
		c-0.034,0.028-0.066,0.057-0.097,0.087c-0.031,0.031-0.06,0.063-0.087,0.097c-0.027,0.034-0.053,0.069-0.077,0.105
		c-0.023,0.035-0.045,0.073-0.066,0.111c-0.021,0.038-0.039,0.076-0.056,0.116c-0.016,0.041-0.03,0.082-0.044,0.123
		c-0.013,0.04-0.022,0.083-0.031,0.125c-0.008,0.042-0.015,0.085-0.02,0.128c-0.004,0.043-0.006,0.085-0.006,0.129
		s0.001,0.087,0.006,0.13c0.004,0.042,0.012,0.085,0.02,0.127c0.009,0.042,0.019,0.085,0.031,0.126
		c0.014,0.04,0.028,0.082,0.044,0.121c0.017,0.04,0.035,0.079,0.056,0.117c0.021,0.037,0.042,0.075,0.066,0.111
		c0.024,0.036,0.05,0.071,0.077,0.104c0.027,0.033,0.057,0.066,0.087,0.097s0.063,0.06,0.097,0.086
		c0.033,0.028,0.068,0.053,0.104,0.077c0.036,0.024,0.073,0.046,0.112,0.067c0.038,0.02,0.076,0.039,0.116,0.054
		c0.04,0.017,0.082,0.032,0.122,0.044c0.042,0.012,0.084,0.022,0.126,0.031c0.042,0.009,0.085,0.016,0.128,0.02
		c0.042,0.005,0.086,0.006,0.129,0.006c0.043,0,0.087-0.001,0.131-0.006c0.042-0.004,0.085-0.01,0.127-0.02
		c0.042-0.009,0.084-0.02,0.125-0.031c0.041-0.013,0.082-0.027,0.121-0.044c0.04-0.016,0.079-0.034,0.117-0.054
		c0.039-0.021,0.076-0.043,0.111-0.067c0.035-0.024,0.07-0.049,0.104-0.077c0.033-0.027,0.066-0.056,0.097-0.086
		c0.03-0.031,0.059-0.063,0.087-0.097c0.027-0.032,0.053-0.067,0.077-0.104c0.023-0.036,0.045-0.074,0.065-0.111
		c0.021-0.038,0.039-0.078,0.055-0.117c0.017-0.04,0.031-0.081,0.044-0.121c0.012-0.042,0.023-0.084,0.032-0.126
		c0.008-0.042,0.015-0.085,0.019-0.127c0.004-0.043,0.006-0.087,0.006-0.13s-0.002-0.086-0.006-0.129
		C18.084,23.742,18.077,23.699,18.069,23.657L18.069,23.657z M18.069,23.657"/>
	<path fill="#6BA6ED" d="M51.461,24.172c0.009,0.042,0.02,0.085,0.031,0.126c0.014,0.04,0.027,0.082,0.044,0.121
		c0.018,0.04,0.035,0.079,0.056,0.117c0.02,0.037,0.042,0.075,0.065,0.111c0.024,0.036,0.05,0.071,0.077,0.104
		c0.027,0.033,0.057,0.066,0.087,0.097c0.031,0.029,0.063,0.06,0.098,0.086c0.032,0.028,0.067,0.053,0.103,0.077
		c0.037,0.024,0.073,0.046,0.112,0.067c0.037,0.02,0.076,0.039,0.116,0.054c0.039,0.017,0.081,0.032,0.121,0.044
		c0.041,0.012,0.084,0.022,0.125,0.031c0.043,0.009,0.086,0.016,0.128,0.02c0.043,0.005,0.087,0.006,0.13,0.006
		c0.044,0,0.088-0.001,0.13-0.006c0.043-0.004,0.086-0.01,0.129-0.02c0.041-0.009,0.084-0.02,0.125-0.031
		c0.04-0.013,0.082-0.027,0.122-0.044c0.039-0.016,0.078-0.034,0.115-0.054c0.039-0.021,0.075-0.043,0.112-0.067
		c0.035-0.024,0.07-0.049,0.104-0.077c0.034-0.027,0.066-0.057,0.097-0.086c0.03-0.031,0.061-0.063,0.087-0.097
		c0.027-0.032,0.053-0.067,0.077-0.104c0.023-0.036,0.046-0.074,0.066-0.111c0.02-0.038,0.038-0.078,0.055-0.117
		s0.03-0.081,0.044-0.121c0.013-0.042,0.022-0.084,0.031-0.126c0.008-0.042,0.016-0.085,0.02-0.127
		c0.004-0.043,0.006-0.087,0.006-0.13s-0.002-0.086-0.006-0.129c-0.004-0.043-0.012-0.086-0.02-0.128
		c-0.009-0.042-0.019-0.085-0.031-0.125c-0.014-0.041-0.027-0.082-0.044-0.123c-0.017-0.04-0.035-0.078-0.055-0.116
		c-0.021-0.038-0.043-0.076-0.066-0.111c-0.024-0.036-0.05-0.071-0.077-0.105c-0.026-0.034-0.057-0.066-0.087-0.095
		c-0.03-0.031-0.063-0.06-0.097-0.088c-0.033-0.026-0.068-0.053-0.104-0.077c-0.037-0.023-0.073-0.046-0.112-0.066
		c-0.037-0.02-0.076-0.039-0.115-0.056c-0.04-0.017-0.082-0.03-0.122-0.042c-0.041-0.014-0.084-0.024-0.125-0.032
		c-0.043-0.009-0.086-0.017-0.129-0.02c-0.085-0.009-0.173-0.009-0.26,0c-0.042,0.003-0.085,0.011-0.128,0.02
		c-0.041,0.008-0.084,0.018-0.125,0.032c-0.04,0.012-0.082,0.026-0.121,0.042c-0.04,0.017-0.079,0.036-0.116,0.056
		c-0.039,0.02-0.075,0.042-0.112,0.066c-0.035,0.024-0.07,0.051-0.103,0.077c-0.034,0.028-0.066,0.057-0.098,0.088
		c-0.03,0.029-0.06,0.062-0.087,0.095s-0.053,0.069-0.077,0.105c-0.023,0.035-0.046,0.073-0.065,0.111
		c-0.021,0.038-0.038,0.076-0.056,0.116c-0.017,0.041-0.03,0.082-0.044,0.123c-0.012,0.04-0.022,0.083-0.031,0.125
		c-0.008,0.042-0.016,0.085-0.02,0.128c-0.005,0.043-0.006,0.085-0.006,0.129s0.001,0.087,0.006,0.13
		C51.445,24.086,51.453,24.13,51.461,24.172L51.461,24.172z M51.461,24.172"/>
</g>
</svg>
