<?xml version="1.0" encoding="utf-8"?>
<!-- Generator: Adobe Illustrator 16.0.0, SVG Export Plug-In . SVG Version: 6.00 Build 0)  -->
<!DOCTYPE svg PUBLIC "-//W3C//DTD SVG 1.1//EN" "http://www.w3.org/Graphics/SVG/1.1/DTD/svg11.dtd">
<svg version="1.1" id="Capa_1" xmlns="http://www.w3.org/2000/svg" xmlns:xlink="http://www.w3.org/1999/xlink" x="0px" y="0px"
	 width="50px" height="50px" viewBox="0 0 50 50" enable-background="new 0 0 50 50" xml:space="preserve">
<path fill="#30F2D2" d="M44.141,1.465v47.07c0,0.82-0.645,1.465-1.465,1.465H1.465C0.645,50,0,49.355,0,48.535V1.465
	C0,0.645,0.645,0,1.465,0h5.859c0.82,0,1.465,0.645,1.465,1.465S9.434,2.93,10.254,2.93s1.465-0.645,1.465-1.465S12.363,0,13.184,0
	h5.957c0.82,0,1.465,0.645,1.465,1.465S21.25,2.93,22.07,2.93s1.563-0.645,1.563-1.465S24.277,0,25.098,0h5.859
	c0.82,0,1.465,0.645,1.465,1.465s0.645,1.465,1.465,1.465s1.465-0.645,1.465-1.465S35.996,0,36.816,0h5.859
	C43.496,0,44.141,0.645,44.141,1.465z"/>
<path fill="#28DDC4" d="M44.141,1.465v47.07c0,0.82-0.645,1.465-1.465,1.465H22.07V2.93c0.82,0,1.563-0.645,1.563-1.465
	S24.277,0,25.098,0h5.859c0.82,0,1.465,0.645,1.465,1.465s0.645,1.465,1.465,1.465s1.465-0.645,1.465-1.465S35.996,0,36.816,0h5.859
	C43.496,0,44.141,0.645,44.141,1.465z"/>
<g>
	<path fill="#1DAA92" d="M35.352,13.379c0,0.82-0.645,1.465-1.465,1.465H10.254c-0.82,0-1.465-0.645-1.465-1.465
		s0.645-1.465,1.465-1.465h23.633C34.707,11.914,35.352,12.559,35.352,13.379z"/>
	<path fill="#1DAA92" d="M32.422,22.168c0,0.82-0.645,1.465-1.465,1.465H10.254c-0.82,0-1.465-0.645-1.465-1.465
		s0.645-1.465,1.465-1.465h20.703C31.777,20.703,32.422,21.348,32.422,22.168z"/>
	<path fill="#1DAA92" d="M23.633,30.957c0,0.82-0.742,1.465-1.563,1.465H10.254c-0.82,0-1.465-0.645-1.465-1.465
		s0.645-1.465,1.465-1.465H22.07C22.891,29.492,23.633,30.137,23.633,30.957z"/>
	<path fill="#1DAA92" d="M26.563,39.746c0,0.82-0.645,1.465-1.465,1.465H10.254c-0.82,0-1.465-0.645-1.465-1.465
		s0.645-1.465,1.465-1.465h14.844C25.918,38.281,26.563,38.926,26.563,39.746z"/>
</g>
<g>
	<path fill="#1DAA92" d="M22.07,32.422v-2.93c0.82,0,1.563,0.645,1.563,1.465S22.891,32.422,22.07,32.422z"/>
	<path fill="#1DAA92" d="M26.563,39.746c0,0.82-0.645,1.465-1.465,1.465H22.07v-2.93h3.027
		C25.918,38.281,26.563,38.926,26.563,39.746z"/>
	<path fill="#1DAA92" d="M32.422,22.168c0,0.82-0.645,1.465-1.465,1.465H22.07v-2.93h8.887
		C31.777,20.703,32.422,21.348,32.422,22.168z"/>
	<path fill="#1DAA92" d="M35.352,13.379c0,0.82-0.645,1.465-1.465,1.465H22.07v-2.93h11.816
		C34.707,11.914,35.352,12.559,35.352,13.379z"/>
</g>
<path fill="#1DAA92" d="M48.726,22.006L47.7,23.061l-2.08-0.879l-3.281-3.281l-0.879-2.08l1.055-1.025
	c1.699-1.699,4.482-1.699,6.211,0C50.425,17.524,50.425,20.307,48.726,22.006z"/>
<path fill="#D0DAF1" d="M32.026,38.705c-0.176,0.176-0.352,0.293-0.586,0.352l-6.211,2.08c-0.498,0.176-1.084,0.029-1.494-0.352
	c-0.381-0.381-0.527-0.967-0.352-1.494l2.08-6.211c0.059-0.234,0.176-0.41,0.352-0.586l4.131,1.201l1.289,1.289L32.026,38.705z"/>
<path fill="#BFCAE2" d="M32.026,38.705c-0.176,0.176-0.352,0.293-0.586,0.352l-6.211,2.08c-0.498,0.176-1.084,0.029-1.494-0.352
	l6.65-6.65l0.85,0.85L32.026,38.705z"/>
<path fill="#1DAA92" d="M48.726,22.006L47.7,23.061l-2.08-0.879l-1.641-1.641l4.746-4.746
	C50.425,17.524,50.425,20.307,48.726,22.006z"/>
<polygon fill="#1346B7" points="47.7,23.061 32.026,38.705 25.815,32.494 41.46,16.821 "/>
<polygon fill="#1A62E3" points="47.7,23.061 32.026,38.705 28.921,35.6 44.595,19.956 "/>
</svg>
