<?xml version="1.0" encoding="utf-8"?>
<!-- Generator: Adobe Illustrator 16.0.0, SVG Export Plug-In . SVG Version: 6.00 Build 0)  -->
<!DOCTYPE svg PUBLIC "-//W3C//DTD SVG 1.1//EN" "http://www.w3.org/Graphics/SVG/1.1/DTD/svg11.dtd">
<svg version="1.1" id="Layer_1" xmlns="http://www.w3.org/2000/svg" xmlns:xlink="http://www.w3.org/1999/xlink" x="0px" y="0px"
	 width="60px" height="60px" viewBox="0 0 60 60" enable-background="new 0 0 60 60" xml:space="preserve">
<path fill="#30D7C0" d="M32.149,23.593v23.35c0,0.971-0.786,1.759-1.759,1.759c-0.971,0-1.76-0.788-1.76-1.759v-23.35
	c0-0.972,0.789-1.759,1.76-1.759C31.363,21.834,32.149,22.621,32.149,23.593L32.149,23.593z M32.149,23.593"/>
<path fill="#1CC3AC" d="M32.149,23.593v23.35c0,0.971-0.786,1.759-1.759,1.759V21.834C31.363,21.834,32.149,22.621,32.149,23.593
	L32.149,23.593z M32.149,23.593"/>
<path fill="#2F64DD" d="M53.568,42.977v3.966c0,0.971-0.788,1.759-1.76,1.759s-1.76-0.788-1.76-1.759v-3.966
	c0-3.28-2.669-5.95-5.95-5.95H15.978c-3.28,0-5.95,2.67-5.95,5.95v3.966c0,0.971-0.787,1.759-1.759,1.759
	c-0.972,0-1.76-0.788-1.76-1.759v-3.966c0-5.222,4.248-9.468,9.469-9.468h28.121C49.32,33.509,53.568,37.755,53.568,42.977
	L53.568,42.977z M53.568,42.977"/>
<path fill="#1E53C9" d="M53.568,42.977v3.966c0,0.971-0.788,1.759-1.76,1.759s-1.76-0.788-1.76-1.759v-3.966
	c0-3.28-2.669-5.95-5.95-5.95H30.391v-3.518h13.708C49.32,33.509,53.568,37.755,53.568,42.977L53.568,42.977z M53.568,42.977"/>
<path fill="#2F64DD" d="M42.074,9.294v11.373c0,2.584-2.102,4.686-4.686,4.686H23.394c-2.584,0-4.686-2.102-4.686-4.686V9.294
	c0-2.583,2.102-4.685,4.686-4.685h13.995C39.972,4.609,42.074,6.711,42.074,9.294L42.074,9.294z M42.074,9.294"/>
<path fill="#1E53C9" d="M42.074,9.294v11.373c0,2.584-2.102,4.686-4.686,4.686h-6.998V4.609h6.998
	C39.972,4.609,42.074,6.711,42.074,9.294L42.074,9.294z M42.074,9.294"/>
<path fill="#30D7C0" d="M11.853,45.183H4.685C2.102,45.183,0,47.284,0,49.867v5.448C0,57.898,2.102,60,4.685,60h7.168
	c2.583,0,4.685-2.102,4.685-4.685v-5.448C16.538,47.284,14.437,45.183,11.853,45.183L11.853,45.183z M11.853,45.183"/>
<path fill="#30D7C0" d="M38.66,49.867v5.448c0,2.583-2.103,4.685-4.686,4.685h-7.167c-2.584,0-4.686-2.102-4.686-4.685v-5.448
	c0-2.583,2.102-4.685,4.686-4.685h7.167C36.558,45.183,38.66,47.284,38.66,49.867L38.66,49.867z M38.66,49.867"/>
<path fill="#30D7C0" d="M55.314,45.183h-7.168c-2.583,0-4.685,2.102-4.685,4.685v5.448c0,2.583,2.102,4.685,4.685,4.685h7.168
	C57.898,60,60,57.898,60,55.315v-5.448C60,47.284,57.898,45.183,55.314,45.183L55.314,45.183z M55.314,45.183"/>
<path fill="#1CC3AC" d="M38.66,49.867v5.448c0,2.583-2.103,4.685-4.686,4.685h-3.584V45.183h3.584
	C36.558,45.183,38.66,47.284,38.66,49.867L38.66,49.867z M38.66,49.867"/>
</svg>
