<?xml version="1.0" encoding="utf-8"?>
<!-- Generator: Adobe Illustrator 16.0.0, SVG Export Plug-In . SVG Version: 6.00 Build 0)  -->
<!DOCTYPE svg PUBLIC "-//W3C//DTD SVG 1.1//EN" "http://www.w3.org/Graphics/SVG/1.1/DTD/svg11.dtd">
<svg version="1.1" xmlns="http://www.w3.org/2000/svg" xmlns:xlink="http://www.w3.org/1999/xlink" x="0px" y="0px" width="250px"
	 height="250px" viewBox="0 0 250 250" enable-background="new 0 0 250 250" xml:space="preserve">
<g id="Layer_2">
	<circle fill="#08288E" cx="125" cy="125" r="125"/>
</g>
<g id="Layer_1">
	<path fill="#2FD6C0" d="M120.972,180.695v20.02c0,1.539-1.203,2.805-2.723,2.896c-0.063,0-0.118,0.008-0.182,0.008
		c-1.603,0-2.904-1.303-2.904-2.904v-20.02c0-1.609,1.301-2.903,2.904-2.903c0.063,0,0.119,0,0.182,0
		C119.77,177.893,120.972,179.148,120.972,180.695z"/>
	<path fill="#1CC3AC" d="M120.972,180.695v20.02c0,1.539-1.203,2.805-2.723,2.896v-25.819
		C119.77,177.893,120.972,179.148,120.972,180.695z"/>
	<path fill="#2FD6C0" d="M145.971,206.096c0,4.324-3.887,7.848-8.22,7.848h-39.64c-4.332,0-7.847-3.523-7.847-7.848
		s3.515-7.848,7.847-7.848h39.64C142.084,198.248,145.971,201.771,145.971,206.096z"/>
	<path fill="#1CC3AC" d="M145.599,206.096c0,4.324-3.515,7.848-7.848,7.848H118.25v-15.695h19.501
		C142.084,198.248,145.599,201.771,145.599,206.096z"/>
	<path fill="#B3FFFF" d="M80.861,120.32c-2.472,0-4.475-2.003-4.475-4.475v-16.82c0-2.471,2.002-4.473,4.475-4.473
		c2.471,0,4.473,2.002,4.473,4.473v16.82C85.334,118.317,83.332,120.32,80.861,120.32L80.861,120.32z M80.861,120.32"/>
	<path fill="#51FAFF" d="M160.269,120.32c-2.471,0-4.474-2.003-4.474-4.475v-16.82c0-2.471,2.003-4.473,4.474-4.473
		c2.473,0,4.475,2.002,4.475,4.473v16.82C164.743,118.317,162.741,120.32,160.269,120.32L160.269,120.32z M160.269,120.32"/>
	<path fill="#B3FFFF" d="M80.861,158.347c-2.472,0-4.475-2.001-4.475-4.474v-16.818c0-2.472,2.002-4.475,4.475-4.475
		c2.471,0,4.473,2.004,4.473,4.475v16.818C85.334,156.346,83.332,158.347,80.861,158.347L80.861,158.347z M80.861,158.347"/>
	<path fill="#51FAFF" d="M160.269,154.686c-2.471,0-4.474-2.002-4.474-4.475v-13.306c0-2.472,2.003-4.475,4.474-4.475
		c2.473,0,4.475,2.003,4.475,4.475v13.306C164.743,152.684,162.741,154.686,160.269,154.686L160.269,154.686z M160.269,154.686"/>
	<path fill="#7CC8F0" d="M197.484,88.497c0,8.271-6.73,15.003-15.004,15.003H59.916c-8.273,0-15.006-6.731-15.006-15.003
		c0-8.273,6.732-15.006,15.006-15.006H182.48C190.754,73.491,197.484,80.223,197.484,88.497L197.484,88.497z M197.484,88.497"/>
	<path fill="#4BB9EC" d="M197.484,88.497c0,8.271-6.73,15.003-15.004,15.003h-61.285V73.491h61.285
		C190.754,73.491,197.484,80.223,197.484,88.497L197.484,88.497z M197.484,88.497"/>
	<path fill="#4BB9EC" d="M197.484,126.376c0,8.271-6.73,15.003-15.004,15.003H59.916c-8.273,0-15.006-6.732-15.006-15.003
		c0-8.274,6.732-15.006,15.006-15.006H182.48C190.754,111.37,197.484,118.102,197.484,126.376L197.484,126.376z M197.484,126.376"/>
	<g>
		<defs>
			<polygon id="SVGID_1_" points="44.537,206.615 197.424,206.615 197.797,73.119 44.91,73.119 			"/>
		</defs>
		<clipPath id="SVGID_2_">
			<use xlink:href="#SVGID_1_"  overflow="visible"/>
		</clipPath>
		<path clip-path="url(#SVGID_2_)" fill="#00ABE9" d="M197.484,126.376c0,8.271-6.73,15.003-15.004,15.003h-61.285V111.37h61.285
			C190.754,111.37,197.484,118.102,197.484,126.376L197.484,126.376z M197.484,126.376"/>
		<path clip-path="url(#SVGID_2_)" fill="#00ABE9" d="M155.743,155.768l-13.75,21.84c-0.75,1.191-2.056,1.912-3.461,1.912H59.916
			c-8.373,0-15.16-6.889-15.003-15.293c0.155-8.215,7.04-14.713,15.253-14.713h92.223c0.104,0,0.205,0.002,0.307,0.008
			C155.724,149.727,157.358,153.199,155.743,155.768L155.743,155.768z M155.743,155.768"/>
	</g>
	<path fill="#009AE4" d="M155.743,155.768l-13.75,21.84c-0.75,1.191-2.056,1.912-3.461,1.912h-17.336v-30.006h31.194
		c0.104,0,0.205,0.002,0.307,0.008C155.724,149.727,157.358,153.199,155.743,155.768L155.743,155.768z M155.743,155.768"/>
	<path fill="#1346B7" d="M60.252,168.988c-0.146,0-0.295-0.006-0.438-0.021c-0.145-0.014-0.293-0.034-0.435-0.065
		c-0.143-0.028-0.288-0.065-0.427-0.106c-0.137-0.042-0.276-0.092-0.411-0.15c-0.135-0.053-0.266-0.115-0.395-0.184
		c-0.13-0.068-0.256-0.146-0.379-0.225c-0.122-0.084-0.238-0.17-0.352-0.262s-0.223-0.191-0.328-0.295
		c-0.101-0.105-0.203-0.216-0.296-0.328c-0.091-0.109-0.177-0.23-0.259-0.352c-0.08-0.123-0.155-0.248-0.223-0.377
		c-0.068-0.128-0.131-0.262-0.188-0.396s-0.104-0.273-0.15-0.411c-0.041-0.141-0.077-0.284-0.107-0.427
		c-0.027-0.145-0.05-0.291-0.066-0.433c-0.012-0.147-0.02-0.296-0.02-0.442s0.008-0.292,0.02-0.438
		c0.016-0.146,0.039-0.293,0.066-0.436c0.03-0.145,0.067-0.286,0.107-0.424c0.045-0.141,0.093-0.277,0.15-0.416
		c0.057-0.134,0.12-0.266,0.188-0.393c0.068-0.129,0.143-0.257,0.223-0.375c0.082-0.123,0.167-0.242,0.259-0.357
		c0.093-0.111,0.195-0.223,0.296-0.322c0.105-0.107,0.215-0.205,0.328-0.296c0.113-0.094,0.23-0.183,0.352-0.263
		c0.123-0.081,0.249-0.156,0.376-0.225c0.128-0.068,0.263-0.131,0.398-0.188c0.134-0.057,0.274-0.105,0.411-0.146
		c0.14-0.045,0.284-0.082,0.427-0.109c0.142-0.027,0.29-0.053,0.432-0.063c0.293-0.031,0.59-0.031,0.883,0
		c0.144,0.01,0.29,0.035,0.433,0.063c0.143,0.029,0.287,0.064,0.427,0.109c0.137,0.043,0.277,0.09,0.411,0.146
		c0.136,0.057,0.27,0.119,0.398,0.188s0.253,0.144,0.376,0.225c0.123,0.08,0.239,0.169,0.353,0.263
		c0.112,0.093,0.224,0.188,0.328,0.296c0.1,0.1,0.202,0.211,0.295,0.322c0.092,0.115,0.178,0.234,0.26,0.357
		c0.08,0.117,0.154,0.246,0.223,0.375c0.067,0.127,0.13,0.259,0.188,0.393c0.057,0.139,0.105,0.275,0.15,0.416
		c0.041,0.138,0.077,0.279,0.106,0.424c0.027,0.143,0.051,0.289,0.067,0.436c0.011,0.146,0.02,0.291,0.02,0.438
		s-0.009,0.295-0.02,0.442c-0.016,0.142-0.04,0.288-0.067,0.433c-0.03,0.143-0.065,0.286-0.106,0.427
		c-0.045,0.138-0.093,0.276-0.15,0.411c-0.057,0.135-0.12,0.269-0.188,0.396c-0.069,0.129-0.144,0.254-0.223,0.377
		c-0.082,0.121-0.167,0.242-0.26,0.352c-0.093,0.112-0.195,0.223-0.295,0.328c-0.104,0.104-0.216,0.203-0.328,0.295
		c-0.114,0.092-0.233,0.178-0.353,0.262c-0.123,0.079-0.248,0.156-0.379,0.225c-0.128,0.068-0.259,0.131-0.395,0.184
		c-0.134,0.059-0.274,0.108-0.411,0.15c-0.14,0.041-0.284,0.078-0.427,0.106c-0.143,0.031-0.289,0.052-0.433,0.065
		C60.548,168.984,60.398,168.988,60.252,168.988L60.252,168.988z M60.252,168.988"/>
	<path fill="#1346B7" d="M60.252,130.812c-0.146,0-0.295-0.006-0.441-0.021c-0.142-0.016-0.29-0.036-0.432-0.067
		c-0.143-0.028-0.288-0.065-0.427-0.106c-0.137-0.042-0.276-0.093-0.411-0.149c-0.135-0.054-0.266-0.116-0.398-0.186
		c-0.127-0.067-0.253-0.146-0.376-0.226c-0.119-0.081-0.238-0.167-0.352-0.259c-0.113-0.093-0.223-0.192-0.328-0.296
		c-0.101-0.105-0.203-0.216-0.296-0.328c-0.091-0.113-0.177-0.229-0.259-0.353c-0.08-0.122-0.155-0.247-0.223-0.376
		c-0.068-0.128-0.131-0.263-0.188-0.397c-0.057-0.134-0.104-0.274-0.15-0.41c-0.041-0.142-0.077-0.284-0.107-0.427
		c-0.027-0.145-0.05-0.29-0.066-0.434c-0.015-0.146-0.02-0.295-0.02-0.441c0-0.145,0.005-0.292,0.02-0.437
		c0.016-0.147,0.039-0.294,0.066-0.436c0.03-0.145,0.067-0.287,0.107-0.424c0.045-0.14,0.093-0.277,0.15-0.412
		c0.057-0.137,0.12-0.269,0.188-0.397s0.143-0.256,0.223-0.375c0.082-0.123,0.167-0.242,0.259-0.356
		c0.093-0.113,0.195-0.224,0.296-0.325c0.105-0.104,0.215-0.203,0.328-0.295c0.113-0.092,0.233-0.182,0.352-0.262
		c0.123-0.08,0.249-0.156,0.376-0.224c0.132-0.069,0.263-0.131,0.398-0.188c0.134-0.058,0.274-0.104,0.411-0.146
		c0.14-0.044,0.284-0.08,0.427-0.11c0.142-0.026,0.29-0.051,0.432-0.063c0.293-0.029,0.59-0.029,0.88,0
		c0.146,0.011,0.293,0.036,0.436,0.063c0.143,0.031,0.287,0.066,0.424,0.11c0.139,0.043,0.279,0.089,0.413,0.146
		c0.136,0.057,0.267,0.119,0.395,0.188c0.131,0.068,0.256,0.144,0.379,0.224c0.119,0.08,0.239,0.17,0.353,0.262
		c0.112,0.093,0.224,0.191,0.328,0.295c0.1,0.101,0.199,0.211,0.295,0.325c0.092,0.114,0.178,0.234,0.26,0.356
		c0.08,0.118,0.154,0.247,0.223,0.375c0.067,0.128,0.13,0.26,0.188,0.397c0.057,0.134,0.105,0.272,0.15,0.412
		c0.041,0.138,0.077,0.28,0.106,0.424c0.027,0.142,0.051,0.289,0.067,0.436c0.011,0.145,0.02,0.291,0.02,0.437
		s-0.009,0.295-0.02,0.441c-0.016,0.144-0.04,0.289-0.067,0.434c-0.03,0.143-0.065,0.285-0.106,0.427
		c-0.045,0.136-0.093,0.276-0.15,0.41c-0.057,0.135-0.12,0.27-0.188,0.397c-0.069,0.129-0.144,0.254-0.223,0.376
		c-0.082,0.123-0.167,0.239-0.26,0.353c-0.096,0.112-0.195,0.223-0.295,0.328c-0.104,0.104-0.216,0.203-0.328,0.296
		c-0.114,0.092-0.233,0.178-0.353,0.259c-0.123,0.08-0.248,0.158-0.379,0.226c-0.128,0.069-0.259,0.132-0.395,0.186
		c-0.134,0.057-0.274,0.107-0.413,0.149c-0.137,0.041-0.281,0.078-0.424,0.106c-0.143,0.031-0.289,0.052-0.436,0.067
		C60.548,130.806,60.398,130.812,60.252,130.812L60.252,130.812z M60.252,130.812"/>
	<path fill="#1346B7" d="M182.242,130.812c-0.146,0-0.296-0.006-0.438-0.021c-0.147-0.016-0.292-0.036-0.437-0.067
		c-0.142-0.028-0.285-0.065-0.422-0.106c-0.141-0.042-0.281-0.093-0.415-0.149c-0.134-0.054-0.265-0.116-0.394-0.186
		c-0.131-0.067-0.256-0.146-0.379-0.226c-0.119-0.081-0.239-0.167-0.352-0.259c-0.115-0.093-0.226-0.192-0.328-0.296
		c-0.102-0.105-0.203-0.216-0.297-0.328c-0.093-0.11-0.179-0.229-0.258-0.353c-0.083-0.122-0.156-0.247-0.226-0.376
		c-0.068-0.128-0.131-0.263-0.188-0.397c-0.056-0.134-0.104-0.274-0.147-0.41c-0.042-0.142-0.079-0.284-0.108-0.427
		c-0.026-0.145-0.05-0.29-0.064-0.434c-0.013-0.146-0.021-0.295-0.021-0.441c0-0.145,0.008-0.292,0.021-0.437
		c0.015-0.147,0.038-0.294,0.064-0.436c0.029-0.145,0.066-0.287,0.108-0.424c0.044-0.14,0.092-0.277,0.147-0.412
		c0.058-0.137,0.12-0.269,0.188-0.397c0.069-0.128,0.143-0.256,0.226-0.375c0.079-0.123,0.165-0.242,0.258-0.356
		c0.094-0.113,0.195-0.224,0.297-0.325c0.103-0.104,0.213-0.203,0.328-0.295c0.112-0.092,0.229-0.182,0.352-0.262
		s0.248-0.156,0.375-0.224c0.133-0.069,0.264-0.131,0.397-0.188c0.134-0.058,0.274-0.104,0.412-0.146
		c0.14-0.044,0.283-0.08,0.425-0.11c0.145-0.026,0.289-0.051,0.437-0.063c0.29-0.029,0.587-0.029,0.879,0
		c0.146,0.011,0.29,0.036,0.434,0.063c0.143,0.031,0.286,0.066,0.426,0.11c0.138,0.043,0.278,0.089,0.412,0.146
		c0.134,0.057,0.268,0.119,0.397,0.188c0.127,0.068,0.252,0.144,0.375,0.224c0.119,0.08,0.239,0.17,0.352,0.262
		c0.115,0.093,0.226,0.191,0.328,0.295c0.102,0.101,0.204,0.211,0.297,0.325c0.091,0.114,0.179,0.234,0.258,0.356
		c0.08,0.118,0.156,0.247,0.226,0.375c0.068,0.128,0.131,0.26,0.188,0.397c0.056,0.134,0.102,0.272,0.148,0.412
		c0.041,0.138,0.077,0.28,0.107,0.424c0.025,0.142,0.05,0.289,0.063,0.436c0.014,0.145,0.022,0.291,0.022,0.437
		s-0.009,0.295-0.022,0.441c-0.013,0.144-0.037,0.289-0.063,0.434c-0.03,0.143-0.066,0.285-0.107,0.427
		c-0.047,0.136-0.093,0.276-0.148,0.41c-0.058,0.135-0.12,0.27-0.188,0.397c-0.069,0.129-0.146,0.254-0.226,0.376
		c-0.079,0.123-0.167,0.242-0.258,0.353c-0.093,0.112-0.195,0.223-0.297,0.328c-0.103,0.104-0.213,0.203-0.328,0.296
		c-0.112,0.092-0.232,0.178-0.352,0.259c-0.123,0.08-0.248,0.158-0.375,0.226c-0.13,0.069-0.264,0.132-0.397,0.186
		c-0.134,0.057-0.274,0.107-0.412,0.149c-0.14,0.041-0.283,0.078-0.426,0.106c-0.144,0.031-0.288,0.052-0.434,0.067
		C182.538,130.806,182.389,130.812,182.242,130.812L182.242,130.812z M182.242,130.812"/>
	<path fill="#1346B7" d="M60.252,92.932c-0.146,0-0.295-0.006-0.441-0.02c-0.142-0.017-0.29-0.037-0.432-0.067
		c-0.143-0.03-0.288-0.065-0.427-0.106c-0.137-0.042-0.276-0.094-0.411-0.15c-0.135-0.054-0.266-0.117-0.398-0.184
		c-0.127-0.07-0.253-0.147-0.376-0.227c-0.122-0.082-0.238-0.167-0.352-0.26c-0.113-0.093-0.223-0.193-0.328-0.295
		c-0.101-0.105-0.203-0.216-0.296-0.328c-0.091-0.114-0.177-0.23-0.259-0.354c-0.08-0.122-0.155-0.248-0.223-0.375
		c-0.068-0.128-0.131-0.263-0.188-0.398c-0.057-0.134-0.104-0.273-0.15-0.41c-0.041-0.142-0.077-0.284-0.107-0.427
		c-0.027-0.142-0.05-0.289-0.066-0.432c-0.012-0.146-0.02-0.296-0.02-0.441s0.008-0.293,0.02-0.438
		c0.016-0.147,0.039-0.293,0.066-0.436c0.03-0.145,0.067-0.284,0.107-0.424c0.045-0.139,0.093-0.278,0.15-0.413
		c0.057-0.136,0.12-0.267,0.188-0.396c0.068-0.128,0.143-0.257,0.223-0.375c0.082-0.123,0.167-0.242,0.259-0.355
		c0.093-0.113,0.195-0.223,0.296-0.325c0.105-0.105,0.215-0.203,0.328-0.296c0.113-0.092,0.23-0.182,0.352-0.262
		c0.123-0.081,0.249-0.156,0.376-0.224c0.132-0.069,0.263-0.131,0.398-0.188c0.134-0.056,0.274-0.103,0.411-0.146
		c0.14-0.045,0.284-0.08,0.427-0.11c0.142-0.026,0.29-0.051,0.432-0.063c0.293-0.029,0.59-0.029,0.883,0
		c0.144,0.012,0.29,0.036,0.433,0.063c0.143,0.03,0.287,0.065,0.427,0.11c0.137,0.042,0.277,0.089,0.411,0.146
		c0.136,0.057,0.267,0.12,0.398,0.188c0.128,0.068,0.253,0.144,0.376,0.224s0.239,0.17,0.353,0.262
		c0.112,0.093,0.224,0.191,0.328,0.296c0.1,0.102,0.202,0.211,0.295,0.325c0.092,0.113,0.178,0.233,0.26,0.355
		c0.08,0.119,0.154,0.248,0.223,0.375c0.067,0.128,0.13,0.26,0.188,0.396c0.057,0.135,0.105,0.273,0.15,0.413
		c0.041,0.141,0.077,0.28,0.106,0.424c0.027,0.143,0.051,0.288,0.067,0.436c0.011,0.146,0.02,0.291,0.02,0.438
		c0,0.146-0.009,0.295-0.02,0.441c-0.016,0.143-0.04,0.29-0.067,0.432c-0.03,0.143-0.065,0.286-0.106,0.427
		c-0.045,0.137-0.093,0.276-0.15,0.41c-0.057,0.136-0.12,0.271-0.188,0.398c-0.069,0.127-0.144,0.253-0.223,0.375
		c-0.082,0.123-0.167,0.239-0.26,0.354c-0.093,0.112-0.195,0.223-0.295,0.328c-0.104,0.102-0.216,0.202-0.328,0.295
		c-0.114,0.092-0.233,0.179-0.353,0.26c-0.123,0.079-0.248,0.157-0.379,0.227c-0.128,0.067-0.259,0.129-0.395,0.184
		c-0.134,0.057-0.274,0.108-0.413,0.15c-0.137,0.042-0.281,0.077-0.424,0.106c-0.143,0.03-0.289,0.051-0.433,0.067
		C60.548,92.926,60.398,92.932,60.252,92.932L60.252,92.932z M60.252,92.932"/>
	<path fill="#1346B7" d="M182.242,92.932c-0.146,0-0.296-0.006-0.442-0.02c-0.144-0.017-0.288-0.037-0.433-0.067
		c-0.142-0.03-0.285-0.065-0.425-0.106c-0.138-0.042-0.278-0.094-0.412-0.15c-0.134-0.054-0.265-0.117-0.394-0.184
		c-0.131-0.07-0.256-0.147-0.379-0.227c-0.119-0.082-0.239-0.167-0.352-0.26c-0.115-0.093-0.226-0.193-0.328-0.295
		c-0.102-0.105-0.203-0.216-0.297-0.328c-0.093-0.114-0.179-0.23-0.258-0.354c-0.083-0.122-0.156-0.248-0.226-0.375
		c-0.068-0.128-0.131-0.263-0.188-0.398c-0.056-0.134-0.104-0.273-0.147-0.41c-0.042-0.142-0.079-0.284-0.108-0.427
		c-0.026-0.142-0.05-0.289-0.064-0.432c-0.016-0.146-0.021-0.296-0.021-0.441s0.005-0.293,0.021-0.438
		c0.015-0.147,0.038-0.293,0.064-0.436c0.029-0.145,0.066-0.284,0.108-0.424c0.044-0.139,0.092-0.278,0.147-0.413
		c0.058-0.136,0.12-0.267,0.188-0.396c0.069-0.128,0.143-0.257,0.226-0.375c0.079-0.123,0.165-0.242,0.258-0.355
		c0.094-0.113,0.195-0.223,0.297-0.325c0.103-0.105,0.213-0.203,0.328-0.296c0.112-0.092,0.232-0.182,0.352-0.262
		c0.123-0.081,0.248-0.156,0.379-0.224c0.129-0.069,0.26-0.131,0.394-0.188c0.134-0.056,0.274-0.103,0.412-0.146
		c0.14-0.045,0.283-0.08,0.425-0.11c0.145-0.026,0.289-0.051,0.433-0.063c0.294-0.029,0.591-0.029,0.881,0
		c0.147,0.012,0.292,0.036,0.437,0.063c0.142,0.03,0.285,0.065,0.425,0.11c0.138,0.042,0.278,0.089,0.412,0.146
		c0.134,0.057,0.265,0.12,0.394,0.188c0.133,0.068,0.258,0.144,0.38,0.224c0.118,0.081,0.238,0.17,0.351,0.262
		c0.115,0.093,0.226,0.191,0.328,0.296c0.102,0.102,0.204,0.211,0.297,0.325c0.094,0.113,0.179,0.233,0.258,0.355
		c0.083,0.119,0.156,0.248,0.226,0.375c0.068,0.128,0.131,0.26,0.188,0.396c0.056,0.135,0.104,0.273,0.148,0.413
		c0.041,0.141,0.078,0.28,0.107,0.424c0.026,0.143,0.05,0.288,0.064,0.436c0.016,0.146,0.023,0.291,0.023,0.438
		c0,0.146-0.008,0.295-0.023,0.441c-0.015,0.143-0.038,0.29-0.064,0.432c-0.029,0.143-0.066,0.286-0.107,0.427
		c-0.045,0.137-0.093,0.276-0.148,0.41c-0.058,0.136-0.12,0.271-0.188,0.398c-0.069,0.127-0.143,0.253-0.226,0.375
		c-0.079,0.123-0.164,0.239-0.258,0.354c-0.093,0.112-0.195,0.223-0.297,0.328c-0.103,0.102-0.213,0.202-0.328,0.295
		c-0.112,0.092-0.232,0.179-0.351,0.26c-0.122,0.079-0.247,0.157-0.38,0.227c-0.129,0.067-0.26,0.129-0.394,0.184
		c-0.134,0.057-0.274,0.108-0.412,0.15c-0.14,0.042-0.283,0.077-0.425,0.106c-0.145,0.03-0.289,0.051-0.437,0.067
		C182.538,92.926,182.389,92.932,182.242,92.932L182.242,92.932z M182.242,92.932"/>
	<circle fill="#FFFFFF" cx="171.559" cy="174.355" r="32.979"/>
	<path fill="#28DDC4" d="M138.715,174.254c0,13.01,7.564,24.26,18.532,29.588l-15.688-42.967
		C139.736,164.963,138.715,169.49,138.715,174.254z M193.788,172.597c0-4.063-1.464-6.876-2.717-9.065
		c-1.662-2.709-3.225-5.002-3.225-7.711c0-3.023,2.288-5.838,5.521-5.838c0.144,0,0.285,0.02,0.426,0.025
		c-5.849-5.355-13.646-8.629-22.203-8.629c-11.488,0-21.588,5.895-27.47,14.814c0.771,0.025,1.504,0.043,2.118,0.043
		c3.438,0,8.762-0.416,8.762-0.416c1.771-0.105,1.98,2.498,0.211,2.709c0,0-1.781,0.207-3.766,0.314l11.977,35.611l7.193-21.578
		l-5.12-14.033c-1.772-0.107-3.448-0.316-3.448-0.316c-1.771-0.107-1.565-2.813,0.207-2.707c0,0,5.425,0.416,8.659,0.416
		c3.438,0,8.76-0.416,8.76-0.416c1.773-0.105,1.984,2.498,0.211,2.707c0,0-1.783,0.209-3.76,0.316l11.879,35.334l3.28-10.953
		C192.953,178.948,193.788,175.409,193.788,172.597z M172.169,177.131l-9.864,28.662c2.946,0.867,6.063,1.336,9.286,1.336
		c3.832,0,7.5-0.654,10.921-1.861c-0.089-0.141-0.174-0.289-0.238-0.451L172.169,177.131z M200.439,158.484
		c0.143,1.047,0.225,2.168,0.225,3.378c0,3.337-0.628,7.086-2.503,11.774l-10.044,29.037c9.78-5.703,16.349-16.291,16.349-28.42
		C204.466,168.539,203.007,163.164,200.439,158.484z"/>
</g>
</svg>
