<?xml version="1.0" encoding="utf-8"?>
<!-- Generator: Adobe Illustrator 16.0.0, SVG Export Plug-In . SVG Version: 6.00 Build 0)  -->
<!DOCTYPE svg PUBLIC "-//W3C//DTD SVG 1.1//EN" "http://www.w3.org/Graphics/SVG/1.1/DTD/svg11.dtd">
<svg version="1.1" id="Layer_1" xmlns="http://www.w3.org/2000/svg" xmlns:xlink="http://www.w3.org/1999/xlink" x="0px" y="0px"
	 width="60px" height="60px" viewBox="0 0 60 60" enable-background="new 0 0 60 60" xml:space="preserve">
<path fill="#B3FFFF" d="M13.604,27.238c-0.929,0-1.681-0.752-1.681-1.682v-6.32c0-0.928,0.752-1.681,1.681-1.681
	s1.681,0.753,1.681,1.681v6.32C15.285,26.486,14.533,27.238,13.604,27.238L13.604,27.238z M13.604,27.238"/>
<path fill="#51FAFF" d="M43.443,27.238c-0.928,0-1.681-0.752-1.681-1.682v-6.32c0-0.928,0.753-1.681,1.681-1.681
	c0.929,0,1.682,0.753,1.682,1.681v6.32C45.125,26.486,44.372,27.238,43.443,27.238L43.443,27.238z M43.443,27.238"/>
<path fill="#B3FFFF" d="M13.604,41.528c-0.929,0-1.681-0.752-1.681-1.681v-6.32c0-0.929,0.752-1.682,1.681-1.682
	s1.681,0.753,1.681,1.682v6.32C15.285,40.776,14.533,41.528,13.604,41.528L13.604,41.528z M13.604,41.528"/>
<path fill="#51FAFF" d="M43.443,40.152c-0.928,0-1.681-0.753-1.681-1.682v-5c0-0.929,0.753-1.681,1.681-1.681
	c0.929,0,1.682,0.752,1.682,1.681v5C45.125,39.399,44.372,40.152,43.443,40.152L43.443,40.152z M43.443,40.152"/>
<path fill="#7CC8F0" d="M57.429,15.28c0,3.108-2.529,5.638-5.639,5.638H5.734c-3.109,0-5.639-2.529-5.639-5.638
	c0-3.109,2.53-5.639,5.639-5.639H51.79C54.899,9.642,57.429,12.171,57.429,15.28L57.429,15.28z M57.429,15.28"/>
<path fill="#4BB9EC" d="M57.429,15.28c0,3.108-2.529,5.638-5.639,5.638H28.761V9.642H51.79C54.899,9.642,57.429,12.171,57.429,15.28
	L57.429,15.28z M57.429,15.28"/>
<path fill="#4BB9EC" d="M57.429,29.515c0,3.107-2.529,5.638-5.639,5.638H5.734c-3.109,0-5.639-2.53-5.639-5.638
	c0-3.109,2.53-5.639,5.639-5.639H51.79C54.899,23.876,57.429,26.405,57.429,29.515L57.429,29.515z M57.429,29.515"/>
<g>
	<defs>
		<rect id="SVGID_1_" x="0.095" y="9.502" width="57.451" height="50.164"/>
	</defs>
	<clipPath id="SVGID_2_">
		<use xlink:href="#SVGID_1_"  overflow="visible"/>
	</clipPath>
	<path clip-path="url(#SVGID_2_)" fill="#00ABE9" d="M57.429,29.515c0,3.107-2.529,5.638-5.639,5.638H28.761V23.876H51.79
		C54.899,23.876,57.429,26.405,57.429,29.515L57.429,29.515z M57.429,29.515"/>
	<path clip-path="url(#SVGID_2_)" fill="#00ABE9" d="M41.743,40.559l-5.167,8.208c-0.281,0.447-0.772,0.719-1.301,0.719H5.734
		c-3.146,0-5.697-2.59-5.638-5.748c0.059-3.086,2.646-5.528,5.732-5.528h34.656c0.038,0,0.077,0.001,0.115,0.003
		C41.736,38.289,42.35,39.594,41.743,40.559L41.743,40.559z M41.743,40.559"/>
</g>
<path fill="#009AE4" d="M41.743,40.559l-5.167,8.208c-0.281,0.447-0.772,0.719-1.301,0.719h-6.514V38.209h11.722
	c0.038,0,0.077,0.001,0.115,0.003C41.736,38.289,42.35,39.594,41.743,40.559L41.743,40.559z M41.743,40.559"/>
<path fill="#1346B7" d="M5.86,45.527c-0.055,0-0.111-0.003-0.165-0.008c-0.055-0.006-0.11-0.014-0.164-0.024
	c-0.054-0.012-0.108-0.025-0.161-0.04c-0.051-0.017-0.104-0.035-0.154-0.057c-0.051-0.021-0.1-0.044-0.148-0.069
	c-0.049-0.026-0.097-0.055-0.143-0.085s-0.09-0.063-0.132-0.098c-0.042-0.035-0.084-0.072-0.124-0.111
	c-0.038-0.039-0.076-0.081-0.111-0.123c-0.035-0.041-0.067-0.086-0.098-0.133c-0.03-0.046-0.058-0.093-0.083-0.141
	c-0.026-0.049-0.049-0.1-0.071-0.149c-0.021-0.051-0.039-0.103-0.056-0.154c-0.015-0.053-0.029-0.106-0.041-0.16
	c-0.01-0.055-0.019-0.109-0.025-0.163c-0.004-0.056-0.007-0.111-0.007-0.166s0.003-0.109,0.007-0.164
	c0.006-0.056,0.015-0.11,0.025-0.164c0.011-0.054,0.025-0.107,0.041-0.159c0.017-0.053,0.035-0.104,0.056-0.156
	c0.021-0.05,0.045-0.1,0.071-0.147s0.054-0.097,0.083-0.142c0.031-0.046,0.063-0.091,0.098-0.133
	c0.035-0.043,0.073-0.085,0.111-0.122c0.04-0.04,0.081-0.077,0.124-0.111c0.042-0.035,0.086-0.068,0.132-0.099
	c0.046-0.031,0.093-0.059,0.141-0.084c0.048-0.026,0.099-0.05,0.149-0.071c0.05-0.021,0.103-0.039,0.154-0.055
	c0.053-0.017,0.107-0.03,0.161-0.041s0.109-0.02,0.163-0.024c0.11-0.011,0.222-0.011,0.332,0c0.054,0.005,0.109,0.014,0.163,0.024
	s0.108,0.024,0.161,0.041c0.051,0.016,0.104,0.033,0.154,0.055c0.051,0.021,0.101,0.045,0.149,0.071
	c0.048,0.025,0.095,0.053,0.141,0.084c0.046,0.03,0.09,0.063,0.132,0.099s0.084,0.071,0.123,0.111
	c0.038,0.037,0.076,0.079,0.111,0.122c0.035,0.042,0.067,0.087,0.098,0.133c0.03,0.045,0.058,0.094,0.083,0.142
	s0.049,0.098,0.071,0.147c0.021,0.052,0.039,0.104,0.056,0.156c0.015,0.052,0.029,0.105,0.04,0.159
	c0.01,0.054,0.019,0.108,0.025,0.164c0.004,0.055,0.007,0.109,0.007,0.164s-0.003,0.11-0.007,0.166
	c-0.006,0.054-0.015,0.108-0.025,0.163c-0.011,0.054-0.025,0.107-0.04,0.16c-0.017,0.052-0.035,0.104-0.056,0.154
	c-0.021,0.05-0.045,0.101-0.071,0.149c-0.026,0.048-0.054,0.095-0.083,0.141c-0.031,0.047-0.063,0.092-0.098,0.133
	c-0.035,0.042-0.073,0.084-0.111,0.123c-0.039,0.039-0.081,0.076-0.123,0.111c-0.042,0.034-0.087,0.067-0.132,0.098
	c-0.046,0.03-0.093,0.059-0.143,0.085c-0.048,0.025-0.097,0.049-0.148,0.069c-0.05,0.021-0.103,0.04-0.154,0.057
	c-0.053,0.015-0.107,0.028-0.161,0.04c-0.054,0.011-0.109,0.019-0.163,0.024C5.971,45.525,5.915,45.527,5.86,45.527L5.86,45.527z
	 M5.86,45.527"/>
<path fill="#1346B7" d="M5.86,31.181c-0.055,0-0.111-0.002-0.166-0.007c-0.054-0.006-0.109-0.014-0.163-0.025
	c-0.054-0.011-0.108-0.024-0.161-0.04c-0.051-0.016-0.104-0.035-0.154-0.057c-0.051-0.021-0.1-0.044-0.149-0.069
	c-0.048-0.025-0.095-0.055-0.141-0.085c-0.045-0.03-0.09-0.063-0.132-0.098c-0.042-0.034-0.084-0.072-0.124-0.11
	c-0.038-0.04-0.076-0.081-0.111-0.123c-0.035-0.043-0.067-0.087-0.098-0.133c-0.03-0.046-0.058-0.094-0.083-0.142
	s-0.049-0.099-0.071-0.149c-0.021-0.05-0.039-0.103-0.056-0.154c-0.015-0.053-0.029-0.106-0.041-0.16
	c-0.01-0.055-0.019-0.109-0.025-0.163c-0.005-0.055-0.007-0.11-0.007-0.165s0.002-0.11,0.007-0.165
	c0.006-0.056,0.015-0.11,0.025-0.164c0.011-0.054,0.025-0.107,0.041-0.159c0.017-0.053,0.035-0.104,0.056-0.154
	c0.021-0.052,0.045-0.101,0.071-0.149c0.026-0.048,0.054-0.097,0.083-0.141c0.031-0.047,0.063-0.091,0.098-0.134
	c0.035-0.043,0.073-0.085,0.111-0.122c0.04-0.039,0.081-0.076,0.124-0.111c0.042-0.034,0.087-0.068,0.132-0.099
	c0.046-0.03,0.093-0.059,0.141-0.084c0.049-0.025,0.099-0.05,0.149-0.071c0.05-0.021,0.103-0.038,0.154-0.054
	c0.053-0.018,0.107-0.03,0.161-0.042c0.054-0.01,0.109-0.02,0.163-0.023c0.11-0.011,0.222-0.011,0.331,0
	c0.055,0.004,0.11,0.014,0.164,0.023c0.054,0.012,0.108,0.024,0.159,0.042c0.053,0.016,0.105,0.033,0.156,0.054
	c0.051,0.021,0.1,0.046,0.148,0.071c0.049,0.025,0.097,0.054,0.143,0.084c0.045,0.03,0.09,0.064,0.132,0.099
	c0.042,0.035,0.084,0.072,0.123,0.111c0.038,0.037,0.075,0.079,0.111,0.122c0.035,0.043,0.067,0.087,0.098,0.134
	c0.03,0.044,0.058,0.093,0.083,0.141c0.026,0.049,0.049,0.098,0.071,0.149c0.021,0.05,0.039,0.102,0.056,0.154
	c0.015,0.052,0.029,0.105,0.04,0.159c0.01,0.054,0.019,0.108,0.025,0.164c0.004,0.055,0.007,0.109,0.007,0.165
	c0,0.055-0.003,0.11-0.007,0.165c-0.006,0.054-0.015,0.108-0.025,0.163c-0.011,0.054-0.025,0.107-0.04,0.16
	c-0.017,0.052-0.035,0.104-0.056,0.154c-0.021,0.051-0.045,0.102-0.071,0.149s-0.054,0.096-0.083,0.142
	c-0.031,0.046-0.063,0.09-0.098,0.133c-0.036,0.042-0.073,0.083-0.111,0.123c-0.039,0.039-0.081,0.076-0.123,0.11
	c-0.042,0.035-0.087,0.067-0.132,0.098c-0.046,0.03-0.093,0.06-0.143,0.085c-0.048,0.025-0.097,0.049-0.148,0.069
	c-0.05,0.021-0.103,0.041-0.156,0.057c-0.051,0.016-0.105,0.029-0.159,0.04c-0.054,0.012-0.109,0.02-0.164,0.025
	C5.971,31.179,5.915,31.181,5.86,31.181L5.86,31.181z M5.86,31.181"/>
<path fill="#1346B7" d="M51.701,31.181c-0.056,0-0.111-0.002-0.165-0.007c-0.055-0.006-0.109-0.014-0.164-0.025
	c-0.054-0.011-0.107-0.024-0.158-0.04c-0.054-0.016-0.106-0.035-0.156-0.057c-0.051-0.021-0.1-0.044-0.147-0.069
	c-0.05-0.025-0.097-0.055-0.143-0.085c-0.045-0.03-0.09-0.063-0.133-0.098c-0.043-0.034-0.084-0.072-0.123-0.11
	c-0.038-0.04-0.076-0.081-0.111-0.123s-0.067-0.087-0.097-0.133c-0.031-0.046-0.059-0.094-0.085-0.142
	c-0.025-0.048-0.049-0.099-0.07-0.149c-0.021-0.05-0.039-0.103-0.056-0.154c-0.017-0.053-0.03-0.106-0.041-0.16
	c-0.01-0.055-0.019-0.109-0.024-0.163c-0.005-0.055-0.008-0.11-0.008-0.165s0.003-0.11,0.008-0.165
	c0.006-0.056,0.015-0.11,0.024-0.164c0.011-0.054,0.024-0.107,0.041-0.159c0.017-0.053,0.034-0.104,0.056-0.154
	c0.021-0.052,0.045-0.101,0.07-0.149c0.026-0.048,0.054-0.097,0.085-0.141c0.029-0.047,0.062-0.091,0.097-0.134
	s0.073-0.085,0.111-0.122c0.039-0.039,0.08-0.076,0.123-0.111c0.043-0.034,0.087-0.068,0.133-0.099s0.093-0.059,0.141-0.084
	c0.05-0.025,0.099-0.05,0.149-0.071c0.05-0.021,0.103-0.038,0.154-0.054c0.053-0.018,0.106-0.03,0.16-0.042
	c0.055-0.01,0.109-0.02,0.164-0.023c0.108-0.011,0.221-0.011,0.33,0c0.055,0.004,0.109,0.014,0.163,0.023
	c0.054,0.012,0.107,0.024,0.16,0.042c0.052,0.016,0.104,0.033,0.155,0.054c0.05,0.021,0.101,0.046,0.148,0.071
	s0.096,0.054,0.142,0.084c0.045,0.03,0.09,0.064,0.132,0.099c0.043,0.035,0.085,0.072,0.123,0.111
	c0.039,0.037,0.077,0.079,0.111,0.122c0.035,0.043,0.067,0.087,0.098,0.134c0.03,0.044,0.059,0.093,0.084,0.141
	c0.026,0.049,0.05,0.098,0.071,0.149c0.021,0.05,0.038,0.102,0.056,0.154c0.016,0.052,0.028,0.105,0.04,0.159
	c0.01,0.054,0.02,0.108,0.023,0.164c0.006,0.055,0.009,0.109,0.009,0.165c0,0.055-0.003,0.11-0.009,0.165
	c-0.004,0.054-0.014,0.108-0.023,0.163c-0.012,0.054-0.024,0.107-0.04,0.16c-0.018,0.052-0.035,0.104-0.056,0.154
	c-0.021,0.051-0.045,0.102-0.071,0.149c-0.025,0.048-0.054,0.096-0.084,0.142s-0.063,0.091-0.098,0.133
	c-0.034,0.042-0.072,0.083-0.111,0.123c-0.038,0.039-0.08,0.076-0.123,0.11c-0.042,0.035-0.087,0.067-0.132,0.098
	c-0.046,0.03-0.094,0.06-0.142,0.085s-0.099,0.049-0.148,0.069c-0.051,0.021-0.104,0.041-0.155,0.057
	c-0.053,0.016-0.106,0.029-0.16,0.04c-0.054,0.012-0.108,0.02-0.163,0.025C51.812,31.179,51.756,31.181,51.701,31.181L51.701,31.181
	z M51.701,31.181"/>
<path fill="#1346B7" d="M5.86,16.947c-0.055,0-0.111-0.002-0.166-0.008c-0.054-0.006-0.109-0.014-0.163-0.025
	c-0.054-0.011-0.108-0.024-0.161-0.04c-0.051-0.016-0.104-0.035-0.154-0.057c-0.051-0.02-0.1-0.043-0.149-0.068
	c-0.048-0.026-0.095-0.056-0.141-0.086s-0.09-0.063-0.132-0.097c-0.042-0.035-0.084-0.073-0.124-0.111
	c-0.038-0.04-0.076-0.081-0.111-0.123c-0.035-0.043-0.067-0.087-0.098-0.133c-0.03-0.046-0.058-0.093-0.083-0.141
	c-0.026-0.049-0.049-0.1-0.071-0.15c-0.021-0.05-0.039-0.103-0.056-0.154c-0.015-0.053-0.029-0.106-0.041-0.16
	c-0.01-0.054-0.019-0.108-0.025-0.162c-0.004-0.055-0.007-0.111-0.007-0.166s0.003-0.11,0.007-0.165
	c0.006-0.055,0.015-0.11,0.025-0.163c0.011-0.055,0.025-0.107,0.041-0.16c0.017-0.052,0.035-0.104,0.056-0.154
	c0.021-0.052,0.045-0.101,0.071-0.149c0.026-0.048,0.054-0.096,0.083-0.141c0.031-0.046,0.063-0.091,0.098-0.134
	c0.035-0.042,0.073-0.084,0.111-0.122c0.04-0.039,0.081-0.076,0.124-0.111c0.042-0.034,0.086-0.068,0.132-0.099
	s0.093-0.059,0.141-0.084c0.049-0.025,0.099-0.049,0.149-0.07c0.05-0.021,0.103-0.039,0.154-0.055
	c0.053-0.018,0.107-0.03,0.161-0.042c0.054-0.01,0.109-0.02,0.163-0.023c0.11-0.011,0.222-0.011,0.332,0
	c0.054,0.004,0.109,0.014,0.163,0.023c0.054,0.012,0.108,0.024,0.161,0.042c0.051,0.016,0.104,0.033,0.154,0.055
	c0.051,0.021,0.1,0.045,0.149,0.07c0.048,0.025,0.095,0.054,0.141,0.084s0.09,0.064,0.132,0.099
	c0.042,0.035,0.084,0.072,0.123,0.111c0.038,0.038,0.076,0.079,0.111,0.122c0.035,0.043,0.067,0.088,0.098,0.134
	c0.03,0.045,0.058,0.093,0.083,0.141c0.026,0.049,0.049,0.098,0.071,0.149c0.021,0.05,0.039,0.103,0.056,0.154
	c0.015,0.053,0.029,0.105,0.04,0.16c0.01,0.053,0.019,0.108,0.025,0.163c0.004,0.055,0.007,0.109,0.007,0.165
	c0,0.055-0.003,0.111-0.007,0.166c-0.006,0.054-0.015,0.108-0.025,0.162c-0.011,0.054-0.025,0.107-0.04,0.16
	c-0.017,0.052-0.035,0.104-0.056,0.154c-0.021,0.051-0.045,0.102-0.071,0.15c-0.026,0.048-0.054,0.095-0.083,0.141
	c-0.031,0.046-0.063,0.09-0.098,0.133c-0.035,0.042-0.073,0.083-0.111,0.123c-0.039,0.038-0.081,0.076-0.123,0.111
	c-0.042,0.034-0.087,0.067-0.132,0.097c-0.046,0.03-0.093,0.06-0.143,0.086c-0.048,0.025-0.097,0.049-0.148,0.068
	c-0.05,0.021-0.103,0.041-0.156,0.057c-0.051,0.016-0.105,0.029-0.159,0.04c-0.054,0.012-0.109,0.02-0.163,0.025
	C5.971,16.945,5.915,16.947,5.86,16.947L5.86,16.947z M5.86,16.947"/>
<path fill="#1346B7" d="M51.701,16.947c-0.056,0-0.111-0.002-0.166-0.008c-0.054-0.006-0.108-0.014-0.163-0.025
	c-0.054-0.011-0.107-0.024-0.16-0.04c-0.052-0.016-0.104-0.035-0.154-0.057c-0.051-0.02-0.1-0.043-0.147-0.068
	c-0.05-0.026-0.097-0.056-0.143-0.086c-0.045-0.03-0.09-0.063-0.133-0.097c-0.043-0.035-0.084-0.073-0.123-0.111
	c-0.038-0.04-0.076-0.081-0.111-0.123c-0.035-0.043-0.067-0.087-0.097-0.133c-0.031-0.046-0.059-0.093-0.085-0.141
	c-0.025-0.049-0.049-0.1-0.07-0.15c-0.021-0.05-0.039-0.103-0.056-0.154c-0.017-0.053-0.03-0.106-0.041-0.16
	c-0.01-0.054-0.019-0.108-0.024-0.162c-0.006-0.055-0.008-0.111-0.008-0.166s0.002-0.11,0.008-0.165s0.015-0.11,0.024-0.163
	c0.011-0.055,0.024-0.107,0.041-0.16c0.017-0.052,0.034-0.104,0.056-0.154c0.021-0.052,0.045-0.101,0.07-0.149
	c0.026-0.048,0.054-0.096,0.085-0.141c0.029-0.046,0.062-0.091,0.097-0.134c0.035-0.042,0.073-0.084,0.111-0.122
	c0.039-0.039,0.08-0.076,0.123-0.111c0.043-0.034,0.088-0.068,0.133-0.099c0.046-0.03,0.093-0.059,0.143-0.084
	c0.048-0.025,0.097-0.049,0.147-0.07c0.05-0.021,0.103-0.039,0.154-0.055c0.053-0.018,0.106-0.03,0.16-0.042
	c0.055-0.01,0.109-0.02,0.163-0.023c0.109-0.011,0.222-0.011,0.331,0c0.055,0.004,0.109,0.014,0.163,0.023
	c0.054,0.012,0.107,0.024,0.16,0.042c0.052,0.016,0.104,0.033,0.155,0.055c0.05,0.021,0.1,0.045,0.147,0.07
	c0.05,0.025,0.097,0.054,0.143,0.084c0.045,0.03,0.09,0.064,0.132,0.099c0.043,0.035,0.085,0.072,0.123,0.111
	c0.039,0.038,0.077,0.079,0.111,0.122c0.035,0.043,0.067,0.088,0.098,0.134c0.03,0.045,0.059,0.093,0.084,0.141
	c0.026,0.049,0.05,0.098,0.071,0.149c0.021,0.05,0.039,0.103,0.056,0.154c0.016,0.053,0.029,0.105,0.04,0.16
	c0.011,0.053,0.02,0.108,0.024,0.163c0.006,0.055,0.009,0.109,0.009,0.165c0,0.055-0.003,0.111-0.009,0.166
	c-0.005,0.054-0.014,0.108-0.024,0.162s-0.024,0.107-0.04,0.16c-0.017,0.052-0.035,0.104-0.056,0.154
	c-0.021,0.051-0.045,0.102-0.071,0.15c-0.025,0.048-0.054,0.095-0.084,0.141s-0.063,0.09-0.098,0.133
	c-0.034,0.042-0.072,0.083-0.111,0.123c-0.038,0.038-0.08,0.076-0.123,0.111c-0.042,0.034-0.087,0.067-0.132,0.097
	c-0.046,0.03-0.093,0.06-0.143,0.086c-0.048,0.025-0.098,0.049-0.147,0.068c-0.051,0.021-0.104,0.041-0.155,0.057
	c-0.053,0.016-0.106,0.029-0.16,0.04c-0.054,0.012-0.108,0.02-0.163,0.025S51.756,16.947,51.701,16.947L51.701,16.947z
	 M51.701,16.947"/>
<circle fill="#FFFFFF" cx="47.694" cy="47.553" r="12.4"/>
<path fill="#28DDC4" d="M35.345,47.646c0,4.889,2.842,9.115,6.964,11.118l-5.896-16.146C35.729,44.154,35.345,45.855,35.345,47.646z
	 M56.039,47.023c0-1.527-0.55-2.584-1.021-3.407c-0.624-1.018-1.212-1.879-1.212-2.897c0-1.136,0.86-2.193,2.075-2.193
	c0.054,0,0.107,0.007,0.16,0.01c-2.198-2.013-5.128-3.243-8.344-3.243c-4.316,0-8.112,2.216-10.322,5.567
	c0.29,0.01,0.564,0.016,0.796,0.016c1.292,0,3.292-0.156,3.292-0.156c0.666-0.039,0.745,0.939,0.079,1.019
	c0,0-0.669,0.077-1.414,0.118l4.5,13.381l2.703-8.108l-1.924-5.272c-0.666-0.041-1.296-0.119-1.296-0.119
	c-0.665-0.04-0.588-1.057,0.078-1.018c0,0,2.038,0.156,3.254,0.156c1.291,0,3.292-0.156,3.292-0.156
	c0.666-0.039,0.745,0.939,0.079,1.018c0,0-0.671,0.078-1.413,0.119l4.464,13.277l1.232-4.116
	C55.726,49.41,56.039,48.08,56.039,47.023z M47.915,48.728l-3.706,10.77C45.316,59.824,46.487,60,47.698,60
	c1.44,0,2.818-0.246,4.104-0.7c-0.033-0.053-0.064-0.108-0.089-0.169L47.915,48.728z M58.539,41.72
	c0.054,0.394,0.084,0.815,0.084,1.27c0,1.254-0.235,2.663-0.94,4.425l-3.773,10.911c3.675-2.143,6.143-6.121,6.143-10.679
	C60.052,45.498,59.504,43.479,58.539,41.72z"/>
</svg>
